%FSLAX45Y45*%
G04 Gerber Fmt 4.5, Leading zero omitted, Abs format (unit mm)*
G04 Created by KiCad (PCBNEW (5.1.9)-1) date 2021-08-22 04:22:46*
%MOMM*%
%LPD*%
G01*
G04 APERTURE LIST*
%TA.AperFunction,Profile*%
%ADD10C,0.100000*%
%TD*%
%ADD11C,0.200000*%
%ADD12C,0.300000*%
G04 APERTURE END LIST*
D10*
X11680000Y-11280000D02*
X11680000Y-6380000D01*
X16380000Y-11580000D02*
X11980000Y-11580000D01*
X11980000Y-6080000D02*
G75*
G03*
X11680000Y-6380000I0J-300000D01*
G01*
X16680000Y-6380000D02*
G75*
G03*
X16380000Y-6080000I-300000J0D01*
G01*
X11980000Y-6080000D02*
X16380000Y-6080000D01*
X16680000Y-11280000D02*
G75*
G02*
X16380000Y-11580000I-300000J0D01*
G01*
X16680000Y-6380000D02*
X16680000Y-11280000D01*
X11680000Y-11280000D02*
G75*
G03*
X11980000Y-11580000I300000J0D01*
G01*
D11*
X11991000Y-10505000D02*
X12101000Y-10615000D01*
X12101000Y-10505000D02*
X11991000Y-10615000D01*
X11991000Y-10759000D02*
X12101000Y-10869000D01*
X12101000Y-10759000D02*
X11991000Y-10869000D01*
X11991000Y-11013000D02*
X12101000Y-11123000D01*
X12101000Y-11013000D02*
X11991000Y-11123000D01*
X12271000Y-6471000D02*
X12381000Y-6581000D01*
X12381000Y-6471000D02*
X12271000Y-6581000D01*
X12525000Y-6471000D02*
X12635000Y-6581000D01*
X12635000Y-6471000D02*
X12525000Y-6581000D01*
X15021000Y-6934000D02*
G75*
G03*
X15021000Y-6934000I-175000J0D01*
G01*
D12*
X11961428Y-12050714D02*
X11961428Y-11750714D01*
X12032857Y-11750714D01*
X12075714Y-11765000D01*
X12104286Y-11793571D01*
X12118571Y-11822143D01*
X12132857Y-11879286D01*
X12132857Y-11922143D01*
X12118571Y-11979286D01*
X12104286Y-12007857D01*
X12075714Y-12036429D01*
X12032857Y-12050714D01*
X11961428Y-12050714D01*
X12261428Y-12050714D02*
X12261428Y-11850714D01*
X12261428Y-11907857D02*
X12275714Y-11879286D01*
X12290000Y-11865000D01*
X12318571Y-11850714D01*
X12347143Y-11850714D01*
X12447143Y-12050714D02*
X12447143Y-11850714D01*
X12447143Y-11750714D02*
X12432857Y-11765000D01*
X12447143Y-11779286D01*
X12461428Y-11765000D01*
X12447143Y-11750714D01*
X12447143Y-11779286D01*
X12632857Y-12050714D02*
X12604286Y-12036429D01*
X12590000Y-12007857D01*
X12590000Y-11750714D01*
X12790000Y-12050714D02*
X12761428Y-12036429D01*
X12747143Y-12007857D01*
X12747143Y-11750714D01*
X13132857Y-12050714D02*
X13132857Y-11750714D01*
X13232857Y-11965000D01*
X13332857Y-11750714D01*
X13332857Y-12050714D01*
X13604286Y-12050714D02*
X13604286Y-11893571D01*
X13590000Y-11865000D01*
X13561428Y-11850714D01*
X13504286Y-11850714D01*
X13475714Y-11865000D01*
X13604286Y-12036429D02*
X13575714Y-12050714D01*
X13504286Y-12050714D01*
X13475714Y-12036429D01*
X13461428Y-12007857D01*
X13461428Y-11979286D01*
X13475714Y-11950714D01*
X13504286Y-11936429D01*
X13575714Y-11936429D01*
X13604286Y-11922143D01*
X13747143Y-11850714D02*
X13747143Y-12150714D01*
X13747143Y-11865000D02*
X13775714Y-11850714D01*
X13832857Y-11850714D01*
X13861428Y-11865000D01*
X13875714Y-11879286D01*
X13890000Y-11907857D01*
X13890000Y-11993571D01*
X13875714Y-12022143D01*
X13861428Y-12036429D01*
X13832857Y-12050714D01*
X13775714Y-12050714D01*
X13747143Y-12036429D01*
X14018571Y-12022143D02*
X14032857Y-12036429D01*
X14018571Y-12050714D01*
X14004286Y-12036429D01*
X14018571Y-12022143D01*
X14018571Y-12050714D01*
X14018571Y-11865000D02*
X14032857Y-11879286D01*
X14018571Y-11893571D01*
X14004286Y-11879286D01*
X14018571Y-11865000D01*
X14018571Y-11893571D01*
X11565000Y-12490000D02*
X11675000Y-12600000D01*
X11675000Y-12490000D02*
X11565000Y-12600000D01*
X12118571Y-12680714D02*
X11947143Y-12680714D01*
X12032857Y-12680714D02*
X12032857Y-12380714D01*
X12004286Y-12423571D01*
X11975714Y-12452143D01*
X11947143Y-12466429D01*
X12247143Y-12652143D02*
X12261428Y-12666429D01*
X12247143Y-12680714D01*
X12232857Y-12666429D01*
X12247143Y-12652143D01*
X12247143Y-12680714D01*
X12547143Y-12680714D02*
X12375714Y-12680714D01*
X12461428Y-12680714D02*
X12461428Y-12380714D01*
X12432857Y-12423571D01*
X12404286Y-12452143D01*
X12375714Y-12466429D01*
X12732857Y-12380714D02*
X12761428Y-12380714D01*
X12790000Y-12395000D01*
X12804286Y-12409286D01*
X12818571Y-12437857D01*
X12832857Y-12495000D01*
X12832857Y-12566429D01*
X12818571Y-12623571D01*
X12804286Y-12652143D01*
X12790000Y-12666429D01*
X12761428Y-12680714D01*
X12732857Y-12680714D01*
X12704286Y-12666429D01*
X12690000Y-12652143D01*
X12675714Y-12623571D01*
X12661428Y-12566429D01*
X12661428Y-12495000D01*
X12675714Y-12437857D01*
X12690000Y-12409286D01*
X12704286Y-12395000D01*
X12732857Y-12380714D01*
X12961428Y-12680714D02*
X12961428Y-12480714D01*
X12961428Y-12509286D02*
X12975714Y-12495000D01*
X13004286Y-12480714D01*
X13047143Y-12480714D01*
X13075714Y-12495000D01*
X13090000Y-12523571D01*
X13090000Y-12680714D01*
X13090000Y-12523571D02*
X13104286Y-12495000D01*
X13132857Y-12480714D01*
X13175714Y-12480714D01*
X13204286Y-12495000D01*
X13218571Y-12523571D01*
X13218571Y-12680714D01*
X13361428Y-12680714D02*
X13361428Y-12480714D01*
X13361428Y-12509286D02*
X13375714Y-12495000D01*
X13404286Y-12480714D01*
X13447143Y-12480714D01*
X13475714Y-12495000D01*
X13490000Y-12523571D01*
X13490000Y-12680714D01*
X13490000Y-12523571D02*
X13504286Y-12495000D01*
X13532857Y-12480714D01*
X13575714Y-12480714D01*
X13604286Y-12495000D01*
X13618571Y-12523571D01*
X13618571Y-12680714D01*
X14204286Y-12366429D02*
X13947143Y-12752143D01*
X14590000Y-12380714D02*
X14618571Y-12380714D01*
X14647143Y-12395000D01*
X14661428Y-12409286D01*
X14675714Y-12437857D01*
X14690000Y-12495000D01*
X14690000Y-12566429D01*
X14675714Y-12623571D01*
X14661428Y-12652143D01*
X14647143Y-12666429D01*
X14618571Y-12680714D01*
X14590000Y-12680714D01*
X14561428Y-12666429D01*
X14547143Y-12652143D01*
X14532857Y-12623571D01*
X14518571Y-12566429D01*
X14518571Y-12495000D01*
X14532857Y-12437857D01*
X14547143Y-12409286D01*
X14561428Y-12395000D01*
X14590000Y-12380714D01*
X14818571Y-12652143D02*
X14832857Y-12666429D01*
X14818571Y-12680714D01*
X14804286Y-12666429D01*
X14818571Y-12652143D01*
X14818571Y-12680714D01*
X15018571Y-12380714D02*
X15047143Y-12380714D01*
X15075714Y-12395000D01*
X15090000Y-12409286D01*
X15104286Y-12437857D01*
X15118571Y-12495000D01*
X15118571Y-12566429D01*
X15104286Y-12623571D01*
X15090000Y-12652143D01*
X15075714Y-12666429D01*
X15047143Y-12680714D01*
X15018571Y-12680714D01*
X14990000Y-12666429D01*
X14975714Y-12652143D01*
X14961428Y-12623571D01*
X14947143Y-12566429D01*
X14947143Y-12495000D01*
X14961428Y-12437857D01*
X14975714Y-12409286D01*
X14990000Y-12395000D01*
X15018571Y-12380714D01*
X15375714Y-12480714D02*
X15375714Y-12680714D01*
X15304286Y-12366429D02*
X15232857Y-12580714D01*
X15418571Y-12580714D01*
X15504286Y-12380714D02*
X15690000Y-12380714D01*
X15590000Y-12495000D01*
X15632857Y-12495000D01*
X15661428Y-12509286D01*
X15675714Y-12523571D01*
X15690000Y-12552143D01*
X15690000Y-12623571D01*
X15675714Y-12652143D01*
X15661428Y-12666429D01*
X15632857Y-12680714D01*
X15547143Y-12680714D01*
X15518571Y-12666429D01*
X15504286Y-12652143D01*
X15804286Y-12380714D02*
X15804286Y-12437857D01*
X15918571Y-12380714D02*
X15918571Y-12437857D01*
X16361428Y-12795000D02*
X16347143Y-12780714D01*
X16318571Y-12737857D01*
X16304286Y-12709286D01*
X16290000Y-12666429D01*
X16275714Y-12595000D01*
X16275714Y-12537857D01*
X16290000Y-12466429D01*
X16304286Y-12423571D01*
X16318571Y-12395000D01*
X16347143Y-12352143D01*
X16361428Y-12337857D01*
X16618571Y-12380714D02*
X16475714Y-12380714D01*
X16461428Y-12523571D01*
X16475714Y-12509286D01*
X16504286Y-12495000D01*
X16575714Y-12495000D01*
X16604286Y-12509286D01*
X16618571Y-12523571D01*
X16632857Y-12552143D01*
X16632857Y-12623571D01*
X16618571Y-12652143D01*
X16604286Y-12666429D01*
X16575714Y-12680714D01*
X16504286Y-12680714D01*
X16475714Y-12666429D01*
X16461428Y-12652143D01*
X16990000Y-12680714D02*
X16990000Y-12380714D01*
X17118571Y-12680714D02*
X17118571Y-12523571D01*
X17104286Y-12495000D01*
X17075714Y-12480714D01*
X17032857Y-12480714D01*
X17004286Y-12495000D01*
X16990000Y-12509286D01*
X17304286Y-12680714D02*
X17275714Y-12666429D01*
X17261428Y-12652143D01*
X17247143Y-12623571D01*
X17247143Y-12537857D01*
X17261428Y-12509286D01*
X17275714Y-12495000D01*
X17304286Y-12480714D01*
X17347143Y-12480714D01*
X17375714Y-12495000D01*
X17390000Y-12509286D01*
X17404286Y-12537857D01*
X17404286Y-12623571D01*
X17390000Y-12652143D01*
X17375714Y-12666429D01*
X17347143Y-12680714D01*
X17304286Y-12680714D01*
X17575714Y-12680714D02*
X17547143Y-12666429D01*
X17532857Y-12637857D01*
X17532857Y-12380714D01*
X17804286Y-12666429D02*
X17775714Y-12680714D01*
X17718571Y-12680714D01*
X17690000Y-12666429D01*
X17675714Y-12637857D01*
X17675714Y-12523571D01*
X17690000Y-12495000D01*
X17718571Y-12480714D01*
X17775714Y-12480714D01*
X17804286Y-12495000D01*
X17818571Y-12523571D01*
X17818571Y-12552143D01*
X17675714Y-12580714D01*
X17932857Y-12666429D02*
X17961428Y-12680714D01*
X18018571Y-12680714D01*
X18047143Y-12666429D01*
X18061428Y-12637857D01*
X18061428Y-12623571D01*
X18047143Y-12595000D01*
X18018571Y-12580714D01*
X17975714Y-12580714D01*
X17947143Y-12566429D01*
X17932857Y-12537857D01*
X17932857Y-12523571D01*
X17947143Y-12495000D01*
X17975714Y-12480714D01*
X18018571Y-12480714D01*
X18047143Y-12495000D01*
X18161428Y-12795000D02*
X18175714Y-12780714D01*
X18204286Y-12737857D01*
X18218571Y-12709286D01*
X18232857Y-12666429D01*
X18247143Y-12595000D01*
X18247143Y-12537857D01*
X18232857Y-12466429D01*
X18218571Y-12423571D01*
X18204286Y-12395000D01*
X18175714Y-12352143D01*
X18161428Y-12337857D01*
X18704286Y-12795000D02*
X18690000Y-12780714D01*
X18661428Y-12737857D01*
X18647143Y-12709286D01*
X18632857Y-12666429D01*
X18618571Y-12595000D01*
X18618571Y-12537857D01*
X18632857Y-12466429D01*
X18647143Y-12423571D01*
X18661428Y-12395000D01*
X18690000Y-12352143D01*
X18704286Y-12337857D01*
X18818571Y-12480714D02*
X18818571Y-12680714D01*
X18818571Y-12509286D02*
X18832857Y-12495000D01*
X18861428Y-12480714D01*
X18904286Y-12480714D01*
X18932857Y-12495000D01*
X18947143Y-12523571D01*
X18947143Y-12680714D01*
X19132857Y-12680714D02*
X19104286Y-12666429D01*
X19090000Y-12652143D01*
X19075714Y-12623571D01*
X19075714Y-12537857D01*
X19090000Y-12509286D01*
X19104286Y-12495000D01*
X19132857Y-12480714D01*
X19175714Y-12480714D01*
X19204286Y-12495000D01*
X19218571Y-12509286D01*
X19232857Y-12537857D01*
X19232857Y-12623571D01*
X19218571Y-12652143D01*
X19204286Y-12666429D01*
X19175714Y-12680714D01*
X19132857Y-12680714D01*
X19318571Y-12480714D02*
X19432857Y-12480714D01*
X19361428Y-12380714D02*
X19361428Y-12637857D01*
X19375714Y-12666429D01*
X19404286Y-12680714D01*
X19432857Y-12680714D01*
X19761428Y-12480714D02*
X19761428Y-12780714D01*
X19761428Y-12495000D02*
X19790000Y-12480714D01*
X19847143Y-12480714D01*
X19875714Y-12495000D01*
X19890000Y-12509286D01*
X19904286Y-12537857D01*
X19904286Y-12623571D01*
X19890000Y-12652143D01*
X19875714Y-12666429D01*
X19847143Y-12680714D01*
X19790000Y-12680714D01*
X19761428Y-12666429D01*
X20075714Y-12680714D02*
X20047143Y-12666429D01*
X20032857Y-12637857D01*
X20032857Y-12380714D01*
X20318571Y-12680714D02*
X20318571Y-12523571D01*
X20304286Y-12495000D01*
X20275714Y-12480714D01*
X20218571Y-12480714D01*
X20190000Y-12495000D01*
X20318571Y-12666429D02*
X20290000Y-12680714D01*
X20218571Y-12680714D01*
X20190000Y-12666429D01*
X20175714Y-12637857D01*
X20175714Y-12609286D01*
X20190000Y-12580714D01*
X20218571Y-12566429D01*
X20290000Y-12566429D01*
X20318571Y-12552143D01*
X20418571Y-12480714D02*
X20532857Y-12480714D01*
X20461428Y-12380714D02*
X20461428Y-12637857D01*
X20475714Y-12666429D01*
X20504286Y-12680714D01*
X20532857Y-12680714D01*
X20747143Y-12666429D02*
X20718571Y-12680714D01*
X20661428Y-12680714D01*
X20632857Y-12666429D01*
X20618571Y-12637857D01*
X20618571Y-12523571D01*
X20632857Y-12495000D01*
X20661428Y-12480714D01*
X20718571Y-12480714D01*
X20747143Y-12495000D01*
X20761428Y-12523571D01*
X20761428Y-12552143D01*
X20618571Y-12580714D01*
X21018571Y-12680714D02*
X21018571Y-12380714D01*
X21018571Y-12666429D02*
X20990000Y-12680714D01*
X20932857Y-12680714D01*
X20904286Y-12666429D01*
X20890000Y-12652143D01*
X20875714Y-12623571D01*
X20875714Y-12537857D01*
X20890000Y-12509286D01*
X20904286Y-12495000D01*
X20932857Y-12480714D01*
X20990000Y-12480714D01*
X21018571Y-12495000D01*
X21132857Y-12795000D02*
X21147143Y-12780714D01*
X21175714Y-12737857D01*
X21190000Y-12709286D01*
X21204286Y-12666429D01*
X21218571Y-12595000D01*
X21218571Y-12537857D01*
X21204286Y-12466429D01*
X21190000Y-12423571D01*
X21175714Y-12395000D01*
X21147143Y-12352143D01*
X21132857Y-12337857D01*
X11675000Y-12941000D02*
G75*
G03*
X11675000Y-12941000I-175000J0D01*
G01*
X11932857Y-12776714D02*
X12118571Y-12776714D01*
X12018571Y-12891000D01*
X12061428Y-12891000D01*
X12090000Y-12905286D01*
X12104286Y-12919571D01*
X12118571Y-12948143D01*
X12118571Y-13019571D01*
X12104286Y-13048143D01*
X12090000Y-13062429D01*
X12061428Y-13076714D01*
X11975714Y-13076714D01*
X11947143Y-13062429D01*
X11932857Y-13048143D01*
X12247143Y-13048143D02*
X12261428Y-13062429D01*
X12247143Y-13076714D01*
X12232857Y-13062429D01*
X12247143Y-13048143D01*
X12247143Y-13076714D01*
X12532857Y-12776714D02*
X12390000Y-12776714D01*
X12375714Y-12919571D01*
X12390000Y-12905286D01*
X12418571Y-12891000D01*
X12490000Y-12891000D01*
X12518571Y-12905286D01*
X12532857Y-12919571D01*
X12547143Y-12948143D01*
X12547143Y-13019571D01*
X12532857Y-13048143D01*
X12518571Y-13062429D01*
X12490000Y-13076714D01*
X12418571Y-13076714D01*
X12390000Y-13062429D01*
X12375714Y-13048143D01*
X12732857Y-12776714D02*
X12761428Y-12776714D01*
X12790000Y-12791000D01*
X12804286Y-12805286D01*
X12818571Y-12833857D01*
X12832857Y-12891000D01*
X12832857Y-12962429D01*
X12818571Y-13019571D01*
X12804286Y-13048143D01*
X12790000Y-13062429D01*
X12761428Y-13076714D01*
X12732857Y-13076714D01*
X12704286Y-13062429D01*
X12690000Y-13048143D01*
X12675714Y-13019571D01*
X12661428Y-12962429D01*
X12661428Y-12891000D01*
X12675714Y-12833857D01*
X12690000Y-12805286D01*
X12704286Y-12791000D01*
X12732857Y-12776714D01*
X12961428Y-13076714D02*
X12961428Y-12876714D01*
X12961428Y-12905286D02*
X12975714Y-12891000D01*
X13004286Y-12876714D01*
X13047143Y-12876714D01*
X13075714Y-12891000D01*
X13090000Y-12919571D01*
X13090000Y-13076714D01*
X13090000Y-12919571D02*
X13104286Y-12891000D01*
X13132857Y-12876714D01*
X13175714Y-12876714D01*
X13204286Y-12891000D01*
X13218571Y-12919571D01*
X13218571Y-13076714D01*
X13361428Y-13076714D02*
X13361428Y-12876714D01*
X13361428Y-12905286D02*
X13375714Y-12891000D01*
X13404286Y-12876714D01*
X13447143Y-12876714D01*
X13475714Y-12891000D01*
X13490000Y-12919571D01*
X13490000Y-13076714D01*
X13490000Y-12919571D02*
X13504286Y-12891000D01*
X13532857Y-12876714D01*
X13575714Y-12876714D01*
X13604286Y-12891000D01*
X13618571Y-12919571D01*
X13618571Y-13076714D01*
X14204286Y-12762429D02*
X13947143Y-13148143D01*
X14590000Y-12776714D02*
X14618571Y-12776714D01*
X14647143Y-12791000D01*
X14661428Y-12805286D01*
X14675714Y-12833857D01*
X14690000Y-12891000D01*
X14690000Y-12962429D01*
X14675714Y-13019571D01*
X14661428Y-13048143D01*
X14647143Y-13062429D01*
X14618571Y-13076714D01*
X14590000Y-13076714D01*
X14561428Y-13062429D01*
X14547143Y-13048143D01*
X14532857Y-13019571D01*
X14518571Y-12962429D01*
X14518571Y-12891000D01*
X14532857Y-12833857D01*
X14547143Y-12805286D01*
X14561428Y-12791000D01*
X14590000Y-12776714D01*
X14818571Y-13048143D02*
X14832857Y-13062429D01*
X14818571Y-13076714D01*
X14804286Y-13062429D01*
X14818571Y-13048143D01*
X14818571Y-13076714D01*
X15118571Y-13076714D02*
X14947143Y-13076714D01*
X15032857Y-13076714D02*
X15032857Y-12776714D01*
X15004286Y-12819571D01*
X14975714Y-12848143D01*
X14947143Y-12862429D01*
X15218571Y-12776714D02*
X15404286Y-12776714D01*
X15304286Y-12891000D01*
X15347143Y-12891000D01*
X15375714Y-12905286D01*
X15390000Y-12919571D01*
X15404286Y-12948143D01*
X15404286Y-13019571D01*
X15390000Y-13048143D01*
X15375714Y-13062429D01*
X15347143Y-13076714D01*
X15261428Y-13076714D01*
X15232857Y-13062429D01*
X15218571Y-13048143D01*
X15575714Y-12905286D02*
X15547143Y-12891000D01*
X15532857Y-12876714D01*
X15518571Y-12848143D01*
X15518571Y-12833857D01*
X15532857Y-12805286D01*
X15547143Y-12791000D01*
X15575714Y-12776714D01*
X15632857Y-12776714D01*
X15661428Y-12791000D01*
X15675714Y-12805286D01*
X15690000Y-12833857D01*
X15690000Y-12848143D01*
X15675714Y-12876714D01*
X15661428Y-12891000D01*
X15632857Y-12905286D01*
X15575714Y-12905286D01*
X15547143Y-12919571D01*
X15532857Y-12933857D01*
X15518571Y-12962429D01*
X15518571Y-13019571D01*
X15532857Y-13048143D01*
X15547143Y-13062429D01*
X15575714Y-13076714D01*
X15632857Y-13076714D01*
X15661428Y-13062429D01*
X15675714Y-13048143D01*
X15690000Y-13019571D01*
X15690000Y-12962429D01*
X15675714Y-12933857D01*
X15661428Y-12919571D01*
X15632857Y-12905286D01*
X15804286Y-12776714D02*
X15804286Y-12833857D01*
X15918571Y-12776714D02*
X15918571Y-12833857D01*
X16361428Y-13191000D02*
X16347143Y-13176714D01*
X16318571Y-13133857D01*
X16304286Y-13105286D01*
X16290000Y-13062429D01*
X16275714Y-12991000D01*
X16275714Y-12933857D01*
X16290000Y-12862429D01*
X16304286Y-12819571D01*
X16318571Y-12791000D01*
X16347143Y-12748143D01*
X16361428Y-12733857D01*
X16632857Y-13076714D02*
X16461428Y-13076714D01*
X16547143Y-13076714D02*
X16547143Y-12776714D01*
X16518571Y-12819571D01*
X16490000Y-12848143D01*
X16461428Y-12862429D01*
X16990000Y-13076714D02*
X16990000Y-12776714D01*
X17118571Y-13076714D02*
X17118571Y-12919571D01*
X17104286Y-12891000D01*
X17075714Y-12876714D01*
X17032857Y-12876714D01*
X17004286Y-12891000D01*
X16990000Y-12905286D01*
X17304286Y-13076714D02*
X17275714Y-13062429D01*
X17261428Y-13048143D01*
X17247143Y-13019571D01*
X17247143Y-12933857D01*
X17261428Y-12905286D01*
X17275714Y-12891000D01*
X17304286Y-12876714D01*
X17347143Y-12876714D01*
X17375714Y-12891000D01*
X17390000Y-12905286D01*
X17404286Y-12933857D01*
X17404286Y-13019571D01*
X17390000Y-13048143D01*
X17375714Y-13062429D01*
X17347143Y-13076714D01*
X17304286Y-13076714D01*
X17575714Y-13076714D02*
X17547143Y-13062429D01*
X17532857Y-13033857D01*
X17532857Y-12776714D01*
X17804286Y-13062429D02*
X17775714Y-13076714D01*
X17718571Y-13076714D01*
X17690000Y-13062429D01*
X17675714Y-13033857D01*
X17675714Y-12919571D01*
X17690000Y-12891000D01*
X17718571Y-12876714D01*
X17775714Y-12876714D01*
X17804286Y-12891000D01*
X17818571Y-12919571D01*
X17818571Y-12948143D01*
X17675714Y-12976714D01*
X17918571Y-13191000D02*
X17932857Y-13176714D01*
X17961428Y-13133857D01*
X17975714Y-13105286D01*
X17990000Y-13062429D01*
X18004286Y-12991000D01*
X18004286Y-12933857D01*
X17990000Y-12862429D01*
X17975714Y-12819571D01*
X17961428Y-12791000D01*
X17932857Y-12748143D01*
X17918571Y-12733857D01*
X18461428Y-13191000D02*
X18447143Y-13176714D01*
X18418571Y-13133857D01*
X18404286Y-13105286D01*
X18390000Y-13062429D01*
X18375714Y-12991000D01*
X18375714Y-12933857D01*
X18390000Y-12862429D01*
X18404286Y-12819571D01*
X18418571Y-12791000D01*
X18447143Y-12748143D01*
X18461428Y-12733857D01*
X18575714Y-12876714D02*
X18575714Y-13076714D01*
X18575714Y-12905286D02*
X18590000Y-12891000D01*
X18618571Y-12876714D01*
X18661428Y-12876714D01*
X18690000Y-12891000D01*
X18704286Y-12919571D01*
X18704286Y-13076714D01*
X18890000Y-13076714D02*
X18861428Y-13062429D01*
X18847143Y-13048143D01*
X18832857Y-13019571D01*
X18832857Y-12933857D01*
X18847143Y-12905286D01*
X18861428Y-12891000D01*
X18890000Y-12876714D01*
X18932857Y-12876714D01*
X18961428Y-12891000D01*
X18975714Y-12905286D01*
X18990000Y-12933857D01*
X18990000Y-13019571D01*
X18975714Y-13048143D01*
X18961428Y-13062429D01*
X18932857Y-13076714D01*
X18890000Y-13076714D01*
X19075714Y-12876714D02*
X19190000Y-12876714D01*
X19118571Y-12776714D02*
X19118571Y-13033857D01*
X19132857Y-13062429D01*
X19161428Y-13076714D01*
X19190000Y-13076714D01*
X19518571Y-12876714D02*
X19518571Y-13176714D01*
X19518571Y-12891000D02*
X19547143Y-12876714D01*
X19604286Y-12876714D01*
X19632857Y-12891000D01*
X19647143Y-12905286D01*
X19661428Y-12933857D01*
X19661428Y-13019571D01*
X19647143Y-13048143D01*
X19632857Y-13062429D01*
X19604286Y-13076714D01*
X19547143Y-13076714D01*
X19518571Y-13062429D01*
X19832857Y-13076714D02*
X19804286Y-13062429D01*
X19790000Y-13033857D01*
X19790000Y-12776714D01*
X20075714Y-13076714D02*
X20075714Y-12919571D01*
X20061428Y-12891000D01*
X20032857Y-12876714D01*
X19975714Y-12876714D01*
X19947143Y-12891000D01*
X20075714Y-13062429D02*
X20047143Y-13076714D01*
X19975714Y-13076714D01*
X19947143Y-13062429D01*
X19932857Y-13033857D01*
X19932857Y-13005286D01*
X19947143Y-12976714D01*
X19975714Y-12962429D01*
X20047143Y-12962429D01*
X20075714Y-12948143D01*
X20175714Y-12876714D02*
X20290000Y-12876714D01*
X20218571Y-12776714D02*
X20218571Y-13033857D01*
X20232857Y-13062429D01*
X20261428Y-13076714D01*
X20290000Y-13076714D01*
X20504286Y-13062429D02*
X20475714Y-13076714D01*
X20418571Y-13076714D01*
X20390000Y-13062429D01*
X20375714Y-13033857D01*
X20375714Y-12919571D01*
X20390000Y-12891000D01*
X20418571Y-12876714D01*
X20475714Y-12876714D01*
X20504286Y-12891000D01*
X20518571Y-12919571D01*
X20518571Y-12948143D01*
X20375714Y-12976714D01*
X20775714Y-13076714D02*
X20775714Y-12776714D01*
X20775714Y-13062429D02*
X20747143Y-13076714D01*
X20690000Y-13076714D01*
X20661428Y-13062429D01*
X20647143Y-13048143D01*
X20632857Y-13019571D01*
X20632857Y-12933857D01*
X20647143Y-12905286D01*
X20661428Y-12891000D01*
X20690000Y-12876714D01*
X20747143Y-12876714D01*
X20775714Y-12891000D01*
X20890000Y-13191000D02*
X20904286Y-13176714D01*
X20932857Y-13133857D01*
X20947143Y-13105286D01*
X20961428Y-13062429D01*
X20975714Y-12991000D01*
X20975714Y-12933857D01*
X20961428Y-12862429D01*
X20947143Y-12819571D01*
X20932857Y-12791000D01*
X20904286Y-12748143D01*
X20890000Y-12733857D01*
M02*
