%TF.GenerationSoftware,KiCad,Pcbnew,(5.1.9)-1*%
%TF.CreationDate,2021-08-22T04:22:43+05:30*%
%TF.ProjectId,G18_RECEIVER_laser_communication_system,4731385f-5245-4434-9549-5645525f6c61,rev?*%
%TF.SameCoordinates,Original*%
%TF.FileFunction,Soldermask,Top*%
%TF.FilePolarity,Negative*%
%FSLAX46Y46*%
G04 Gerber Fmt 4.6, Leading zero omitted, Abs format (unit mm)*
G04 Created by KiCad (PCBNEW (5.1.9)-1) date 2021-08-22 04:22:43*
%MOMM*%
%LPD*%
G01*
G04 APERTURE LIST*
%ADD10O,1.700000X1.700000*%
%ADD11R,1.700000X1.700000*%
%ADD12R,1.600000X1.600000*%
%ADD13C,1.600000*%
%ADD14R,2.200000X2.200000*%
%ADD15O,2.200000X2.200000*%
%ADD16R,1.800000X1.800000*%
%ADD17C,1.800000*%
%ADD18C,1.100000*%
%ADD19C,2.200000*%
%ADD20O,1.600000X1.600000*%
%ADD21C,2.000000*%
%ADD22O,3.500000X3.500000*%
%ADD23R,2.000000X1.905000*%
%ADD24O,2.000000X1.905000*%
%ADD25R,2.400000X1.600000*%
%ADD26O,2.400000X1.600000*%
%ADD27C,1.500000*%
G04 APERTURE END LIST*
D10*
%TO.C,ICSP*%
X161800000Y-110960000D03*
X161800000Y-108420000D03*
X161800000Y-105880000D03*
X161800000Y-103340000D03*
D11*
X161800000Y-100800000D03*
%TD*%
D12*
%TO.C,C1*%
X122800000Y-89800000D03*
D13*
X125300000Y-89800000D03*
%TD*%
%TO.C,C2*%
X126800000Y-73800000D03*
X126800000Y-78800000D03*
%TD*%
%TO.C,C3*%
X149800000Y-83800000D03*
X149800000Y-78800000D03*
%TD*%
%TO.C,C4*%
X149800000Y-91800000D03*
X149800000Y-86800000D03*
%TD*%
%TO.C,C5*%
X156800000Y-106800000D03*
X156800000Y-111800000D03*
%TD*%
D14*
%TO.C,D1*%
X122800000Y-83960000D03*
D15*
X122800000Y-73800000D03*
%TD*%
D16*
%TO.C,BIT3*%
X158800000Y-94800000D03*
D17*
X156260000Y-94800000D03*
%TD*%
%TO.C,BIT2*%
X156260000Y-89800000D03*
D16*
X158800000Y-89800000D03*
%TD*%
%TO.C,BIT1*%
X158800000Y-84800000D03*
D17*
X156260000Y-84800000D03*
%TD*%
%TO.C,BIT0*%
X156260000Y-79800000D03*
D16*
X158800000Y-79800000D03*
%TD*%
D14*
%TO.C,J1*%
X125800000Y-67800000D03*
D18*
X125800000Y-65260000D03*
D19*
X123260000Y-67800000D03*
D18*
X123260000Y-65260000D03*
%TD*%
D14*
%TO.C,J2*%
X123000000Y-105600000D03*
D18*
X120460000Y-105600000D03*
D19*
X123000000Y-108140000D03*
D18*
X120460000Y-108140000D03*
D19*
X123000000Y-110680000D03*
D18*
X120460000Y-110680000D03*
%TD*%
D13*
%TO.C,R1*%
X154180000Y-74800000D03*
D20*
X161800000Y-74800000D03*
%TD*%
D13*
%TO.C,R2*%
X149800000Y-111600000D03*
D20*
X149800000Y-103980000D03*
%TD*%
%TO.C,R3*%
X144800000Y-103980000D03*
D13*
X144800000Y-111600000D03*
%TD*%
%TO.C,R4*%
X139800000Y-111600000D03*
D20*
X139800000Y-103980000D03*
%TD*%
%TO.C,R5*%
X134800000Y-103980000D03*
D13*
X134800000Y-111600000D03*
%TD*%
D21*
%TO.C,RESET*%
X155300000Y-70300000D03*
X155300000Y-65800000D03*
X161800000Y-70300000D03*
X161800000Y-65800000D03*
%TD*%
D22*
%TO.C,U1*%
X148460000Y-69340000D03*
D23*
X131800000Y-66800000D03*
D24*
X131800000Y-69340000D03*
X131800000Y-71880000D03*
%TD*%
D25*
%TO.C,U2*%
X131800000Y-78800000D03*
D26*
X139420000Y-99120000D03*
X131800000Y-81340000D03*
X139420000Y-96580000D03*
X131800000Y-83880000D03*
X139420000Y-94040000D03*
X131800000Y-86420000D03*
X139420000Y-91500000D03*
X131800000Y-88960000D03*
X139420000Y-88960000D03*
X131800000Y-91500000D03*
X139420000Y-86420000D03*
X131800000Y-94040000D03*
X139420000Y-83880000D03*
X131800000Y-96580000D03*
X139420000Y-81340000D03*
X131800000Y-99120000D03*
X139420000Y-78800000D03*
%TD*%
D27*
%TO.C,Y1*%
X144800000Y-82800000D03*
X144800000Y-87700000D03*
%TD*%
M02*
