%FSLAX45Y45*%
G04 Gerber Fmt 4.5, Leading zero omitted, Abs format (unit mm)*
G04 Created by KiCad (PCBNEW (5.1.9)-1) date 2021-08-22 04:22:46*
%MOMM*%
%LPD*%
G01*
G04 APERTURE LIST*
%TA.AperFunction,Profile*%
%ADD10C,0.100000*%
%TD*%
%ADD11C,0.200000*%
%ADD12C,0.300000*%
G04 APERTURE END LIST*
D10*
X11680000Y-11280000D02*
X11680000Y-6380000D01*
X16380000Y-11580000D02*
X11980000Y-11580000D01*
X11980000Y-6080000D02*
G75*
G03*
X11680000Y-6380000I0J-300000D01*
G01*
X16680000Y-6380000D02*
G75*
G03*
X16380000Y-6080000I-300000J0D01*
G01*
X11980000Y-6080000D02*
X16380000Y-6080000D01*
X16680000Y-11280000D02*
G75*
G02*
X16380000Y-11580000I-300000J0D01*
G01*
X16680000Y-6380000D02*
X16680000Y-11280000D01*
X11680000Y-11280000D02*
G75*
G03*
X11980000Y-11580000I300000J0D01*
G01*
D11*
X13420000Y-10200000D02*
X13460000Y-10240000D01*
X13460000Y-10200000D02*
X13420000Y-10240000D01*
X12320000Y-8980000D02*
G75*
G03*
X12320000Y-8980000I-40000J0D01*
G01*
X12570000Y-8980000D02*
G75*
G03*
X12570000Y-8980000I-40000J0D01*
G01*
X12720000Y-7380000D02*
G75*
G03*
X12720000Y-7380000I-40000J0D01*
G01*
X12720000Y-7880000D02*
G75*
G03*
X12720000Y-7880000I-40000J0D01*
G01*
X13220000Y-7880000D02*
G75*
G03*
X13220000Y-7880000I-40000J0D01*
G01*
X13220000Y-8134000D02*
G75*
G03*
X13220000Y-8134000I-40000J0D01*
G01*
X13220000Y-8388000D02*
G75*
G03*
X13220000Y-8388000I-40000J0D01*
G01*
X13220000Y-8642000D02*
G75*
G03*
X13220000Y-8642000I-40000J0D01*
G01*
X13220000Y-8896000D02*
G75*
G03*
X13220000Y-8896000I-40000J0D01*
G01*
X13220000Y-9150000D02*
G75*
G03*
X13220000Y-9150000I-40000J0D01*
G01*
X13220000Y-9404000D02*
G75*
G03*
X13220000Y-9404000I-40000J0D01*
G01*
X13220000Y-9658000D02*
G75*
G03*
X13220000Y-9658000I-40000J0D01*
G01*
X13220000Y-9912000D02*
G75*
G03*
X13220000Y-9912000I-40000J0D01*
G01*
X13520000Y-10398000D02*
G75*
G03*
X13520000Y-10398000I-40000J0D01*
G01*
X13520000Y-11160000D02*
G75*
G03*
X13520000Y-11160000I-40000J0D01*
G01*
X13982000Y-7880000D02*
G75*
G03*
X13982000Y-7880000I-40000J0D01*
G01*
X13982000Y-8134000D02*
G75*
G03*
X13982000Y-8134000I-40000J0D01*
G01*
X13982000Y-8388000D02*
G75*
G03*
X13982000Y-8388000I-40000J0D01*
G01*
X13982000Y-8642000D02*
G75*
G03*
X13982000Y-8642000I-40000J0D01*
G01*
X13982000Y-8896000D02*
G75*
G03*
X13982000Y-8896000I-40000J0D01*
G01*
X13982000Y-9150000D02*
G75*
G03*
X13982000Y-9150000I-40000J0D01*
G01*
X13982000Y-9404000D02*
G75*
G03*
X13982000Y-9404000I-40000J0D01*
G01*
X13982000Y-9658000D02*
G75*
G03*
X13982000Y-9658000I-40000J0D01*
G01*
X13982000Y-9912000D02*
G75*
G03*
X13982000Y-9912000I-40000J0D01*
G01*
X14020000Y-10398000D02*
G75*
G03*
X14020000Y-10398000I-40000J0D01*
G01*
X14020000Y-11160000D02*
G75*
G03*
X14020000Y-11160000I-40000J0D01*
G01*
X14520000Y-8280000D02*
G75*
G03*
X14520000Y-8280000I-40000J0D01*
G01*
X14520000Y-8770000D02*
G75*
G03*
X14520000Y-8770000I-40000J0D01*
G01*
X14520000Y-10398000D02*
G75*
G03*
X14520000Y-10398000I-40000J0D01*
G01*
X14520000Y-11160000D02*
G75*
G03*
X14520000Y-11160000I-40000J0D01*
G01*
X15020000Y-7880000D02*
G75*
G03*
X15020000Y-7880000I-40000J0D01*
G01*
X15020000Y-8380000D02*
G75*
G03*
X15020000Y-8380000I-40000J0D01*
G01*
X15020000Y-8680000D02*
G75*
G03*
X15020000Y-8680000I-40000J0D01*
G01*
X15020000Y-9180000D02*
G75*
G03*
X15020000Y-9180000I-40000J0D01*
G01*
X15020000Y-10398000D02*
G75*
G03*
X15020000Y-10398000I-40000J0D01*
G01*
X15020000Y-11160000D02*
G75*
G03*
X15020000Y-11160000I-40000J0D01*
G01*
X15458000Y-7480000D02*
G75*
G03*
X15458000Y-7480000I-40000J0D01*
G01*
X15720000Y-10680000D02*
G75*
G03*
X15720000Y-10680000I-40000J0D01*
G01*
X15720000Y-11180000D02*
G75*
G03*
X15720000Y-11180000I-40000J0D01*
G01*
X16220000Y-7480000D02*
G75*
G03*
X16220000Y-7480000I-40000J0D01*
G01*
X15626000Y-7935000D02*
X15626000Y-8025000D01*
X15581000Y-7980000D02*
X15671000Y-7980000D01*
X15626000Y-8435000D02*
X15626000Y-8525000D01*
X15581000Y-8480000D02*
X15671000Y-8480000D01*
X15626000Y-8935000D02*
X15626000Y-9025000D01*
X15581000Y-8980000D02*
X15671000Y-8980000D01*
X15626000Y-9435000D02*
X15626000Y-9525000D01*
X15581000Y-9480000D02*
X15671000Y-9480000D01*
X15880000Y-7935000D02*
X15880000Y-8025000D01*
X15835000Y-7980000D02*
X15925000Y-7980000D01*
X15880000Y-8435000D02*
X15880000Y-8525000D01*
X15835000Y-8480000D02*
X15925000Y-8480000D01*
X15880000Y-8935000D02*
X15880000Y-9025000D01*
X15835000Y-8980000D02*
X15925000Y-8980000D01*
X15880000Y-9435000D02*
X15880000Y-9525000D01*
X15835000Y-9480000D02*
X15925000Y-9480000D01*
X16215356Y-10115356D02*
X16215356Y-10044644D01*
X16144644Y-10044644D01*
X16144644Y-10115356D01*
X16215356Y-10115356D01*
X16215356Y-10369356D02*
X16215356Y-10298644D01*
X16144644Y-10298644D01*
X16144644Y-10369356D01*
X16215356Y-10369356D01*
X16215356Y-10623356D02*
X16215356Y-10552644D01*
X16144644Y-10552644D01*
X16144644Y-10623356D01*
X16215356Y-10623356D01*
X16215356Y-10877356D02*
X16215356Y-10806644D01*
X16144644Y-10806644D01*
X16144644Y-10877356D01*
X16215356Y-10877356D01*
X16215356Y-11131356D02*
X16215356Y-11060644D01*
X16144644Y-11060644D01*
X16144644Y-11131356D01*
X16215356Y-11131356D01*
X12280000Y-7435000D02*
X12335000Y-7380000D01*
X12280000Y-7325000D01*
X12225000Y-7380000D01*
X12280000Y-7435000D01*
X12280000Y-8451000D02*
X12335000Y-8396000D01*
X12280000Y-8341000D01*
X12225000Y-8396000D01*
X12280000Y-8451000D01*
X12300000Y-10615000D02*
X12355000Y-10560000D01*
X12300000Y-10505000D01*
X12245000Y-10560000D01*
X12300000Y-10615000D01*
X12300000Y-10869000D02*
X12355000Y-10814000D01*
X12300000Y-10759000D01*
X12245000Y-10814000D01*
X12300000Y-10869000D01*
X12300000Y-11123000D02*
X12355000Y-11068000D01*
X12300000Y-11013000D01*
X12245000Y-11068000D01*
X12300000Y-11123000D01*
X12326000Y-6835000D02*
X12381000Y-6780000D01*
X12326000Y-6725000D01*
X12271000Y-6780000D01*
X12326000Y-6835000D01*
X12580000Y-6835000D02*
X12635000Y-6780000D01*
X12580000Y-6725000D01*
X12525000Y-6780000D01*
X12580000Y-6835000D01*
X13180000Y-6735000D02*
X13235000Y-6680000D01*
X13180000Y-6625000D01*
X13125000Y-6680000D01*
X13180000Y-6735000D01*
X13180000Y-6989000D02*
X13235000Y-6934000D01*
X13180000Y-6879000D01*
X13125000Y-6934000D01*
X13180000Y-6989000D01*
X13180000Y-7243000D02*
X13235000Y-7188000D01*
X13180000Y-7133000D01*
X13125000Y-7188000D01*
X13180000Y-7243000D01*
X15530000Y-6635000D02*
X15585000Y-6580000D01*
X15530000Y-6525000D01*
X15475000Y-6580000D01*
X15530000Y-6635000D01*
X15530000Y-7085000D02*
X15585000Y-7030000D01*
X15530000Y-6975000D01*
X15475000Y-7030000D01*
X15530000Y-7085000D01*
X16180000Y-6635000D02*
X16235000Y-6580000D01*
X16180000Y-6525000D01*
X16125000Y-6580000D01*
X16180000Y-6635000D01*
X16180000Y-7085000D02*
X16235000Y-7030000D01*
X16180000Y-6975000D01*
X16125000Y-7030000D01*
X16180000Y-7085000D01*
D12*
X11961428Y-12050714D02*
X11961428Y-11750714D01*
X12032857Y-11750714D01*
X12075714Y-11765000D01*
X12104286Y-11793571D01*
X12118571Y-11822143D01*
X12132857Y-11879286D01*
X12132857Y-11922143D01*
X12118571Y-11979286D01*
X12104286Y-12007857D01*
X12075714Y-12036429D01*
X12032857Y-12050714D01*
X11961428Y-12050714D01*
X12261428Y-12050714D02*
X12261428Y-11850714D01*
X12261428Y-11907857D02*
X12275714Y-11879286D01*
X12290000Y-11865000D01*
X12318571Y-11850714D01*
X12347143Y-11850714D01*
X12447143Y-12050714D02*
X12447143Y-11850714D01*
X12447143Y-11750714D02*
X12432857Y-11765000D01*
X12447143Y-11779286D01*
X12461428Y-11765000D01*
X12447143Y-11750714D01*
X12447143Y-11779286D01*
X12632857Y-12050714D02*
X12604286Y-12036429D01*
X12590000Y-12007857D01*
X12590000Y-11750714D01*
X12790000Y-12050714D02*
X12761428Y-12036429D01*
X12747143Y-12007857D01*
X12747143Y-11750714D01*
X13132857Y-12050714D02*
X13132857Y-11750714D01*
X13232857Y-11965000D01*
X13332857Y-11750714D01*
X13332857Y-12050714D01*
X13604286Y-12050714D02*
X13604286Y-11893571D01*
X13590000Y-11865000D01*
X13561428Y-11850714D01*
X13504286Y-11850714D01*
X13475714Y-11865000D01*
X13604286Y-12036429D02*
X13575714Y-12050714D01*
X13504286Y-12050714D01*
X13475714Y-12036429D01*
X13461428Y-12007857D01*
X13461428Y-11979286D01*
X13475714Y-11950714D01*
X13504286Y-11936429D01*
X13575714Y-11936429D01*
X13604286Y-11922143D01*
X13747143Y-11850714D02*
X13747143Y-12150714D01*
X13747143Y-11865000D02*
X13775714Y-11850714D01*
X13832857Y-11850714D01*
X13861428Y-11865000D01*
X13875714Y-11879286D01*
X13890000Y-11907857D01*
X13890000Y-11993571D01*
X13875714Y-12022143D01*
X13861428Y-12036429D01*
X13832857Y-12050714D01*
X13775714Y-12050714D01*
X13747143Y-12036429D01*
X14018571Y-12022143D02*
X14032857Y-12036429D01*
X14018571Y-12050714D01*
X14004286Y-12036429D01*
X14018571Y-12022143D01*
X14018571Y-12050714D01*
X14018571Y-11865000D02*
X14032857Y-11879286D01*
X14018571Y-11893571D01*
X14004286Y-11879286D01*
X14018571Y-11865000D01*
X14018571Y-11893571D01*
X11635000Y-12525000D02*
X11675000Y-12565000D01*
X11675000Y-12525000D02*
X11635000Y-12565000D01*
X12018571Y-12380714D02*
X12047143Y-12380714D01*
X12075714Y-12395000D01*
X12090000Y-12409286D01*
X12104286Y-12437857D01*
X12118571Y-12495000D01*
X12118571Y-12566429D01*
X12104286Y-12623571D01*
X12090000Y-12652143D01*
X12075714Y-12666429D01*
X12047143Y-12680714D01*
X12018571Y-12680714D01*
X11990000Y-12666429D01*
X11975714Y-12652143D01*
X11961428Y-12623571D01*
X11947143Y-12566429D01*
X11947143Y-12495000D01*
X11961428Y-12437857D01*
X11975714Y-12409286D01*
X11990000Y-12395000D01*
X12018571Y-12380714D01*
X12247143Y-12652143D02*
X12261428Y-12666429D01*
X12247143Y-12680714D01*
X12232857Y-12666429D01*
X12247143Y-12652143D01*
X12247143Y-12680714D01*
X12518571Y-12480714D02*
X12518571Y-12680714D01*
X12447143Y-12366429D02*
X12375714Y-12580714D01*
X12561428Y-12580714D01*
X12732857Y-12380714D02*
X12761428Y-12380714D01*
X12790000Y-12395000D01*
X12804286Y-12409286D01*
X12818571Y-12437857D01*
X12832857Y-12495000D01*
X12832857Y-12566429D01*
X12818571Y-12623571D01*
X12804286Y-12652143D01*
X12790000Y-12666429D01*
X12761428Y-12680714D01*
X12732857Y-12680714D01*
X12704286Y-12666429D01*
X12690000Y-12652143D01*
X12675714Y-12623571D01*
X12661428Y-12566429D01*
X12661428Y-12495000D01*
X12675714Y-12437857D01*
X12690000Y-12409286D01*
X12704286Y-12395000D01*
X12732857Y-12380714D01*
X12961428Y-12680714D02*
X12961428Y-12480714D01*
X12961428Y-12509286D02*
X12975714Y-12495000D01*
X13004286Y-12480714D01*
X13047143Y-12480714D01*
X13075714Y-12495000D01*
X13090000Y-12523571D01*
X13090000Y-12680714D01*
X13090000Y-12523571D02*
X13104286Y-12495000D01*
X13132857Y-12480714D01*
X13175714Y-12480714D01*
X13204286Y-12495000D01*
X13218571Y-12523571D01*
X13218571Y-12680714D01*
X13361428Y-12680714D02*
X13361428Y-12480714D01*
X13361428Y-12509286D02*
X13375714Y-12495000D01*
X13404286Y-12480714D01*
X13447143Y-12480714D01*
X13475714Y-12495000D01*
X13490000Y-12523571D01*
X13490000Y-12680714D01*
X13490000Y-12523571D02*
X13504286Y-12495000D01*
X13532857Y-12480714D01*
X13575714Y-12480714D01*
X13604286Y-12495000D01*
X13618571Y-12523571D01*
X13618571Y-12680714D01*
X14204286Y-12366429D02*
X13947143Y-12752143D01*
X14590000Y-12380714D02*
X14618571Y-12380714D01*
X14647143Y-12395000D01*
X14661428Y-12409286D01*
X14675714Y-12437857D01*
X14690000Y-12495000D01*
X14690000Y-12566429D01*
X14675714Y-12623571D01*
X14661428Y-12652143D01*
X14647143Y-12666429D01*
X14618571Y-12680714D01*
X14590000Y-12680714D01*
X14561428Y-12666429D01*
X14547143Y-12652143D01*
X14532857Y-12623571D01*
X14518571Y-12566429D01*
X14518571Y-12495000D01*
X14532857Y-12437857D01*
X14547143Y-12409286D01*
X14561428Y-12395000D01*
X14590000Y-12380714D01*
X14818571Y-12652143D02*
X14832857Y-12666429D01*
X14818571Y-12680714D01*
X14804286Y-12666429D01*
X14818571Y-12652143D01*
X14818571Y-12680714D01*
X15018571Y-12380714D02*
X15047143Y-12380714D01*
X15075714Y-12395000D01*
X15090000Y-12409286D01*
X15104286Y-12437857D01*
X15118571Y-12495000D01*
X15118571Y-12566429D01*
X15104286Y-12623571D01*
X15090000Y-12652143D01*
X15075714Y-12666429D01*
X15047143Y-12680714D01*
X15018571Y-12680714D01*
X14990000Y-12666429D01*
X14975714Y-12652143D01*
X14961428Y-12623571D01*
X14947143Y-12566429D01*
X14947143Y-12495000D01*
X14961428Y-12437857D01*
X14975714Y-12409286D01*
X14990000Y-12395000D01*
X15018571Y-12380714D01*
X15404286Y-12680714D02*
X15232857Y-12680714D01*
X15318571Y-12680714D02*
X15318571Y-12380714D01*
X15290000Y-12423571D01*
X15261428Y-12452143D01*
X15232857Y-12466429D01*
X15661428Y-12380714D02*
X15604286Y-12380714D01*
X15575714Y-12395000D01*
X15561428Y-12409286D01*
X15532857Y-12452143D01*
X15518571Y-12509286D01*
X15518571Y-12623571D01*
X15532857Y-12652143D01*
X15547143Y-12666429D01*
X15575714Y-12680714D01*
X15632857Y-12680714D01*
X15661428Y-12666429D01*
X15675714Y-12652143D01*
X15690000Y-12623571D01*
X15690000Y-12552143D01*
X15675714Y-12523571D01*
X15661428Y-12509286D01*
X15632857Y-12495000D01*
X15575714Y-12495000D01*
X15547143Y-12509286D01*
X15532857Y-12523571D01*
X15518571Y-12552143D01*
X15804286Y-12380714D02*
X15804286Y-12437857D01*
X15918571Y-12380714D02*
X15918571Y-12437857D01*
X16361428Y-12795000D02*
X16347143Y-12780714D01*
X16318571Y-12737857D01*
X16304286Y-12709286D01*
X16290000Y-12666429D01*
X16275714Y-12595000D01*
X16275714Y-12537857D01*
X16290000Y-12466429D01*
X16304286Y-12423571D01*
X16318571Y-12395000D01*
X16347143Y-12352143D01*
X16361428Y-12337857D01*
X16632857Y-12680714D02*
X16461428Y-12680714D01*
X16547143Y-12680714D02*
X16547143Y-12380714D01*
X16518571Y-12423571D01*
X16490000Y-12452143D01*
X16461428Y-12466429D01*
X16990000Y-12680714D02*
X16990000Y-12380714D01*
X17118571Y-12680714D02*
X17118571Y-12523571D01*
X17104286Y-12495000D01*
X17075714Y-12480714D01*
X17032857Y-12480714D01*
X17004286Y-12495000D01*
X16990000Y-12509286D01*
X17304286Y-12680714D02*
X17275714Y-12666429D01*
X17261428Y-12652143D01*
X17247143Y-12623571D01*
X17247143Y-12537857D01*
X17261428Y-12509286D01*
X17275714Y-12495000D01*
X17304286Y-12480714D01*
X17347143Y-12480714D01*
X17375714Y-12495000D01*
X17390000Y-12509286D01*
X17404286Y-12537857D01*
X17404286Y-12623571D01*
X17390000Y-12652143D01*
X17375714Y-12666429D01*
X17347143Y-12680714D01*
X17304286Y-12680714D01*
X17575714Y-12680714D02*
X17547143Y-12666429D01*
X17532857Y-12637857D01*
X17532857Y-12380714D01*
X17804286Y-12666429D02*
X17775714Y-12680714D01*
X17718571Y-12680714D01*
X17690000Y-12666429D01*
X17675714Y-12637857D01*
X17675714Y-12523571D01*
X17690000Y-12495000D01*
X17718571Y-12480714D01*
X17775714Y-12480714D01*
X17804286Y-12495000D01*
X17818571Y-12523571D01*
X17818571Y-12552143D01*
X17675714Y-12580714D01*
X17918571Y-12795000D02*
X17932857Y-12780714D01*
X17961428Y-12737857D01*
X17975714Y-12709286D01*
X17990000Y-12666429D01*
X18004286Y-12595000D01*
X18004286Y-12537857D01*
X17990000Y-12466429D01*
X17975714Y-12423571D01*
X17961428Y-12395000D01*
X17932857Y-12352143D01*
X17918571Y-12337857D01*
X11675000Y-12941000D02*
G75*
G03*
X11675000Y-12941000I-40000J0D01*
G01*
X12018571Y-12776714D02*
X12047143Y-12776714D01*
X12075714Y-12791000D01*
X12090000Y-12805286D01*
X12104286Y-12833857D01*
X12118571Y-12891000D01*
X12118571Y-12962429D01*
X12104286Y-13019571D01*
X12090000Y-13048143D01*
X12075714Y-13062429D01*
X12047143Y-13076714D01*
X12018571Y-13076714D01*
X11990000Y-13062429D01*
X11975714Y-13048143D01*
X11961428Y-13019571D01*
X11947143Y-12962429D01*
X11947143Y-12891000D01*
X11961428Y-12833857D01*
X11975714Y-12805286D01*
X11990000Y-12791000D01*
X12018571Y-12776714D01*
X12247143Y-13048143D02*
X12261428Y-13062429D01*
X12247143Y-13076714D01*
X12232857Y-13062429D01*
X12247143Y-13048143D01*
X12247143Y-13076714D01*
X12432857Y-12905286D02*
X12404286Y-12891000D01*
X12390000Y-12876714D01*
X12375714Y-12848143D01*
X12375714Y-12833857D01*
X12390000Y-12805286D01*
X12404286Y-12791000D01*
X12432857Y-12776714D01*
X12490000Y-12776714D01*
X12518571Y-12791000D01*
X12532857Y-12805286D01*
X12547143Y-12833857D01*
X12547143Y-12848143D01*
X12532857Y-12876714D01*
X12518571Y-12891000D01*
X12490000Y-12905286D01*
X12432857Y-12905286D01*
X12404286Y-12919571D01*
X12390000Y-12933857D01*
X12375714Y-12962429D01*
X12375714Y-13019571D01*
X12390000Y-13048143D01*
X12404286Y-13062429D01*
X12432857Y-13076714D01*
X12490000Y-13076714D01*
X12518571Y-13062429D01*
X12532857Y-13048143D01*
X12547143Y-13019571D01*
X12547143Y-12962429D01*
X12532857Y-12933857D01*
X12518571Y-12919571D01*
X12490000Y-12905286D01*
X12732857Y-12776714D02*
X12761428Y-12776714D01*
X12790000Y-12791000D01*
X12804286Y-12805286D01*
X12818571Y-12833857D01*
X12832857Y-12891000D01*
X12832857Y-12962429D01*
X12818571Y-13019571D01*
X12804286Y-13048143D01*
X12790000Y-13062429D01*
X12761428Y-13076714D01*
X12732857Y-13076714D01*
X12704286Y-13062429D01*
X12690000Y-13048143D01*
X12675714Y-13019571D01*
X12661428Y-12962429D01*
X12661428Y-12891000D01*
X12675714Y-12833857D01*
X12690000Y-12805286D01*
X12704286Y-12791000D01*
X12732857Y-12776714D01*
X12961428Y-13076714D02*
X12961428Y-12876714D01*
X12961428Y-12905286D02*
X12975714Y-12891000D01*
X13004286Y-12876714D01*
X13047143Y-12876714D01*
X13075714Y-12891000D01*
X13090000Y-12919571D01*
X13090000Y-13076714D01*
X13090000Y-12919571D02*
X13104286Y-12891000D01*
X13132857Y-12876714D01*
X13175714Y-12876714D01*
X13204286Y-12891000D01*
X13218571Y-12919571D01*
X13218571Y-13076714D01*
X13361428Y-13076714D02*
X13361428Y-12876714D01*
X13361428Y-12905286D02*
X13375714Y-12891000D01*
X13404286Y-12876714D01*
X13447143Y-12876714D01*
X13475714Y-12891000D01*
X13490000Y-12919571D01*
X13490000Y-13076714D01*
X13490000Y-12919571D02*
X13504286Y-12891000D01*
X13532857Y-12876714D01*
X13575714Y-12876714D01*
X13604286Y-12891000D01*
X13618571Y-12919571D01*
X13618571Y-13076714D01*
X14204286Y-12762429D02*
X13947143Y-13148143D01*
X14590000Y-12776714D02*
X14618571Y-12776714D01*
X14647143Y-12791000D01*
X14661428Y-12805286D01*
X14675714Y-12833857D01*
X14690000Y-12891000D01*
X14690000Y-12962429D01*
X14675714Y-13019571D01*
X14661428Y-13048143D01*
X14647143Y-13062429D01*
X14618571Y-13076714D01*
X14590000Y-13076714D01*
X14561428Y-13062429D01*
X14547143Y-13048143D01*
X14532857Y-13019571D01*
X14518571Y-12962429D01*
X14518571Y-12891000D01*
X14532857Y-12833857D01*
X14547143Y-12805286D01*
X14561428Y-12791000D01*
X14590000Y-12776714D01*
X14818571Y-13048143D02*
X14832857Y-13062429D01*
X14818571Y-13076714D01*
X14804286Y-13062429D01*
X14818571Y-13048143D01*
X14818571Y-13076714D01*
X15018571Y-12776714D02*
X15047143Y-12776714D01*
X15075714Y-12791000D01*
X15090000Y-12805286D01*
X15104286Y-12833857D01*
X15118571Y-12891000D01*
X15118571Y-12962429D01*
X15104286Y-13019571D01*
X15090000Y-13048143D01*
X15075714Y-13062429D01*
X15047143Y-13076714D01*
X15018571Y-13076714D01*
X14990000Y-13062429D01*
X14975714Y-13048143D01*
X14961428Y-13019571D01*
X14947143Y-12962429D01*
X14947143Y-12891000D01*
X14961428Y-12833857D01*
X14975714Y-12805286D01*
X14990000Y-12791000D01*
X15018571Y-12776714D01*
X15218571Y-12776714D02*
X15404286Y-12776714D01*
X15304286Y-12891000D01*
X15347143Y-12891000D01*
X15375714Y-12905286D01*
X15390000Y-12919571D01*
X15404286Y-12948143D01*
X15404286Y-13019571D01*
X15390000Y-13048143D01*
X15375714Y-13062429D01*
X15347143Y-13076714D01*
X15261428Y-13076714D01*
X15232857Y-13062429D01*
X15218571Y-13048143D01*
X15690000Y-13076714D02*
X15518571Y-13076714D01*
X15604286Y-13076714D02*
X15604286Y-12776714D01*
X15575714Y-12819571D01*
X15547143Y-12848143D01*
X15518571Y-12862429D01*
X15804286Y-12776714D02*
X15804286Y-12833857D01*
X15918571Y-12776714D02*
X15918571Y-12833857D01*
X16361428Y-13191000D02*
X16347143Y-13176714D01*
X16318571Y-13133857D01*
X16304286Y-13105286D01*
X16290000Y-13062429D01*
X16275714Y-12991000D01*
X16275714Y-12933857D01*
X16290000Y-12862429D01*
X16304286Y-12819571D01*
X16318571Y-12791000D01*
X16347143Y-12748143D01*
X16361428Y-12733857D01*
X16604286Y-12876714D02*
X16604286Y-13076714D01*
X16532857Y-12762429D02*
X16461428Y-12976714D01*
X16647143Y-12976714D01*
X16818571Y-12776714D02*
X16847143Y-12776714D01*
X16875714Y-12791000D01*
X16890000Y-12805286D01*
X16904286Y-12833857D01*
X16918571Y-12891000D01*
X16918571Y-12962429D01*
X16904286Y-13019571D01*
X16890000Y-13048143D01*
X16875714Y-13062429D01*
X16847143Y-13076714D01*
X16818571Y-13076714D01*
X16790000Y-13062429D01*
X16775714Y-13048143D01*
X16761428Y-13019571D01*
X16747143Y-12962429D01*
X16747143Y-12891000D01*
X16761428Y-12833857D01*
X16775714Y-12805286D01*
X16790000Y-12791000D01*
X16818571Y-12776714D01*
X17275714Y-13076714D02*
X17275714Y-12776714D01*
X17404286Y-13076714D02*
X17404286Y-12919571D01*
X17390000Y-12891000D01*
X17361428Y-12876714D01*
X17318571Y-12876714D01*
X17290000Y-12891000D01*
X17275714Y-12905286D01*
X17590000Y-13076714D02*
X17561428Y-13062429D01*
X17547143Y-13048143D01*
X17532857Y-13019571D01*
X17532857Y-12933857D01*
X17547143Y-12905286D01*
X17561428Y-12891000D01*
X17590000Y-12876714D01*
X17632857Y-12876714D01*
X17661428Y-12891000D01*
X17675714Y-12905286D01*
X17690000Y-12933857D01*
X17690000Y-13019571D01*
X17675714Y-13048143D01*
X17661428Y-13062429D01*
X17632857Y-13076714D01*
X17590000Y-13076714D01*
X17861428Y-13076714D02*
X17832857Y-13062429D01*
X17818571Y-13033857D01*
X17818571Y-12776714D01*
X18090000Y-13062429D02*
X18061428Y-13076714D01*
X18004286Y-13076714D01*
X17975714Y-13062429D01*
X17961428Y-13033857D01*
X17961428Y-12919571D01*
X17975714Y-12891000D01*
X18004286Y-12876714D01*
X18061428Y-12876714D01*
X18090000Y-12891000D01*
X18104286Y-12919571D01*
X18104286Y-12948143D01*
X17961428Y-12976714D01*
X18218571Y-13062429D02*
X18247143Y-13076714D01*
X18304286Y-13076714D01*
X18332857Y-13062429D01*
X18347143Y-13033857D01*
X18347143Y-13019571D01*
X18332857Y-12991000D01*
X18304286Y-12976714D01*
X18261428Y-12976714D01*
X18232857Y-12962429D01*
X18218571Y-12933857D01*
X18218571Y-12919571D01*
X18232857Y-12891000D01*
X18261428Y-12876714D01*
X18304286Y-12876714D01*
X18332857Y-12891000D01*
X18447143Y-13191000D02*
X18461428Y-13176714D01*
X18490000Y-13133857D01*
X18504286Y-13105286D01*
X18518571Y-13062429D01*
X18532857Y-12991000D01*
X18532857Y-12933857D01*
X18518571Y-12862429D01*
X18504286Y-12819571D01*
X18490000Y-12791000D01*
X18461428Y-12748143D01*
X18447143Y-12733857D01*
X11630000Y-13292000D02*
X11630000Y-13382000D01*
X11585000Y-13337000D02*
X11675000Y-13337000D01*
X12018571Y-13172714D02*
X12047143Y-13172714D01*
X12075714Y-13187000D01*
X12090000Y-13201286D01*
X12104286Y-13229857D01*
X12118571Y-13287000D01*
X12118571Y-13358429D01*
X12104286Y-13415571D01*
X12090000Y-13444143D01*
X12075714Y-13458429D01*
X12047143Y-13472714D01*
X12018571Y-13472714D01*
X11990000Y-13458429D01*
X11975714Y-13444143D01*
X11961428Y-13415571D01*
X11947143Y-13358429D01*
X11947143Y-13287000D01*
X11961428Y-13229857D01*
X11975714Y-13201286D01*
X11990000Y-13187000D01*
X12018571Y-13172714D01*
X12247143Y-13444143D02*
X12261428Y-13458429D01*
X12247143Y-13472714D01*
X12232857Y-13458429D01*
X12247143Y-13444143D01*
X12247143Y-13472714D01*
X12404286Y-13472714D02*
X12461428Y-13472714D01*
X12490000Y-13458429D01*
X12504286Y-13444143D01*
X12532857Y-13401286D01*
X12547143Y-13344143D01*
X12547143Y-13229857D01*
X12532857Y-13201286D01*
X12518571Y-13187000D01*
X12490000Y-13172714D01*
X12432857Y-13172714D01*
X12404286Y-13187000D01*
X12390000Y-13201286D01*
X12375714Y-13229857D01*
X12375714Y-13301286D01*
X12390000Y-13329857D01*
X12404286Y-13344143D01*
X12432857Y-13358429D01*
X12490000Y-13358429D01*
X12518571Y-13344143D01*
X12532857Y-13329857D01*
X12547143Y-13301286D01*
X12732857Y-13172714D02*
X12761428Y-13172714D01*
X12790000Y-13187000D01*
X12804286Y-13201286D01*
X12818571Y-13229857D01*
X12832857Y-13287000D01*
X12832857Y-13358429D01*
X12818571Y-13415571D01*
X12804286Y-13444143D01*
X12790000Y-13458429D01*
X12761428Y-13472714D01*
X12732857Y-13472714D01*
X12704286Y-13458429D01*
X12690000Y-13444143D01*
X12675714Y-13415571D01*
X12661428Y-13358429D01*
X12661428Y-13287000D01*
X12675714Y-13229857D01*
X12690000Y-13201286D01*
X12704286Y-13187000D01*
X12732857Y-13172714D01*
X12961428Y-13472714D02*
X12961428Y-13272714D01*
X12961428Y-13301286D02*
X12975714Y-13287000D01*
X13004286Y-13272714D01*
X13047143Y-13272714D01*
X13075714Y-13287000D01*
X13090000Y-13315571D01*
X13090000Y-13472714D01*
X13090000Y-13315571D02*
X13104286Y-13287000D01*
X13132857Y-13272714D01*
X13175714Y-13272714D01*
X13204286Y-13287000D01*
X13218571Y-13315571D01*
X13218571Y-13472714D01*
X13361428Y-13472714D02*
X13361428Y-13272714D01*
X13361428Y-13301286D02*
X13375714Y-13287000D01*
X13404286Y-13272714D01*
X13447143Y-13272714D01*
X13475714Y-13287000D01*
X13490000Y-13315571D01*
X13490000Y-13472714D01*
X13490000Y-13315571D02*
X13504286Y-13287000D01*
X13532857Y-13272714D01*
X13575714Y-13272714D01*
X13604286Y-13287000D01*
X13618571Y-13315571D01*
X13618571Y-13472714D01*
X14204286Y-13158429D02*
X13947143Y-13544143D01*
X14590000Y-13172714D02*
X14618571Y-13172714D01*
X14647143Y-13187000D01*
X14661428Y-13201286D01*
X14675714Y-13229857D01*
X14690000Y-13287000D01*
X14690000Y-13358429D01*
X14675714Y-13415571D01*
X14661428Y-13444143D01*
X14647143Y-13458429D01*
X14618571Y-13472714D01*
X14590000Y-13472714D01*
X14561428Y-13458429D01*
X14547143Y-13444143D01*
X14532857Y-13415571D01*
X14518571Y-13358429D01*
X14518571Y-13287000D01*
X14532857Y-13229857D01*
X14547143Y-13201286D01*
X14561428Y-13187000D01*
X14590000Y-13172714D01*
X14818571Y-13444143D02*
X14832857Y-13458429D01*
X14818571Y-13472714D01*
X14804286Y-13458429D01*
X14818571Y-13444143D01*
X14818571Y-13472714D01*
X15018571Y-13172714D02*
X15047143Y-13172714D01*
X15075714Y-13187000D01*
X15090000Y-13201286D01*
X15104286Y-13229857D01*
X15118571Y-13287000D01*
X15118571Y-13358429D01*
X15104286Y-13415571D01*
X15090000Y-13444143D01*
X15075714Y-13458429D01*
X15047143Y-13472714D01*
X15018571Y-13472714D01*
X14990000Y-13458429D01*
X14975714Y-13444143D01*
X14961428Y-13415571D01*
X14947143Y-13358429D01*
X14947143Y-13287000D01*
X14961428Y-13229857D01*
X14975714Y-13201286D01*
X14990000Y-13187000D01*
X15018571Y-13172714D01*
X15218571Y-13172714D02*
X15404286Y-13172714D01*
X15304286Y-13287000D01*
X15347143Y-13287000D01*
X15375714Y-13301286D01*
X15390000Y-13315571D01*
X15404286Y-13344143D01*
X15404286Y-13415571D01*
X15390000Y-13444143D01*
X15375714Y-13458429D01*
X15347143Y-13472714D01*
X15261428Y-13472714D01*
X15232857Y-13458429D01*
X15218571Y-13444143D01*
X15675714Y-13172714D02*
X15532857Y-13172714D01*
X15518571Y-13315571D01*
X15532857Y-13301286D01*
X15561428Y-13287000D01*
X15632857Y-13287000D01*
X15661428Y-13301286D01*
X15675714Y-13315571D01*
X15690000Y-13344143D01*
X15690000Y-13415571D01*
X15675714Y-13444143D01*
X15661428Y-13458429D01*
X15632857Y-13472714D01*
X15561428Y-13472714D01*
X15532857Y-13458429D01*
X15518571Y-13444143D01*
X15804286Y-13172714D02*
X15804286Y-13229857D01*
X15918571Y-13172714D02*
X15918571Y-13229857D01*
X16361428Y-13587000D02*
X16347143Y-13572714D01*
X16318571Y-13529857D01*
X16304286Y-13501286D01*
X16290000Y-13458429D01*
X16275714Y-13387000D01*
X16275714Y-13329857D01*
X16290000Y-13258429D01*
X16304286Y-13215571D01*
X16318571Y-13187000D01*
X16347143Y-13144143D01*
X16361428Y-13129857D01*
X16518571Y-13301286D02*
X16490000Y-13287000D01*
X16475714Y-13272714D01*
X16461428Y-13244143D01*
X16461428Y-13229857D01*
X16475714Y-13201286D01*
X16490000Y-13187000D01*
X16518571Y-13172714D01*
X16575714Y-13172714D01*
X16604286Y-13187000D01*
X16618571Y-13201286D01*
X16632857Y-13229857D01*
X16632857Y-13244143D01*
X16618571Y-13272714D01*
X16604286Y-13287000D01*
X16575714Y-13301286D01*
X16518571Y-13301286D01*
X16490000Y-13315571D01*
X16475714Y-13329857D01*
X16461428Y-13358429D01*
X16461428Y-13415571D01*
X16475714Y-13444143D01*
X16490000Y-13458429D01*
X16518571Y-13472714D01*
X16575714Y-13472714D01*
X16604286Y-13458429D01*
X16618571Y-13444143D01*
X16632857Y-13415571D01*
X16632857Y-13358429D01*
X16618571Y-13329857D01*
X16604286Y-13315571D01*
X16575714Y-13301286D01*
X16990000Y-13472714D02*
X16990000Y-13172714D01*
X17118571Y-13472714D02*
X17118571Y-13315571D01*
X17104286Y-13287000D01*
X17075714Y-13272714D01*
X17032857Y-13272714D01*
X17004286Y-13287000D01*
X16990000Y-13301286D01*
X17304286Y-13472714D02*
X17275714Y-13458429D01*
X17261428Y-13444143D01*
X17247143Y-13415571D01*
X17247143Y-13329857D01*
X17261428Y-13301286D01*
X17275714Y-13287000D01*
X17304286Y-13272714D01*
X17347143Y-13272714D01*
X17375714Y-13287000D01*
X17390000Y-13301286D01*
X17404286Y-13329857D01*
X17404286Y-13415571D01*
X17390000Y-13444143D01*
X17375714Y-13458429D01*
X17347143Y-13472714D01*
X17304286Y-13472714D01*
X17575714Y-13472714D02*
X17547143Y-13458429D01*
X17532857Y-13429857D01*
X17532857Y-13172714D01*
X17804286Y-13458429D02*
X17775714Y-13472714D01*
X17718571Y-13472714D01*
X17690000Y-13458429D01*
X17675714Y-13429857D01*
X17675714Y-13315571D01*
X17690000Y-13287000D01*
X17718571Y-13272714D01*
X17775714Y-13272714D01*
X17804286Y-13287000D01*
X17818571Y-13315571D01*
X17818571Y-13344143D01*
X17675714Y-13372714D01*
X17932857Y-13458429D02*
X17961428Y-13472714D01*
X18018571Y-13472714D01*
X18047143Y-13458429D01*
X18061428Y-13429857D01*
X18061428Y-13415571D01*
X18047143Y-13387000D01*
X18018571Y-13372714D01*
X17975714Y-13372714D01*
X17947143Y-13358429D01*
X17932857Y-13329857D01*
X17932857Y-13315571D01*
X17947143Y-13287000D01*
X17975714Y-13272714D01*
X18018571Y-13272714D01*
X18047143Y-13287000D01*
X18161428Y-13587000D02*
X18175714Y-13572714D01*
X18204286Y-13529857D01*
X18218571Y-13501286D01*
X18232857Y-13458429D01*
X18247143Y-13387000D01*
X18247143Y-13329857D01*
X18232857Y-13258429D01*
X18218571Y-13215571D01*
X18204286Y-13187000D01*
X18175714Y-13144143D01*
X18161428Y-13129857D01*
X11660356Y-13768356D02*
X11660356Y-13697644D01*
X11589644Y-13697644D01*
X11589644Y-13768356D01*
X11660356Y-13768356D01*
X12118571Y-13868714D02*
X11947143Y-13868714D01*
X12032857Y-13868714D02*
X12032857Y-13568714D01*
X12004286Y-13611571D01*
X11975714Y-13640143D01*
X11947143Y-13654429D01*
X12247143Y-13840143D02*
X12261428Y-13854429D01*
X12247143Y-13868714D01*
X12232857Y-13854429D01*
X12247143Y-13840143D01*
X12247143Y-13868714D01*
X12447143Y-13568714D02*
X12475714Y-13568714D01*
X12504286Y-13583000D01*
X12518571Y-13597286D01*
X12532857Y-13625857D01*
X12547143Y-13683000D01*
X12547143Y-13754429D01*
X12532857Y-13811571D01*
X12518571Y-13840143D01*
X12504286Y-13854429D01*
X12475714Y-13868714D01*
X12447143Y-13868714D01*
X12418571Y-13854429D01*
X12404286Y-13840143D01*
X12390000Y-13811571D01*
X12375714Y-13754429D01*
X12375714Y-13683000D01*
X12390000Y-13625857D01*
X12404286Y-13597286D01*
X12418571Y-13583000D01*
X12447143Y-13568714D01*
X12732857Y-13568714D02*
X12761428Y-13568714D01*
X12790000Y-13583000D01*
X12804286Y-13597286D01*
X12818571Y-13625857D01*
X12832857Y-13683000D01*
X12832857Y-13754429D01*
X12818571Y-13811571D01*
X12804286Y-13840143D01*
X12790000Y-13854429D01*
X12761428Y-13868714D01*
X12732857Y-13868714D01*
X12704286Y-13854429D01*
X12690000Y-13840143D01*
X12675714Y-13811571D01*
X12661428Y-13754429D01*
X12661428Y-13683000D01*
X12675714Y-13625857D01*
X12690000Y-13597286D01*
X12704286Y-13583000D01*
X12732857Y-13568714D01*
X12961428Y-13868714D02*
X12961428Y-13668714D01*
X12961428Y-13697286D02*
X12975714Y-13683000D01*
X13004286Y-13668714D01*
X13047143Y-13668714D01*
X13075714Y-13683000D01*
X13090000Y-13711571D01*
X13090000Y-13868714D01*
X13090000Y-13711571D02*
X13104286Y-13683000D01*
X13132857Y-13668714D01*
X13175714Y-13668714D01*
X13204286Y-13683000D01*
X13218571Y-13711571D01*
X13218571Y-13868714D01*
X13361428Y-13868714D02*
X13361428Y-13668714D01*
X13361428Y-13697286D02*
X13375714Y-13683000D01*
X13404286Y-13668714D01*
X13447143Y-13668714D01*
X13475714Y-13683000D01*
X13490000Y-13711571D01*
X13490000Y-13868714D01*
X13490000Y-13711571D02*
X13504286Y-13683000D01*
X13532857Y-13668714D01*
X13575714Y-13668714D01*
X13604286Y-13683000D01*
X13618571Y-13711571D01*
X13618571Y-13868714D01*
X14204286Y-13554429D02*
X13947143Y-13940143D01*
X14590000Y-13568714D02*
X14618571Y-13568714D01*
X14647143Y-13583000D01*
X14661428Y-13597286D01*
X14675714Y-13625857D01*
X14690000Y-13683000D01*
X14690000Y-13754429D01*
X14675714Y-13811571D01*
X14661428Y-13840143D01*
X14647143Y-13854429D01*
X14618571Y-13868714D01*
X14590000Y-13868714D01*
X14561428Y-13854429D01*
X14547143Y-13840143D01*
X14532857Y-13811571D01*
X14518571Y-13754429D01*
X14518571Y-13683000D01*
X14532857Y-13625857D01*
X14547143Y-13597286D01*
X14561428Y-13583000D01*
X14590000Y-13568714D01*
X14818571Y-13840143D02*
X14832857Y-13854429D01*
X14818571Y-13868714D01*
X14804286Y-13854429D01*
X14818571Y-13840143D01*
X14818571Y-13868714D01*
X15018571Y-13568714D02*
X15047143Y-13568714D01*
X15075714Y-13583000D01*
X15090000Y-13597286D01*
X15104286Y-13625857D01*
X15118571Y-13683000D01*
X15118571Y-13754429D01*
X15104286Y-13811571D01*
X15090000Y-13840143D01*
X15075714Y-13854429D01*
X15047143Y-13868714D01*
X15018571Y-13868714D01*
X14990000Y-13854429D01*
X14975714Y-13840143D01*
X14961428Y-13811571D01*
X14947143Y-13754429D01*
X14947143Y-13683000D01*
X14961428Y-13625857D01*
X14975714Y-13597286D01*
X14990000Y-13583000D01*
X15018571Y-13568714D01*
X15218571Y-13568714D02*
X15404286Y-13568714D01*
X15304286Y-13683000D01*
X15347143Y-13683000D01*
X15375714Y-13697286D01*
X15390000Y-13711571D01*
X15404286Y-13740143D01*
X15404286Y-13811571D01*
X15390000Y-13840143D01*
X15375714Y-13854429D01*
X15347143Y-13868714D01*
X15261428Y-13868714D01*
X15232857Y-13854429D01*
X15218571Y-13840143D01*
X15547143Y-13868714D02*
X15604286Y-13868714D01*
X15632857Y-13854429D01*
X15647143Y-13840143D01*
X15675714Y-13797286D01*
X15690000Y-13740143D01*
X15690000Y-13625857D01*
X15675714Y-13597286D01*
X15661428Y-13583000D01*
X15632857Y-13568714D01*
X15575714Y-13568714D01*
X15547143Y-13583000D01*
X15532857Y-13597286D01*
X15518571Y-13625857D01*
X15518571Y-13697286D01*
X15532857Y-13725857D01*
X15547143Y-13740143D01*
X15575714Y-13754429D01*
X15632857Y-13754429D01*
X15661428Y-13740143D01*
X15675714Y-13725857D01*
X15690000Y-13697286D01*
X15804286Y-13568714D02*
X15804286Y-13625857D01*
X15918571Y-13568714D02*
X15918571Y-13625857D01*
X16361428Y-13983000D02*
X16347143Y-13968714D01*
X16318571Y-13925857D01*
X16304286Y-13897286D01*
X16290000Y-13854429D01*
X16275714Y-13783000D01*
X16275714Y-13725857D01*
X16290000Y-13654429D01*
X16304286Y-13611571D01*
X16318571Y-13583000D01*
X16347143Y-13540143D01*
X16361428Y-13525857D01*
X16618571Y-13568714D02*
X16475714Y-13568714D01*
X16461428Y-13711571D01*
X16475714Y-13697286D01*
X16504286Y-13683000D01*
X16575714Y-13683000D01*
X16604286Y-13697286D01*
X16618571Y-13711571D01*
X16632857Y-13740143D01*
X16632857Y-13811571D01*
X16618571Y-13840143D01*
X16604286Y-13854429D01*
X16575714Y-13868714D01*
X16504286Y-13868714D01*
X16475714Y-13854429D01*
X16461428Y-13840143D01*
X16990000Y-13868714D02*
X16990000Y-13568714D01*
X17118571Y-13868714D02*
X17118571Y-13711571D01*
X17104286Y-13683000D01*
X17075714Y-13668714D01*
X17032857Y-13668714D01*
X17004286Y-13683000D01*
X16990000Y-13697286D01*
X17304286Y-13868714D02*
X17275714Y-13854429D01*
X17261428Y-13840143D01*
X17247143Y-13811571D01*
X17247143Y-13725857D01*
X17261428Y-13697286D01*
X17275714Y-13683000D01*
X17304286Y-13668714D01*
X17347143Y-13668714D01*
X17375714Y-13683000D01*
X17390000Y-13697286D01*
X17404286Y-13725857D01*
X17404286Y-13811571D01*
X17390000Y-13840143D01*
X17375714Y-13854429D01*
X17347143Y-13868714D01*
X17304286Y-13868714D01*
X17575714Y-13868714D02*
X17547143Y-13854429D01*
X17532857Y-13825857D01*
X17532857Y-13568714D01*
X17804286Y-13854429D02*
X17775714Y-13868714D01*
X17718571Y-13868714D01*
X17690000Y-13854429D01*
X17675714Y-13825857D01*
X17675714Y-13711571D01*
X17690000Y-13683000D01*
X17718571Y-13668714D01*
X17775714Y-13668714D01*
X17804286Y-13683000D01*
X17818571Y-13711571D01*
X17818571Y-13740143D01*
X17675714Y-13768714D01*
X17932857Y-13854429D02*
X17961428Y-13868714D01*
X18018571Y-13868714D01*
X18047143Y-13854429D01*
X18061428Y-13825857D01*
X18061428Y-13811571D01*
X18047143Y-13783000D01*
X18018571Y-13768714D01*
X17975714Y-13768714D01*
X17947143Y-13754429D01*
X17932857Y-13725857D01*
X17932857Y-13711571D01*
X17947143Y-13683000D01*
X17975714Y-13668714D01*
X18018571Y-13668714D01*
X18047143Y-13683000D01*
X18161428Y-13983000D02*
X18175714Y-13968714D01*
X18204286Y-13925857D01*
X18218571Y-13897286D01*
X18232857Y-13854429D01*
X18247143Y-13783000D01*
X18247143Y-13725857D01*
X18232857Y-13654429D01*
X18218571Y-13611571D01*
X18204286Y-13583000D01*
X18175714Y-13540143D01*
X18161428Y-13525857D01*
X11620000Y-14184000D02*
X11675000Y-14129000D01*
X11620000Y-14074000D01*
X11565000Y-14129000D01*
X11620000Y-14184000D01*
X12118571Y-14264714D02*
X11947143Y-14264714D01*
X12032857Y-14264714D02*
X12032857Y-13964714D01*
X12004286Y-14007571D01*
X11975714Y-14036143D01*
X11947143Y-14050429D01*
X12247143Y-14236143D02*
X12261428Y-14250429D01*
X12247143Y-14264714D01*
X12232857Y-14250429D01*
X12247143Y-14236143D01*
X12247143Y-14264714D01*
X12547143Y-14264714D02*
X12375714Y-14264714D01*
X12461428Y-14264714D02*
X12461428Y-13964714D01*
X12432857Y-14007571D01*
X12404286Y-14036143D01*
X12375714Y-14050429D01*
X12732857Y-13964714D02*
X12761428Y-13964714D01*
X12790000Y-13979000D01*
X12804286Y-13993286D01*
X12818571Y-14021857D01*
X12832857Y-14079000D01*
X12832857Y-14150429D01*
X12818571Y-14207571D01*
X12804286Y-14236143D01*
X12790000Y-14250429D01*
X12761428Y-14264714D01*
X12732857Y-14264714D01*
X12704286Y-14250429D01*
X12690000Y-14236143D01*
X12675714Y-14207571D01*
X12661428Y-14150429D01*
X12661428Y-14079000D01*
X12675714Y-14021857D01*
X12690000Y-13993286D01*
X12704286Y-13979000D01*
X12732857Y-13964714D01*
X12961428Y-14264714D02*
X12961428Y-14064714D01*
X12961428Y-14093286D02*
X12975714Y-14079000D01*
X13004286Y-14064714D01*
X13047143Y-14064714D01*
X13075714Y-14079000D01*
X13090000Y-14107571D01*
X13090000Y-14264714D01*
X13090000Y-14107571D02*
X13104286Y-14079000D01*
X13132857Y-14064714D01*
X13175714Y-14064714D01*
X13204286Y-14079000D01*
X13218571Y-14107571D01*
X13218571Y-14264714D01*
X13361428Y-14264714D02*
X13361428Y-14064714D01*
X13361428Y-14093286D02*
X13375714Y-14079000D01*
X13404286Y-14064714D01*
X13447143Y-14064714D01*
X13475714Y-14079000D01*
X13490000Y-14107571D01*
X13490000Y-14264714D01*
X13490000Y-14107571D02*
X13504286Y-14079000D01*
X13532857Y-14064714D01*
X13575714Y-14064714D01*
X13604286Y-14079000D01*
X13618571Y-14107571D01*
X13618571Y-14264714D01*
X14204286Y-13950429D02*
X13947143Y-14336143D01*
X14590000Y-13964714D02*
X14618571Y-13964714D01*
X14647143Y-13979000D01*
X14661428Y-13993286D01*
X14675714Y-14021857D01*
X14690000Y-14079000D01*
X14690000Y-14150429D01*
X14675714Y-14207571D01*
X14661428Y-14236143D01*
X14647143Y-14250429D01*
X14618571Y-14264714D01*
X14590000Y-14264714D01*
X14561428Y-14250429D01*
X14547143Y-14236143D01*
X14532857Y-14207571D01*
X14518571Y-14150429D01*
X14518571Y-14079000D01*
X14532857Y-14021857D01*
X14547143Y-13993286D01*
X14561428Y-13979000D01*
X14590000Y-13964714D01*
X14818571Y-14236143D02*
X14832857Y-14250429D01*
X14818571Y-14264714D01*
X14804286Y-14250429D01*
X14818571Y-14236143D01*
X14818571Y-14264714D01*
X15018571Y-13964714D02*
X15047143Y-13964714D01*
X15075714Y-13979000D01*
X15090000Y-13993286D01*
X15104286Y-14021857D01*
X15118571Y-14079000D01*
X15118571Y-14150429D01*
X15104286Y-14207571D01*
X15090000Y-14236143D01*
X15075714Y-14250429D01*
X15047143Y-14264714D01*
X15018571Y-14264714D01*
X14990000Y-14250429D01*
X14975714Y-14236143D01*
X14961428Y-14207571D01*
X14947143Y-14150429D01*
X14947143Y-14079000D01*
X14961428Y-14021857D01*
X14975714Y-13993286D01*
X14990000Y-13979000D01*
X15018571Y-13964714D01*
X15375714Y-14064714D02*
X15375714Y-14264714D01*
X15304286Y-13950429D02*
X15232857Y-14164714D01*
X15418571Y-14164714D01*
X15504286Y-13964714D02*
X15690000Y-13964714D01*
X15590000Y-14079000D01*
X15632857Y-14079000D01*
X15661428Y-14093286D01*
X15675714Y-14107571D01*
X15690000Y-14136143D01*
X15690000Y-14207571D01*
X15675714Y-14236143D01*
X15661428Y-14250429D01*
X15632857Y-14264714D01*
X15547143Y-14264714D01*
X15518571Y-14250429D01*
X15504286Y-14236143D01*
X15804286Y-13964714D02*
X15804286Y-14021857D01*
X15918571Y-13964714D02*
X15918571Y-14021857D01*
X16361428Y-14379000D02*
X16347143Y-14364714D01*
X16318571Y-14321857D01*
X16304286Y-14293286D01*
X16290000Y-14250429D01*
X16275714Y-14179000D01*
X16275714Y-14121857D01*
X16290000Y-14050429D01*
X16304286Y-14007571D01*
X16318571Y-13979000D01*
X16347143Y-13936143D01*
X16361428Y-13921857D01*
X16632857Y-14264714D02*
X16461428Y-14264714D01*
X16547143Y-14264714D02*
X16547143Y-13964714D01*
X16518571Y-14007571D01*
X16490000Y-14036143D01*
X16461428Y-14050429D01*
X16890000Y-14064714D02*
X16890000Y-14264714D01*
X16818571Y-13950429D02*
X16747143Y-14164714D01*
X16932857Y-14164714D01*
X17275714Y-14264714D02*
X17275714Y-13964714D01*
X17404286Y-14264714D02*
X17404286Y-14107571D01*
X17390000Y-14079000D01*
X17361428Y-14064714D01*
X17318571Y-14064714D01*
X17290000Y-14079000D01*
X17275714Y-14093286D01*
X17590000Y-14264714D02*
X17561428Y-14250429D01*
X17547143Y-14236143D01*
X17532857Y-14207571D01*
X17532857Y-14121857D01*
X17547143Y-14093286D01*
X17561428Y-14079000D01*
X17590000Y-14064714D01*
X17632857Y-14064714D01*
X17661428Y-14079000D01*
X17675714Y-14093286D01*
X17690000Y-14121857D01*
X17690000Y-14207571D01*
X17675714Y-14236143D01*
X17661428Y-14250429D01*
X17632857Y-14264714D01*
X17590000Y-14264714D01*
X17861428Y-14264714D02*
X17832857Y-14250429D01*
X17818571Y-14221857D01*
X17818571Y-13964714D01*
X18090000Y-14250429D02*
X18061428Y-14264714D01*
X18004286Y-14264714D01*
X17975714Y-14250429D01*
X17961428Y-14221857D01*
X17961428Y-14107571D01*
X17975714Y-14079000D01*
X18004286Y-14064714D01*
X18061428Y-14064714D01*
X18090000Y-14079000D01*
X18104286Y-14107571D01*
X18104286Y-14136143D01*
X17961428Y-14164714D01*
X18218571Y-14250429D02*
X18247143Y-14264714D01*
X18304286Y-14264714D01*
X18332857Y-14250429D01*
X18347143Y-14221857D01*
X18347143Y-14207571D01*
X18332857Y-14179000D01*
X18304286Y-14164714D01*
X18261428Y-14164714D01*
X18232857Y-14150429D01*
X18218571Y-14121857D01*
X18218571Y-14107571D01*
X18232857Y-14079000D01*
X18261428Y-14064714D01*
X18304286Y-14064714D01*
X18332857Y-14079000D01*
X18447143Y-14379000D02*
X18461428Y-14364714D01*
X18490000Y-14321857D01*
X18504286Y-14293286D01*
X18518571Y-14250429D01*
X18532857Y-14179000D01*
X18532857Y-14121857D01*
X18518571Y-14050429D01*
X18504286Y-14007571D01*
X18490000Y-13979000D01*
X18461428Y-13936143D01*
X18447143Y-13921857D01*
M02*
