%TF.GenerationSoftware,KiCad,Pcbnew,(5.1.9)-1*%
%TF.CreationDate,2021-08-22T04:22:43+05:30*%
%TF.ProjectId,G18_RECEIVER_laser_communication_system,4731385f-5245-4434-9549-5645525f6c61,rev?*%
%TF.SameCoordinates,Original*%
%TF.FileFunction,Copper,L2,Bot*%
%TF.FilePolarity,Positive*%
%FSLAX46Y46*%
G04 Gerber Fmt 4.6, Leading zero omitted, Abs format (unit mm)*
G04 Created by KiCad (PCBNEW (5.1.9)-1) date 2021-08-22 04:22:43*
%MOMM*%
%LPD*%
G01*
G04 APERTURE LIST*
%TA.AperFunction,ComponentPad*%
%ADD10O,1.700000X1.700000*%
%TD*%
%TA.AperFunction,ComponentPad*%
%ADD11R,1.700000X1.700000*%
%TD*%
%TA.AperFunction,ComponentPad*%
%ADD12R,1.600000X1.600000*%
%TD*%
%TA.AperFunction,ComponentPad*%
%ADD13C,1.600000*%
%TD*%
%TA.AperFunction,ComponentPad*%
%ADD14R,2.200000X2.200000*%
%TD*%
%TA.AperFunction,ComponentPad*%
%ADD15O,2.200000X2.200000*%
%TD*%
%TA.AperFunction,ComponentPad*%
%ADD16R,1.800000X1.800000*%
%TD*%
%TA.AperFunction,ComponentPad*%
%ADD17C,1.800000*%
%TD*%
%TA.AperFunction,ComponentPad*%
%ADD18C,2.200000*%
%TD*%
%TA.AperFunction,ComponentPad*%
%ADD19O,1.600000X1.600000*%
%TD*%
%TA.AperFunction,ComponentPad*%
%ADD20C,2.000000*%
%TD*%
%TA.AperFunction,ComponentPad*%
%ADD21R,2.000000X1.905000*%
%TD*%
%TA.AperFunction,ComponentPad*%
%ADD22O,2.000000X1.905000*%
%TD*%
%TA.AperFunction,ComponentPad*%
%ADD23R,2.400000X1.600000*%
%TD*%
%TA.AperFunction,ComponentPad*%
%ADD24O,2.400000X1.600000*%
%TD*%
%TA.AperFunction,ComponentPad*%
%ADD25C,1.500000*%
%TD*%
%TA.AperFunction,ViaPad*%
%ADD26C,0.800000*%
%TD*%
%TA.AperFunction,Conductor*%
%ADD27C,1.000000*%
%TD*%
%TA.AperFunction,Conductor*%
%ADD28C,0.203200*%
%TD*%
%TA.AperFunction,Conductor*%
%ADD29C,0.254000*%
%TD*%
%TA.AperFunction,Conductor*%
%ADD30C,0.100000*%
%TD*%
G04 APERTURE END LIST*
D10*
%TO.P,ICSP,5*%
%TO.N,CLOCK*%
X161800000Y-110960000D03*
%TO.P,ICSP,4*%
%TO.N,DATA*%
X161800000Y-108420000D03*
%TO.P,ICSP,3*%
%TO.N,GND*%
X161800000Y-105880000D03*
%TO.P,ICSP,2*%
%TO.N,5V*%
X161800000Y-103340000D03*
D11*
%TO.P,ICSP,1*%
%TO.N,MCLR*%
X161800000Y-100800000D03*
%TD*%
D12*
%TO.P,C1,1*%
%TO.N,Net-(C1-Pad1)*%
X122800000Y-89800000D03*
D13*
%TO.P,C1,2*%
%TO.N,GND*%
X125300000Y-89800000D03*
%TD*%
%TO.P,C2,2*%
%TO.N,GND*%
X126800000Y-73800000D03*
%TO.P,C2,1*%
%TO.N,5V*%
X126800000Y-78800000D03*
%TD*%
%TO.P,C3,2*%
%TO.N,GND*%
X149800000Y-83800000D03*
%TO.P,C3,1*%
%TO.N,Net-(C3-Pad1)*%
X149800000Y-78800000D03*
%TD*%
%TO.P,C4,1*%
%TO.N,Net-(C4-Pad1)*%
X149800000Y-91800000D03*
%TO.P,C4,2*%
%TO.N,GND*%
X149800000Y-86800000D03*
%TD*%
%TO.P,C5,1*%
%TO.N,5V*%
X156800000Y-106800000D03*
%TO.P,C5,2*%
%TO.N,GND*%
X156800000Y-111800000D03*
%TD*%
D14*
%TO.P,D1,1*%
%TO.N,Net-(C1-Pad1)*%
X122800000Y-83960000D03*
D15*
%TO.P,D1,2*%
%TO.N,Net-(D1-Pad2)*%
X122800000Y-73800000D03*
%TD*%
D16*
%TO.P,BIT3,1*%
%TO.N,GND*%
X158800000Y-94800000D03*
D17*
%TO.P,BIT3,2*%
%TO.N,Net-(D2-Pad2)*%
X156260000Y-94800000D03*
%TD*%
%TO.P,BIT2,2*%
%TO.N,Net-(D3-Pad2)*%
X156260000Y-89800000D03*
D16*
%TO.P,BIT2,1*%
%TO.N,GND*%
X158800000Y-89800000D03*
%TD*%
%TO.P,BIT1,1*%
%TO.N,GND*%
X158800000Y-84800000D03*
D17*
%TO.P,BIT1,2*%
%TO.N,Net-(D4-Pad2)*%
X156260000Y-84800000D03*
%TD*%
%TO.P,BIT0,2*%
%TO.N,Net-(D5-Pad2)*%
X156260000Y-79800000D03*
D16*
%TO.P,BIT0,1*%
%TO.N,GND*%
X158800000Y-79800000D03*
%TD*%
D14*
%TO.P,J1,1*%
%TO.N,GND*%
X125800000Y-67800000D03*
D18*
%TO.P,J1,2*%
%TO.N,Net-(D1-Pad2)*%
X123260000Y-67800000D03*
%TD*%
D14*
%TO.P,J2,1*%
%TO.N,SENSOR*%
X123000000Y-105600000D03*
D18*
%TO.P,J2,2*%
%TO.N,5V*%
X123000000Y-108140000D03*
%TO.P,J2,3*%
%TO.N,GND*%
X123000000Y-110680000D03*
%TD*%
D13*
%TO.P,R1,1*%
%TO.N,5V*%
X154180000Y-74800000D03*
D19*
%TO.P,R1,2*%
%TO.N,MCLR*%
X161800000Y-74800000D03*
%TD*%
D13*
%TO.P,R2,1*%
%TO.N,Net-(D2-Pad2)*%
X149800000Y-111600000D03*
D19*
%TO.P,R2,2*%
%TO.N,BIT3*%
X149800000Y-103980000D03*
%TD*%
%TO.P,R3,2*%
%TO.N,BIT2*%
X144800000Y-103980000D03*
D13*
%TO.P,R3,1*%
%TO.N,Net-(D3-Pad2)*%
X144800000Y-111600000D03*
%TD*%
%TO.P,R4,1*%
%TO.N,Net-(D4-Pad2)*%
X139800000Y-111600000D03*
D19*
%TO.P,R4,2*%
%TO.N,BIT1*%
X139800000Y-103980000D03*
%TD*%
%TO.P,R5,2*%
%TO.N,BIT0*%
X134800000Y-103980000D03*
D13*
%TO.P,R5,1*%
%TO.N,Net-(D5-Pad2)*%
X134800000Y-111600000D03*
%TD*%
D20*
%TO.P,RESET,2*%
%TO.N,MCLR*%
X155300000Y-70300000D03*
%TO.P,RESET,1*%
%TO.N,GND*%
X155300000Y-65800000D03*
%TO.P,RESET,2*%
%TO.N,MCLR*%
X161800000Y-70300000D03*
%TO.P,RESET,1*%
%TO.N,GND*%
X161800000Y-65800000D03*
%TD*%
D21*
%TO.P,U1,1*%
%TO.N,Net-(C1-Pad1)*%
X131800000Y-66800000D03*
D22*
%TO.P,U1,2*%
%TO.N,GND*%
X131800000Y-69340000D03*
%TO.P,U1,3*%
%TO.N,5V*%
X131800000Y-71880000D03*
%TD*%
D23*
%TO.P,U2,1*%
%TO.N,Net-(U2-Pad1)*%
X131800000Y-78800000D03*
D24*
%TO.P,U2,10*%
%TO.N,BIT3*%
X139420000Y-99120000D03*
%TO.P,U2,2*%
%TO.N,Net-(U2-Pad2)*%
X131800000Y-81340000D03*
%TO.P,U2,11*%
%TO.N,Net-(U2-Pad11)*%
X139420000Y-96580000D03*
%TO.P,U2,3*%
%TO.N,Net-(U2-Pad3)*%
X131800000Y-83880000D03*
%TO.P,U2,12*%
%TO.N,CLOCK*%
X139420000Y-94040000D03*
%TO.P,U2,4*%
%TO.N,MCLR*%
X131800000Y-86420000D03*
%TO.P,U2,13*%
%TO.N,DATA*%
X139420000Y-91500000D03*
%TO.P,U2,5*%
%TO.N,GND*%
X131800000Y-88960000D03*
%TO.P,U2,14*%
%TO.N,5V*%
X139420000Y-88960000D03*
%TO.P,U2,6*%
%TO.N,Net-(U2-Pad6)*%
X131800000Y-91500000D03*
%TO.P,U2,15*%
%TO.N,Net-(C4-Pad1)*%
X139420000Y-86420000D03*
%TO.P,U2,7*%
%TO.N,BIT0*%
X131800000Y-94040000D03*
%TO.P,U2,16*%
%TO.N,Net-(C3-Pad1)*%
X139420000Y-83880000D03*
%TO.P,U2,8*%
%TO.N,BIT1*%
X131800000Y-96580000D03*
%TO.P,U2,17*%
%TO.N,Net-(U2-Pad17)*%
X139420000Y-81340000D03*
%TO.P,U2,9*%
%TO.N,BIT2*%
X131800000Y-99120000D03*
%TO.P,U2,18*%
%TO.N,SENSOR*%
X139420000Y-78800000D03*
%TD*%
D25*
%TO.P,Y1,1*%
%TO.N,Net-(C3-Pad1)*%
X144800000Y-82800000D03*
%TO.P,Y1,2*%
%TO.N,Net-(C4-Pad1)*%
X144800000Y-87700000D03*
%TD*%
D26*
%TO.N,BIT2*%
X134400000Y-102200000D03*
%TD*%
D27*
%TO.N,5V*%
X135280000Y-71880000D02*
X131800000Y-71880000D01*
X137000000Y-73600000D02*
X135280000Y-71880000D01*
X138560000Y-88960000D02*
X137000000Y-87400000D01*
X139420000Y-88960000D02*
X138560000Y-88960000D01*
D28*
X126800000Y-78800000D02*
X129000000Y-76600000D01*
X129000000Y-76600000D02*
X129000000Y-73000000D01*
X130120000Y-71880000D02*
X131800000Y-71880000D01*
X129000000Y-73000000D02*
X130120000Y-71880000D01*
X154180000Y-74800000D02*
X137000000Y-74800000D01*
D27*
X137000000Y-74800000D02*
X137000000Y-73600000D01*
X137000000Y-87400000D02*
X137000000Y-74800000D01*
D28*
X162954801Y-102185199D02*
X162954801Y-79754801D01*
X161800000Y-103340000D02*
X162954801Y-102185199D01*
X162954801Y-79754801D02*
X160200000Y-77000000D01*
X156380000Y-77000000D02*
X154180000Y-74800000D01*
X160200000Y-77000000D02*
X156380000Y-77000000D01*
%TO.N,DATA*%
X149120000Y-101200000D02*
X139420000Y-91500000D01*
X154580000Y-101200000D02*
X149120000Y-101200000D01*
X161800000Y-108420000D02*
X154580000Y-101200000D01*
%TO.N,CLOCK*%
X160000000Y-107500000D02*
X160000000Y-109160000D01*
X154300000Y-101800000D02*
X160000000Y-107500000D01*
X160000000Y-109160000D02*
X161800000Y-110960000D01*
X148800000Y-101800000D02*
X154300000Y-101800000D01*
X141040000Y-94040000D02*
X148800000Y-101800000D01*
X139420000Y-94040000D02*
X141040000Y-94040000D01*
%TO.N,BIT2*%
X131800000Y-99120000D02*
X132920000Y-99120000D01*
X134400000Y-100600000D02*
X134400000Y-102200000D01*
X132920000Y-99120000D02*
X134400000Y-100600000D01*
%TO.N,BIT1*%
X135000000Y-97800000D02*
X133780000Y-96580000D01*
X135000000Y-100400000D02*
X135000000Y-97800000D01*
X138580000Y-103980000D02*
X135000000Y-100400000D01*
X133780000Y-96580000D02*
X131800000Y-96580000D01*
X139800000Y-103980000D02*
X138580000Y-103980000D01*
%TO.N,BIT0*%
X130760000Y-94040000D02*
X131800000Y-94040000D01*
X129200000Y-99800000D02*
X129200000Y-95600000D01*
X129200000Y-95600000D02*
X130760000Y-94040000D01*
X133380000Y-103980000D02*
X129200000Y-99800000D01*
X134800000Y-103980000D02*
X133380000Y-103980000D01*
%TD*%
D29*
%TO.N,GND*%
X164249016Y-61532312D02*
X164680930Y-61662714D01*
X165079285Y-61874524D01*
X165428914Y-62159675D01*
X165716497Y-62507303D01*
X165931086Y-62904177D01*
X166064498Y-63335161D01*
X166115000Y-63815654D01*
X166115001Y-112766485D01*
X166067688Y-113249016D01*
X165937287Y-113680927D01*
X165725480Y-114079280D01*
X165440325Y-114428914D01*
X165092697Y-114716497D01*
X164695825Y-114931085D01*
X164264834Y-115064500D01*
X163784346Y-115115000D01*
X119833504Y-115115000D01*
X119350984Y-115067688D01*
X118919073Y-114937287D01*
X118520720Y-114725480D01*
X118171086Y-114440325D01*
X117883503Y-114092697D01*
X117668915Y-113695825D01*
X117535500Y-113264834D01*
X117485000Y-112784346D01*
X117485000Y-111886712D01*
X121972893Y-111886712D01*
X122080726Y-112161338D01*
X122387384Y-112312216D01*
X122717585Y-112400369D01*
X123058639Y-112422409D01*
X123397439Y-112377489D01*
X123720966Y-112267336D01*
X123919274Y-112161338D01*
X124027107Y-111886712D01*
X123000000Y-110859605D01*
X121972893Y-111886712D01*
X117485000Y-111886712D01*
X117485000Y-110563288D01*
X119275000Y-110563288D01*
X119275000Y-110796712D01*
X119320539Y-111025652D01*
X119409866Y-111241308D01*
X119539550Y-111435394D01*
X119704606Y-111600450D01*
X119898692Y-111730134D01*
X120114348Y-111819461D01*
X120343288Y-111865000D01*
X120576712Y-111865000D01*
X120805652Y-111819461D01*
X121021308Y-111730134D01*
X121215394Y-111600450D01*
X121380450Y-111435394D01*
X121409555Y-111391835D01*
X121412664Y-111400966D01*
X121518662Y-111599274D01*
X121793288Y-111707107D01*
X122820395Y-110680000D01*
X123179605Y-110680000D01*
X124206712Y-111707107D01*
X124481338Y-111599274D01*
X124550518Y-111458665D01*
X133365000Y-111458665D01*
X133365000Y-111741335D01*
X133420147Y-112018574D01*
X133528320Y-112279727D01*
X133685363Y-112514759D01*
X133885241Y-112714637D01*
X134120273Y-112871680D01*
X134381426Y-112979853D01*
X134658665Y-113035000D01*
X134941335Y-113035000D01*
X135218574Y-112979853D01*
X135479727Y-112871680D01*
X135714759Y-112714637D01*
X135914637Y-112514759D01*
X136071680Y-112279727D01*
X136179853Y-112018574D01*
X136235000Y-111741335D01*
X136235000Y-111458665D01*
X138365000Y-111458665D01*
X138365000Y-111741335D01*
X138420147Y-112018574D01*
X138528320Y-112279727D01*
X138685363Y-112514759D01*
X138885241Y-112714637D01*
X139120273Y-112871680D01*
X139381426Y-112979853D01*
X139658665Y-113035000D01*
X139941335Y-113035000D01*
X140218574Y-112979853D01*
X140479727Y-112871680D01*
X140714759Y-112714637D01*
X140914637Y-112514759D01*
X141071680Y-112279727D01*
X141179853Y-112018574D01*
X141235000Y-111741335D01*
X141235000Y-111458665D01*
X143365000Y-111458665D01*
X143365000Y-111741335D01*
X143420147Y-112018574D01*
X143528320Y-112279727D01*
X143685363Y-112514759D01*
X143885241Y-112714637D01*
X144120273Y-112871680D01*
X144381426Y-112979853D01*
X144658665Y-113035000D01*
X144941335Y-113035000D01*
X145218574Y-112979853D01*
X145479727Y-112871680D01*
X145714759Y-112714637D01*
X145914637Y-112514759D01*
X146071680Y-112279727D01*
X146179853Y-112018574D01*
X146235000Y-111741335D01*
X146235000Y-111458665D01*
X148365000Y-111458665D01*
X148365000Y-111741335D01*
X148420147Y-112018574D01*
X148528320Y-112279727D01*
X148685363Y-112514759D01*
X148885241Y-112714637D01*
X149120273Y-112871680D01*
X149381426Y-112979853D01*
X149658665Y-113035000D01*
X149941335Y-113035000D01*
X150218574Y-112979853D01*
X150479727Y-112871680D01*
X150597926Y-112792702D01*
X155986903Y-112792702D01*
X156058486Y-113036671D01*
X156313996Y-113157571D01*
X156588184Y-113226300D01*
X156870512Y-113240217D01*
X157150130Y-113198787D01*
X157416292Y-113103603D01*
X157541514Y-113036671D01*
X157613097Y-112792702D01*
X156800000Y-111979605D01*
X155986903Y-112792702D01*
X150597926Y-112792702D01*
X150714759Y-112714637D01*
X150914637Y-112514759D01*
X151071680Y-112279727D01*
X151179853Y-112018574D01*
X151209304Y-111870512D01*
X155359783Y-111870512D01*
X155401213Y-112150130D01*
X155496397Y-112416292D01*
X155563329Y-112541514D01*
X155807298Y-112613097D01*
X156620395Y-111800000D01*
X156979605Y-111800000D01*
X157792702Y-112613097D01*
X158036671Y-112541514D01*
X158157571Y-112286004D01*
X158226300Y-112011816D01*
X158240217Y-111729488D01*
X158198787Y-111449870D01*
X158103603Y-111183708D01*
X158036671Y-111058486D01*
X157792702Y-110986903D01*
X156979605Y-111800000D01*
X156620395Y-111800000D01*
X155807298Y-110986903D01*
X155563329Y-111058486D01*
X155442429Y-111313996D01*
X155373700Y-111588184D01*
X155359783Y-111870512D01*
X151209304Y-111870512D01*
X151235000Y-111741335D01*
X151235000Y-111458665D01*
X151179853Y-111181426D01*
X151071680Y-110920273D01*
X150996193Y-110807298D01*
X155986903Y-110807298D01*
X156800000Y-111620395D01*
X157613097Y-110807298D01*
X157541514Y-110563329D01*
X157286004Y-110442429D01*
X157011816Y-110373700D01*
X156729488Y-110359783D01*
X156449870Y-110401213D01*
X156183708Y-110496397D01*
X156058486Y-110563329D01*
X155986903Y-110807298D01*
X150996193Y-110807298D01*
X150914637Y-110685241D01*
X150714759Y-110485363D01*
X150479727Y-110328320D01*
X150218574Y-110220147D01*
X149941335Y-110165000D01*
X149658665Y-110165000D01*
X149381426Y-110220147D01*
X149120273Y-110328320D01*
X148885241Y-110485363D01*
X148685363Y-110685241D01*
X148528320Y-110920273D01*
X148420147Y-111181426D01*
X148365000Y-111458665D01*
X146235000Y-111458665D01*
X146179853Y-111181426D01*
X146071680Y-110920273D01*
X145914637Y-110685241D01*
X145714759Y-110485363D01*
X145479727Y-110328320D01*
X145218574Y-110220147D01*
X144941335Y-110165000D01*
X144658665Y-110165000D01*
X144381426Y-110220147D01*
X144120273Y-110328320D01*
X143885241Y-110485363D01*
X143685363Y-110685241D01*
X143528320Y-110920273D01*
X143420147Y-111181426D01*
X143365000Y-111458665D01*
X141235000Y-111458665D01*
X141179853Y-111181426D01*
X141071680Y-110920273D01*
X140914637Y-110685241D01*
X140714759Y-110485363D01*
X140479727Y-110328320D01*
X140218574Y-110220147D01*
X139941335Y-110165000D01*
X139658665Y-110165000D01*
X139381426Y-110220147D01*
X139120273Y-110328320D01*
X138885241Y-110485363D01*
X138685363Y-110685241D01*
X138528320Y-110920273D01*
X138420147Y-111181426D01*
X138365000Y-111458665D01*
X136235000Y-111458665D01*
X136179853Y-111181426D01*
X136071680Y-110920273D01*
X135914637Y-110685241D01*
X135714759Y-110485363D01*
X135479727Y-110328320D01*
X135218574Y-110220147D01*
X134941335Y-110165000D01*
X134658665Y-110165000D01*
X134381426Y-110220147D01*
X134120273Y-110328320D01*
X133885241Y-110485363D01*
X133685363Y-110685241D01*
X133528320Y-110920273D01*
X133420147Y-111181426D01*
X133365000Y-111458665D01*
X124550518Y-111458665D01*
X124632216Y-111292616D01*
X124720369Y-110962415D01*
X124742409Y-110621361D01*
X124697489Y-110282561D01*
X124587336Y-109959034D01*
X124481338Y-109760726D01*
X124206712Y-109652893D01*
X123179605Y-110680000D01*
X122820395Y-110680000D01*
X121793288Y-109652893D01*
X121518662Y-109760726D01*
X121413613Y-109974238D01*
X121380450Y-109924606D01*
X121215394Y-109759550D01*
X121021308Y-109629866D01*
X120805652Y-109540539D01*
X120576712Y-109495000D01*
X120343288Y-109495000D01*
X120114348Y-109540539D01*
X119898692Y-109629866D01*
X119704606Y-109759550D01*
X119539550Y-109924606D01*
X119409866Y-110118692D01*
X119320539Y-110334348D01*
X119275000Y-110563288D01*
X117485000Y-110563288D01*
X117485000Y-105483288D01*
X119275000Y-105483288D01*
X119275000Y-105716712D01*
X119320539Y-105945652D01*
X119409866Y-106161308D01*
X119539550Y-106355394D01*
X119704606Y-106520450D01*
X119898692Y-106650134D01*
X120114348Y-106739461D01*
X120343288Y-106785000D01*
X120576712Y-106785000D01*
X120805652Y-106739461D01*
X121021308Y-106650134D01*
X121215394Y-106520450D01*
X121261928Y-106473916D01*
X121261928Y-106700000D01*
X121274188Y-106824482D01*
X121310498Y-106944180D01*
X121369463Y-107054494D01*
X121448815Y-107151185D01*
X121529690Y-107217557D01*
X121462463Y-107318169D01*
X121414090Y-107434952D01*
X121380450Y-107384606D01*
X121215394Y-107219550D01*
X121021308Y-107089866D01*
X120805652Y-107000539D01*
X120576712Y-106955000D01*
X120343288Y-106955000D01*
X120114348Y-107000539D01*
X119898692Y-107089866D01*
X119704606Y-107219550D01*
X119539550Y-107384606D01*
X119409866Y-107578692D01*
X119320539Y-107794348D01*
X119275000Y-108023288D01*
X119275000Y-108256712D01*
X119320539Y-108485652D01*
X119409866Y-108701308D01*
X119539550Y-108895394D01*
X119704606Y-109060450D01*
X119898692Y-109190134D01*
X120114348Y-109279461D01*
X120343288Y-109325000D01*
X120576712Y-109325000D01*
X120805652Y-109279461D01*
X121021308Y-109190134D01*
X121215394Y-109060450D01*
X121380450Y-108895394D01*
X121414090Y-108845048D01*
X121462463Y-108961831D01*
X121652337Y-109245998D01*
X121894002Y-109487663D01*
X122175074Y-109675469D01*
X123000000Y-110500395D01*
X123824926Y-109675469D01*
X124105998Y-109487663D01*
X124347663Y-109245998D01*
X124537537Y-108961831D01*
X124668325Y-108646081D01*
X124735000Y-108310883D01*
X124735000Y-107969117D01*
X124668325Y-107633919D01*
X124537537Y-107318169D01*
X124470310Y-107217557D01*
X124551185Y-107151185D01*
X124630537Y-107054494D01*
X124689502Y-106944180D01*
X124725812Y-106824482D01*
X124738072Y-106700000D01*
X124738072Y-104500000D01*
X124725812Y-104375518D01*
X124689502Y-104255820D01*
X124630537Y-104145506D01*
X124551185Y-104048815D01*
X124454494Y-103969463D01*
X124344180Y-103910498D01*
X124224482Y-103874188D01*
X124100000Y-103861928D01*
X121900000Y-103861928D01*
X121775518Y-103874188D01*
X121655820Y-103910498D01*
X121545506Y-103969463D01*
X121448815Y-104048815D01*
X121369463Y-104145506D01*
X121310498Y-104255820D01*
X121274188Y-104375518D01*
X121261928Y-104500000D01*
X121261928Y-104726084D01*
X121215394Y-104679550D01*
X121021308Y-104549866D01*
X120805652Y-104460539D01*
X120576712Y-104415000D01*
X120343288Y-104415000D01*
X120114348Y-104460539D01*
X119898692Y-104549866D01*
X119704606Y-104679550D01*
X119539550Y-104844606D01*
X119409866Y-105038692D01*
X119320539Y-105254348D01*
X119275000Y-105483288D01*
X117485000Y-105483288D01*
X117485000Y-95600000D01*
X128459836Y-95600000D01*
X128463401Y-95636193D01*
X128463400Y-99763817D01*
X128459836Y-99800000D01*
X128463400Y-99836183D01*
X128463400Y-99836185D01*
X128474058Y-99944398D01*
X128516178Y-100083248D01*
X128584576Y-100211212D01*
X128676625Y-100323374D01*
X128704732Y-100346441D01*
X132833559Y-104475269D01*
X132856625Y-104503375D01*
X132968787Y-104595424D01*
X133096751Y-104663822D01*
X133235601Y-104705942D01*
X133380000Y-104720164D01*
X133416186Y-104716600D01*
X133566321Y-104716600D01*
X133685363Y-104894759D01*
X133885241Y-105094637D01*
X134120273Y-105251680D01*
X134381426Y-105359853D01*
X134658665Y-105415000D01*
X134941335Y-105415000D01*
X135218574Y-105359853D01*
X135479727Y-105251680D01*
X135714759Y-105094637D01*
X135914637Y-104894759D01*
X136071680Y-104659727D01*
X136179853Y-104398574D01*
X136235000Y-104121335D01*
X136235000Y-103838665D01*
X136179853Y-103561426D01*
X136071680Y-103300273D01*
X135914637Y-103065241D01*
X135714759Y-102865363D01*
X135479727Y-102708320D01*
X135334619Y-102648214D01*
X135395226Y-102501898D01*
X135435000Y-102301939D01*
X135435000Y-102098061D01*
X135395226Y-101898102D01*
X135351974Y-101793683D01*
X138033559Y-104475269D01*
X138056625Y-104503375D01*
X138168787Y-104595424D01*
X138296751Y-104663822D01*
X138435601Y-104705942D01*
X138567907Y-104718973D01*
X138685363Y-104894759D01*
X138885241Y-105094637D01*
X139120273Y-105251680D01*
X139381426Y-105359853D01*
X139658665Y-105415000D01*
X139941335Y-105415000D01*
X140218574Y-105359853D01*
X140479727Y-105251680D01*
X140714759Y-105094637D01*
X140914637Y-104894759D01*
X141071680Y-104659727D01*
X141179853Y-104398574D01*
X141235000Y-104121335D01*
X141235000Y-103838665D01*
X143365000Y-103838665D01*
X143365000Y-104121335D01*
X143420147Y-104398574D01*
X143528320Y-104659727D01*
X143685363Y-104894759D01*
X143885241Y-105094637D01*
X144120273Y-105251680D01*
X144381426Y-105359853D01*
X144658665Y-105415000D01*
X144941335Y-105415000D01*
X145218574Y-105359853D01*
X145479727Y-105251680D01*
X145714759Y-105094637D01*
X145914637Y-104894759D01*
X146071680Y-104659727D01*
X146179853Y-104398574D01*
X146235000Y-104121335D01*
X146235000Y-103838665D01*
X148365000Y-103838665D01*
X148365000Y-104121335D01*
X148420147Y-104398574D01*
X148528320Y-104659727D01*
X148685363Y-104894759D01*
X148885241Y-105094637D01*
X149120273Y-105251680D01*
X149381426Y-105359853D01*
X149658665Y-105415000D01*
X149941335Y-105415000D01*
X150218574Y-105359853D01*
X150479727Y-105251680D01*
X150714759Y-105094637D01*
X150914637Y-104894759D01*
X151071680Y-104659727D01*
X151179853Y-104398574D01*
X151235000Y-104121335D01*
X151235000Y-103838665D01*
X151179853Y-103561426D01*
X151071680Y-103300273D01*
X150914637Y-103065241D01*
X150714759Y-102865363D01*
X150479727Y-102708320D01*
X150218574Y-102600147D01*
X149941335Y-102545000D01*
X149658665Y-102545000D01*
X149381426Y-102600147D01*
X149120273Y-102708320D01*
X148885241Y-102865363D01*
X148685363Y-103065241D01*
X148528320Y-103300273D01*
X148420147Y-103561426D01*
X148365000Y-103838665D01*
X146235000Y-103838665D01*
X146179853Y-103561426D01*
X146071680Y-103300273D01*
X145914637Y-103065241D01*
X145714759Y-102865363D01*
X145479727Y-102708320D01*
X145218574Y-102600147D01*
X144941335Y-102545000D01*
X144658665Y-102545000D01*
X144381426Y-102600147D01*
X144120273Y-102708320D01*
X143885241Y-102865363D01*
X143685363Y-103065241D01*
X143528320Y-103300273D01*
X143420147Y-103561426D01*
X143365000Y-103838665D01*
X141235000Y-103838665D01*
X141179853Y-103561426D01*
X141071680Y-103300273D01*
X140914637Y-103065241D01*
X140714759Y-102865363D01*
X140479727Y-102708320D01*
X140218574Y-102600147D01*
X139941335Y-102545000D01*
X139658665Y-102545000D01*
X139381426Y-102600147D01*
X139120273Y-102708320D01*
X138885241Y-102865363D01*
X138696157Y-103054447D01*
X135736600Y-100094891D01*
X135736600Y-97836186D01*
X135740164Y-97800000D01*
X135725942Y-97655601D01*
X135683822Y-97516751D01*
X135615424Y-97388787D01*
X135523375Y-97276625D01*
X135495269Y-97253559D01*
X134326445Y-96084736D01*
X134303375Y-96056625D01*
X134191213Y-95964576D01*
X134063249Y-95896178D01*
X133924399Y-95854058D01*
X133816186Y-95843400D01*
X133816183Y-95843400D01*
X133780000Y-95839836D01*
X133743817Y-95843400D01*
X133433409Y-95843400D01*
X133398932Y-95778899D01*
X133219608Y-95560392D01*
X133001101Y-95381068D01*
X132868142Y-95310000D01*
X133001101Y-95238932D01*
X133219608Y-95059608D01*
X133398932Y-94841101D01*
X133532182Y-94591808D01*
X133614236Y-94321309D01*
X133641943Y-94040000D01*
X133614236Y-93758691D01*
X133532182Y-93488192D01*
X133398932Y-93238899D01*
X133219608Y-93020392D01*
X133001101Y-92841068D01*
X132868142Y-92770000D01*
X133001101Y-92698932D01*
X133219608Y-92519608D01*
X133398932Y-92301101D01*
X133532182Y-92051808D01*
X133614236Y-91781309D01*
X133641943Y-91500000D01*
X133614236Y-91218691D01*
X133532182Y-90948192D01*
X133398932Y-90698899D01*
X133219608Y-90480392D01*
X133001101Y-90301068D01*
X132873259Y-90232735D01*
X133102839Y-90082601D01*
X133304500Y-89884895D01*
X133463715Y-89651646D01*
X133574367Y-89391818D01*
X133591904Y-89309039D01*
X133469915Y-89087000D01*
X131927000Y-89087000D01*
X131927000Y-89107000D01*
X131673000Y-89107000D01*
X131673000Y-89087000D01*
X130130085Y-89087000D01*
X130008096Y-89309039D01*
X130025633Y-89391818D01*
X130136285Y-89651646D01*
X130295500Y-89884895D01*
X130497161Y-90082601D01*
X130726741Y-90232735D01*
X130598899Y-90301068D01*
X130380392Y-90480392D01*
X130201068Y-90698899D01*
X130067818Y-90948192D01*
X129985764Y-91218691D01*
X129958057Y-91500000D01*
X129985764Y-91781309D01*
X130067818Y-92051808D01*
X130201068Y-92301101D01*
X130380392Y-92519608D01*
X130598899Y-92698932D01*
X130731858Y-92770000D01*
X130598899Y-92841068D01*
X130380392Y-93020392D01*
X130201068Y-93238899D01*
X130067818Y-93488192D01*
X129985764Y-93758691D01*
X129984252Y-93774038D01*
X128704732Y-95053559D01*
X128676626Y-95076625D01*
X128653560Y-95104731D01*
X128653558Y-95104733D01*
X128584576Y-95188788D01*
X128516178Y-95316753D01*
X128474059Y-95455602D01*
X128459836Y-95600000D01*
X117485000Y-95600000D01*
X117485000Y-89000000D01*
X121361928Y-89000000D01*
X121361928Y-90600000D01*
X121374188Y-90724482D01*
X121410498Y-90844180D01*
X121469463Y-90954494D01*
X121548815Y-91051185D01*
X121645506Y-91130537D01*
X121755820Y-91189502D01*
X121875518Y-91225812D01*
X122000000Y-91238072D01*
X123600000Y-91238072D01*
X123724482Y-91225812D01*
X123844180Y-91189502D01*
X123954494Y-91130537D01*
X124051185Y-91051185D01*
X124130537Y-90954494D01*
X124189502Y-90844180D01*
X124205117Y-90792702D01*
X124486903Y-90792702D01*
X124558486Y-91036671D01*
X124813996Y-91157571D01*
X125088184Y-91226300D01*
X125370512Y-91240217D01*
X125650130Y-91198787D01*
X125916292Y-91103603D01*
X126041514Y-91036671D01*
X126113097Y-90792702D01*
X125300000Y-89979605D01*
X124486903Y-90792702D01*
X124205117Y-90792702D01*
X124225812Y-90724482D01*
X124238072Y-90600000D01*
X124238072Y-90592785D01*
X124307298Y-90613097D01*
X125120395Y-89800000D01*
X125479605Y-89800000D01*
X126292702Y-90613097D01*
X126536671Y-90541514D01*
X126657571Y-90286004D01*
X126726300Y-90011816D01*
X126740217Y-89729488D01*
X126698787Y-89449870D01*
X126603603Y-89183708D01*
X126536671Y-89058486D01*
X126292702Y-88986903D01*
X125479605Y-89800000D01*
X125120395Y-89800000D01*
X124307298Y-88986903D01*
X124238072Y-89007215D01*
X124238072Y-89000000D01*
X124225812Y-88875518D01*
X124205118Y-88807298D01*
X124486903Y-88807298D01*
X125300000Y-89620395D01*
X126113097Y-88807298D01*
X126041514Y-88563329D01*
X125786004Y-88442429D01*
X125511816Y-88373700D01*
X125229488Y-88359783D01*
X124949870Y-88401213D01*
X124683708Y-88496397D01*
X124558486Y-88563329D01*
X124486903Y-88807298D01*
X124205118Y-88807298D01*
X124189502Y-88755820D01*
X124130537Y-88645506D01*
X124051185Y-88548815D01*
X123954494Y-88469463D01*
X123844180Y-88410498D01*
X123724482Y-88374188D01*
X123600000Y-88361928D01*
X122000000Y-88361928D01*
X121875518Y-88374188D01*
X121755820Y-88410498D01*
X121645506Y-88469463D01*
X121548815Y-88548815D01*
X121469463Y-88645506D01*
X121410498Y-88755820D01*
X121374188Y-88875518D01*
X121361928Y-89000000D01*
X117485000Y-89000000D01*
X117485000Y-82860000D01*
X121061928Y-82860000D01*
X121061928Y-85060000D01*
X121074188Y-85184482D01*
X121110498Y-85304180D01*
X121169463Y-85414494D01*
X121248815Y-85511185D01*
X121345506Y-85590537D01*
X121455820Y-85649502D01*
X121575518Y-85685812D01*
X121700000Y-85698072D01*
X123900000Y-85698072D01*
X124024482Y-85685812D01*
X124144180Y-85649502D01*
X124254494Y-85590537D01*
X124351185Y-85511185D01*
X124430537Y-85414494D01*
X124489502Y-85304180D01*
X124525812Y-85184482D01*
X124538072Y-85060000D01*
X124538072Y-82860000D01*
X124525812Y-82735518D01*
X124489502Y-82615820D01*
X124430537Y-82505506D01*
X124351185Y-82408815D01*
X124254494Y-82329463D01*
X124144180Y-82270498D01*
X124024482Y-82234188D01*
X123900000Y-82221928D01*
X121700000Y-82221928D01*
X121575518Y-82234188D01*
X121455820Y-82270498D01*
X121345506Y-82329463D01*
X121248815Y-82408815D01*
X121169463Y-82505506D01*
X121110498Y-82615820D01*
X121074188Y-82735518D01*
X121061928Y-82860000D01*
X117485000Y-82860000D01*
X117485000Y-81340000D01*
X129958057Y-81340000D01*
X129985764Y-81621309D01*
X130067818Y-81891808D01*
X130201068Y-82141101D01*
X130380392Y-82359608D01*
X130598899Y-82538932D01*
X130731858Y-82610000D01*
X130598899Y-82681068D01*
X130380392Y-82860392D01*
X130201068Y-83078899D01*
X130067818Y-83328192D01*
X129985764Y-83598691D01*
X129958057Y-83880000D01*
X129985764Y-84161309D01*
X130067818Y-84431808D01*
X130201068Y-84681101D01*
X130380392Y-84899608D01*
X130598899Y-85078932D01*
X130731858Y-85150000D01*
X130598899Y-85221068D01*
X130380392Y-85400392D01*
X130201068Y-85618899D01*
X130067818Y-85868192D01*
X129985764Y-86138691D01*
X129958057Y-86420000D01*
X129985764Y-86701309D01*
X130067818Y-86971808D01*
X130201068Y-87221101D01*
X130380392Y-87439608D01*
X130598899Y-87618932D01*
X130726741Y-87687265D01*
X130497161Y-87837399D01*
X130295500Y-88035105D01*
X130136285Y-88268354D01*
X130025633Y-88528182D01*
X130008096Y-88610961D01*
X130130085Y-88833000D01*
X131673000Y-88833000D01*
X131673000Y-88813000D01*
X131927000Y-88813000D01*
X131927000Y-88833000D01*
X133469915Y-88833000D01*
X133591904Y-88610961D01*
X133574367Y-88528182D01*
X133463715Y-88268354D01*
X133304500Y-88035105D01*
X133102839Y-87837399D01*
X132873259Y-87687265D01*
X133001101Y-87618932D01*
X133219608Y-87439608D01*
X133398932Y-87221101D01*
X133532182Y-86971808D01*
X133614236Y-86701309D01*
X133641943Y-86420000D01*
X133614236Y-86138691D01*
X133532182Y-85868192D01*
X133398932Y-85618899D01*
X133219608Y-85400392D01*
X133001101Y-85221068D01*
X132868142Y-85150000D01*
X133001101Y-85078932D01*
X133219608Y-84899608D01*
X133398932Y-84681101D01*
X133532182Y-84431808D01*
X133614236Y-84161309D01*
X133641943Y-83880000D01*
X133614236Y-83598691D01*
X133532182Y-83328192D01*
X133398932Y-83078899D01*
X133219608Y-82860392D01*
X133001101Y-82681068D01*
X132868142Y-82610000D01*
X133001101Y-82538932D01*
X133219608Y-82359608D01*
X133398932Y-82141101D01*
X133532182Y-81891808D01*
X133614236Y-81621309D01*
X133641943Y-81340000D01*
X133614236Y-81058691D01*
X133532182Y-80788192D01*
X133398932Y-80538899D01*
X133219608Y-80320392D01*
X133106518Y-80227581D01*
X133124482Y-80225812D01*
X133244180Y-80189502D01*
X133354494Y-80130537D01*
X133451185Y-80051185D01*
X133530537Y-79954494D01*
X133589502Y-79844180D01*
X133625812Y-79724482D01*
X133638072Y-79600000D01*
X133638072Y-78000000D01*
X133625812Y-77875518D01*
X133589502Y-77755820D01*
X133530537Y-77645506D01*
X133451185Y-77548815D01*
X133354494Y-77469463D01*
X133244180Y-77410498D01*
X133124482Y-77374188D01*
X133000000Y-77361928D01*
X130600000Y-77361928D01*
X130475518Y-77374188D01*
X130355820Y-77410498D01*
X130245506Y-77469463D01*
X130148815Y-77548815D01*
X130069463Y-77645506D01*
X130010498Y-77755820D01*
X129974188Y-77875518D01*
X129961928Y-78000000D01*
X129961928Y-79600000D01*
X129974188Y-79724482D01*
X130010498Y-79844180D01*
X130069463Y-79954494D01*
X130148815Y-80051185D01*
X130245506Y-80130537D01*
X130355820Y-80189502D01*
X130475518Y-80225812D01*
X130493482Y-80227581D01*
X130380392Y-80320392D01*
X130201068Y-80538899D01*
X130067818Y-80788192D01*
X129985764Y-81058691D01*
X129958057Y-81340000D01*
X117485000Y-81340000D01*
X117485000Y-78658665D01*
X125365000Y-78658665D01*
X125365000Y-78941335D01*
X125420147Y-79218574D01*
X125528320Y-79479727D01*
X125685363Y-79714759D01*
X125885241Y-79914637D01*
X126120273Y-80071680D01*
X126381426Y-80179853D01*
X126658665Y-80235000D01*
X126941335Y-80235000D01*
X127218574Y-80179853D01*
X127479727Y-80071680D01*
X127714759Y-79914637D01*
X127914637Y-79714759D01*
X128071680Y-79479727D01*
X128179853Y-79218574D01*
X128235000Y-78941335D01*
X128235000Y-78658665D01*
X128193197Y-78448512D01*
X129495273Y-77146437D01*
X129523374Y-77123375D01*
X129546437Y-77095273D01*
X129546442Y-77095268D01*
X129615424Y-77011213D01*
X129621417Y-77000000D01*
X129683822Y-76883249D01*
X129725942Y-76744399D01*
X129736600Y-76636186D01*
X129736600Y-76636185D01*
X129740164Y-76600000D01*
X129736600Y-76563814D01*
X129736600Y-73305109D01*
X130373669Y-72668041D01*
X130426155Y-72766235D01*
X130624537Y-73007963D01*
X130866265Y-73206345D01*
X131142051Y-73353755D01*
X131441296Y-73444530D01*
X131674514Y-73467500D01*
X131925486Y-73467500D01*
X132158704Y-73444530D01*
X132457949Y-73353755D01*
X132733735Y-73206345D01*
X132966888Y-73015000D01*
X134809869Y-73015000D01*
X135865000Y-74070132D01*
X135865000Y-74855751D01*
X135865001Y-74855761D01*
X135865000Y-87344248D01*
X135859509Y-87400000D01*
X135865000Y-87455751D01*
X135881423Y-87622498D01*
X135946324Y-87836446D01*
X136051716Y-88033623D01*
X136193551Y-88206449D01*
X136236865Y-88241996D01*
X137718009Y-89723140D01*
X137753551Y-89766449D01*
X137926377Y-89908284D01*
X137953955Y-89923025D01*
X138000392Y-89979608D01*
X138218899Y-90158932D01*
X138351858Y-90230000D01*
X138218899Y-90301068D01*
X138000392Y-90480392D01*
X137821068Y-90698899D01*
X137687818Y-90948192D01*
X137605764Y-91218691D01*
X137578057Y-91500000D01*
X137605764Y-91781309D01*
X137687818Y-92051808D01*
X137821068Y-92301101D01*
X138000392Y-92519608D01*
X138218899Y-92698932D01*
X138351858Y-92770000D01*
X138218899Y-92841068D01*
X138000392Y-93020392D01*
X137821068Y-93238899D01*
X137687818Y-93488192D01*
X137605764Y-93758691D01*
X137578057Y-94040000D01*
X137605764Y-94321309D01*
X137687818Y-94591808D01*
X137821068Y-94841101D01*
X138000392Y-95059608D01*
X138218899Y-95238932D01*
X138351858Y-95310000D01*
X138218899Y-95381068D01*
X138000392Y-95560392D01*
X137821068Y-95778899D01*
X137687818Y-96028192D01*
X137605764Y-96298691D01*
X137578057Y-96580000D01*
X137605764Y-96861309D01*
X137687818Y-97131808D01*
X137821068Y-97381101D01*
X138000392Y-97599608D01*
X138218899Y-97778932D01*
X138351858Y-97850000D01*
X138218899Y-97921068D01*
X138000392Y-98100392D01*
X137821068Y-98318899D01*
X137687818Y-98568192D01*
X137605764Y-98838691D01*
X137578057Y-99120000D01*
X137605764Y-99401309D01*
X137687818Y-99671808D01*
X137821068Y-99921101D01*
X138000392Y-100139608D01*
X138218899Y-100318932D01*
X138468192Y-100452182D01*
X138738691Y-100534236D01*
X138949508Y-100555000D01*
X139890492Y-100555000D01*
X140101309Y-100534236D01*
X140371808Y-100452182D01*
X140621101Y-100318932D01*
X140839608Y-100139608D01*
X141018932Y-99921101D01*
X141152182Y-99671808D01*
X141234236Y-99401309D01*
X141261943Y-99120000D01*
X141234236Y-98838691D01*
X141152182Y-98568192D01*
X141018932Y-98318899D01*
X140839608Y-98100392D01*
X140621101Y-97921068D01*
X140488142Y-97850000D01*
X140621101Y-97778932D01*
X140839608Y-97599608D01*
X141018932Y-97381101D01*
X141152182Y-97131808D01*
X141234236Y-96861309D01*
X141261943Y-96580000D01*
X141234236Y-96298691D01*
X141152182Y-96028192D01*
X141018932Y-95778899D01*
X140839608Y-95560392D01*
X140621101Y-95381068D01*
X140488142Y-95310000D01*
X140621101Y-95238932D01*
X140839608Y-95059608D01*
X140919973Y-94961682D01*
X148253557Y-102295267D01*
X148276625Y-102323375D01*
X148388787Y-102415424D01*
X148516751Y-102483822D01*
X148655601Y-102525942D01*
X148763814Y-102536600D01*
X148763823Y-102536600D01*
X148799999Y-102540163D01*
X148836175Y-102536600D01*
X153994891Y-102536600D01*
X156823290Y-105365000D01*
X156658665Y-105365000D01*
X156381426Y-105420147D01*
X156120273Y-105528320D01*
X155885241Y-105685363D01*
X155685363Y-105885241D01*
X155528320Y-106120273D01*
X155420147Y-106381426D01*
X155365000Y-106658665D01*
X155365000Y-106941335D01*
X155420147Y-107218574D01*
X155528320Y-107479727D01*
X155685363Y-107714759D01*
X155885241Y-107914637D01*
X156120273Y-108071680D01*
X156381426Y-108179853D01*
X156658665Y-108235000D01*
X156941335Y-108235000D01*
X157218574Y-108179853D01*
X157479727Y-108071680D01*
X157714759Y-107914637D01*
X157914637Y-107714759D01*
X158071680Y-107479727D01*
X158179853Y-107218574D01*
X158235000Y-106941335D01*
X158235000Y-106776710D01*
X159263400Y-107805110D01*
X159263401Y-109123807D01*
X159259836Y-109160000D01*
X159274059Y-109304398D01*
X159316178Y-109443247D01*
X159363654Y-109532068D01*
X159384577Y-109571213D01*
X159476626Y-109683375D01*
X159504732Y-109706441D01*
X160364281Y-110565990D01*
X160315000Y-110813740D01*
X160315000Y-111106260D01*
X160372068Y-111393158D01*
X160484010Y-111663411D01*
X160646525Y-111906632D01*
X160853368Y-112113475D01*
X161096589Y-112275990D01*
X161366842Y-112387932D01*
X161653740Y-112445000D01*
X161946260Y-112445000D01*
X162233158Y-112387932D01*
X162503411Y-112275990D01*
X162746632Y-112113475D01*
X162953475Y-111906632D01*
X163115990Y-111663411D01*
X163227932Y-111393158D01*
X163285000Y-111106260D01*
X163285000Y-110813740D01*
X163227932Y-110526842D01*
X163115990Y-110256589D01*
X162953475Y-110013368D01*
X162746632Y-109806525D01*
X162572240Y-109690000D01*
X162746632Y-109573475D01*
X162953475Y-109366632D01*
X163115990Y-109123411D01*
X163227932Y-108853158D01*
X163285000Y-108566260D01*
X163285000Y-108273740D01*
X163227932Y-107986842D01*
X163115990Y-107716589D01*
X162953475Y-107473368D01*
X162746632Y-107266525D01*
X162564466Y-107144805D01*
X162681355Y-107075178D01*
X162897588Y-106880269D01*
X163071641Y-106646920D01*
X163196825Y-106384099D01*
X163241476Y-106236890D01*
X163120155Y-106007000D01*
X161927000Y-106007000D01*
X161927000Y-106027000D01*
X161673000Y-106027000D01*
X161673000Y-106007000D01*
X160479845Y-106007000D01*
X160462181Y-106040471D01*
X155126446Y-100704737D01*
X155103375Y-100676625D01*
X154991213Y-100584576D01*
X154863249Y-100516178D01*
X154724399Y-100474058D01*
X154616186Y-100463400D01*
X154616183Y-100463400D01*
X154580000Y-100459836D01*
X154543817Y-100463400D01*
X149425110Y-100463400D01*
X143610526Y-94648816D01*
X154725000Y-94648816D01*
X154725000Y-94951184D01*
X154783989Y-95247743D01*
X154899701Y-95527095D01*
X155067688Y-95778505D01*
X155281495Y-95992312D01*
X155532905Y-96160299D01*
X155812257Y-96276011D01*
X156108816Y-96335000D01*
X156411184Y-96335000D01*
X156707743Y-96276011D01*
X156987095Y-96160299D01*
X157238505Y-95992312D01*
X157304944Y-95925873D01*
X157310498Y-95944180D01*
X157369463Y-96054494D01*
X157448815Y-96151185D01*
X157545506Y-96230537D01*
X157655820Y-96289502D01*
X157775518Y-96325812D01*
X157900000Y-96338072D01*
X158514250Y-96335000D01*
X158673000Y-96176250D01*
X158673000Y-94927000D01*
X158927000Y-94927000D01*
X158927000Y-96176250D01*
X159085750Y-96335000D01*
X159700000Y-96338072D01*
X159824482Y-96325812D01*
X159944180Y-96289502D01*
X160054494Y-96230537D01*
X160151185Y-96151185D01*
X160230537Y-96054494D01*
X160289502Y-95944180D01*
X160325812Y-95824482D01*
X160338072Y-95700000D01*
X160335000Y-95085750D01*
X160176250Y-94927000D01*
X158927000Y-94927000D01*
X158673000Y-94927000D01*
X158653000Y-94927000D01*
X158653000Y-94673000D01*
X158673000Y-94673000D01*
X158673000Y-93423750D01*
X158927000Y-93423750D01*
X158927000Y-94673000D01*
X160176250Y-94673000D01*
X160335000Y-94514250D01*
X160338072Y-93900000D01*
X160325812Y-93775518D01*
X160289502Y-93655820D01*
X160230537Y-93545506D01*
X160151185Y-93448815D01*
X160054494Y-93369463D01*
X159944180Y-93310498D01*
X159824482Y-93274188D01*
X159700000Y-93261928D01*
X159085750Y-93265000D01*
X158927000Y-93423750D01*
X158673000Y-93423750D01*
X158514250Y-93265000D01*
X157900000Y-93261928D01*
X157775518Y-93274188D01*
X157655820Y-93310498D01*
X157545506Y-93369463D01*
X157448815Y-93448815D01*
X157369463Y-93545506D01*
X157310498Y-93655820D01*
X157304944Y-93674127D01*
X157238505Y-93607688D01*
X156987095Y-93439701D01*
X156707743Y-93323989D01*
X156411184Y-93265000D01*
X156108816Y-93265000D01*
X155812257Y-93323989D01*
X155532905Y-93439701D01*
X155281495Y-93607688D01*
X155067688Y-93821495D01*
X154899701Y-94072905D01*
X154783989Y-94352257D01*
X154725000Y-94648816D01*
X143610526Y-94648816D01*
X141103881Y-92142172D01*
X141152182Y-92051808D01*
X141234236Y-91781309D01*
X141246315Y-91658665D01*
X148365000Y-91658665D01*
X148365000Y-91941335D01*
X148420147Y-92218574D01*
X148528320Y-92479727D01*
X148685363Y-92714759D01*
X148885241Y-92914637D01*
X149120273Y-93071680D01*
X149381426Y-93179853D01*
X149658665Y-93235000D01*
X149941335Y-93235000D01*
X150218574Y-93179853D01*
X150479727Y-93071680D01*
X150714759Y-92914637D01*
X150914637Y-92714759D01*
X151071680Y-92479727D01*
X151179853Y-92218574D01*
X151235000Y-91941335D01*
X151235000Y-91658665D01*
X151179853Y-91381426D01*
X151071680Y-91120273D01*
X150914637Y-90885241D01*
X150714759Y-90685363D01*
X150479727Y-90528320D01*
X150218574Y-90420147D01*
X149941335Y-90365000D01*
X149658665Y-90365000D01*
X149381426Y-90420147D01*
X149120273Y-90528320D01*
X148885241Y-90685363D01*
X148685363Y-90885241D01*
X148528320Y-91120273D01*
X148420147Y-91381426D01*
X148365000Y-91658665D01*
X141246315Y-91658665D01*
X141261943Y-91500000D01*
X141234236Y-91218691D01*
X141152182Y-90948192D01*
X141018932Y-90698899D01*
X140839608Y-90480392D01*
X140621101Y-90301068D01*
X140488142Y-90230000D01*
X140621101Y-90158932D01*
X140839608Y-89979608D01*
X141018932Y-89761101D01*
X141078949Y-89648816D01*
X154725000Y-89648816D01*
X154725000Y-89951184D01*
X154783989Y-90247743D01*
X154899701Y-90527095D01*
X155067688Y-90778505D01*
X155281495Y-90992312D01*
X155532905Y-91160299D01*
X155812257Y-91276011D01*
X156108816Y-91335000D01*
X156411184Y-91335000D01*
X156707743Y-91276011D01*
X156987095Y-91160299D01*
X157238505Y-90992312D01*
X157304944Y-90925873D01*
X157310498Y-90944180D01*
X157369463Y-91054494D01*
X157448815Y-91151185D01*
X157545506Y-91230537D01*
X157655820Y-91289502D01*
X157775518Y-91325812D01*
X157900000Y-91338072D01*
X158514250Y-91335000D01*
X158673000Y-91176250D01*
X158673000Y-89927000D01*
X158927000Y-89927000D01*
X158927000Y-91176250D01*
X159085750Y-91335000D01*
X159700000Y-91338072D01*
X159824482Y-91325812D01*
X159944180Y-91289502D01*
X160054494Y-91230537D01*
X160151185Y-91151185D01*
X160230537Y-91054494D01*
X160289502Y-90944180D01*
X160325812Y-90824482D01*
X160338072Y-90700000D01*
X160335000Y-90085750D01*
X160176250Y-89927000D01*
X158927000Y-89927000D01*
X158673000Y-89927000D01*
X158653000Y-89927000D01*
X158653000Y-89673000D01*
X158673000Y-89673000D01*
X158673000Y-88423750D01*
X158927000Y-88423750D01*
X158927000Y-89673000D01*
X160176250Y-89673000D01*
X160335000Y-89514250D01*
X160338072Y-88900000D01*
X160325812Y-88775518D01*
X160289502Y-88655820D01*
X160230537Y-88545506D01*
X160151185Y-88448815D01*
X160054494Y-88369463D01*
X159944180Y-88310498D01*
X159824482Y-88274188D01*
X159700000Y-88261928D01*
X159085750Y-88265000D01*
X158927000Y-88423750D01*
X158673000Y-88423750D01*
X158514250Y-88265000D01*
X157900000Y-88261928D01*
X157775518Y-88274188D01*
X157655820Y-88310498D01*
X157545506Y-88369463D01*
X157448815Y-88448815D01*
X157369463Y-88545506D01*
X157310498Y-88655820D01*
X157304944Y-88674127D01*
X157238505Y-88607688D01*
X156987095Y-88439701D01*
X156707743Y-88323989D01*
X156411184Y-88265000D01*
X156108816Y-88265000D01*
X155812257Y-88323989D01*
X155532905Y-88439701D01*
X155281495Y-88607688D01*
X155067688Y-88821495D01*
X154899701Y-89072905D01*
X154783989Y-89352257D01*
X154725000Y-89648816D01*
X141078949Y-89648816D01*
X141152182Y-89511808D01*
X141234236Y-89241309D01*
X141261943Y-88960000D01*
X141234236Y-88678691D01*
X141152182Y-88408192D01*
X141018932Y-88158899D01*
X140839608Y-87940392D01*
X140621101Y-87761068D01*
X140488142Y-87690000D01*
X140621101Y-87618932D01*
X140688536Y-87563589D01*
X143415000Y-87563589D01*
X143415000Y-87836411D01*
X143468225Y-88103989D01*
X143572629Y-88356043D01*
X143724201Y-88582886D01*
X143917114Y-88775799D01*
X144143957Y-88927371D01*
X144396011Y-89031775D01*
X144663589Y-89085000D01*
X144936411Y-89085000D01*
X145203989Y-89031775D01*
X145456043Y-88927371D01*
X145682886Y-88775799D01*
X145875799Y-88582886D01*
X146027371Y-88356043D01*
X146131775Y-88103989D01*
X146185000Y-87836411D01*
X146185000Y-87792702D01*
X148986903Y-87792702D01*
X149058486Y-88036671D01*
X149313996Y-88157571D01*
X149588184Y-88226300D01*
X149870512Y-88240217D01*
X150150130Y-88198787D01*
X150416292Y-88103603D01*
X150541514Y-88036671D01*
X150613097Y-87792702D01*
X149800000Y-86979605D01*
X148986903Y-87792702D01*
X146185000Y-87792702D01*
X146185000Y-87563589D01*
X146131775Y-87296011D01*
X146027371Y-87043957D01*
X145911479Y-86870512D01*
X148359783Y-86870512D01*
X148401213Y-87150130D01*
X148496397Y-87416292D01*
X148563329Y-87541514D01*
X148807298Y-87613097D01*
X149620395Y-86800000D01*
X149979605Y-86800000D01*
X150792702Y-87613097D01*
X151036671Y-87541514D01*
X151157571Y-87286004D01*
X151226300Y-87011816D01*
X151240217Y-86729488D01*
X151198787Y-86449870D01*
X151103603Y-86183708D01*
X151036671Y-86058486D01*
X150792702Y-85986903D01*
X149979605Y-86800000D01*
X149620395Y-86800000D01*
X148807298Y-85986903D01*
X148563329Y-86058486D01*
X148442429Y-86313996D01*
X148373700Y-86588184D01*
X148359783Y-86870512D01*
X145911479Y-86870512D01*
X145875799Y-86817114D01*
X145682886Y-86624201D01*
X145456043Y-86472629D01*
X145203989Y-86368225D01*
X144936411Y-86315000D01*
X144663589Y-86315000D01*
X144396011Y-86368225D01*
X144143957Y-86472629D01*
X143917114Y-86624201D01*
X143724201Y-86817114D01*
X143572629Y-87043957D01*
X143468225Y-87296011D01*
X143415000Y-87563589D01*
X140688536Y-87563589D01*
X140839608Y-87439608D01*
X141018932Y-87221101D01*
X141152182Y-86971808D01*
X141234236Y-86701309D01*
X141261943Y-86420000D01*
X141234236Y-86138691D01*
X141152182Y-85868192D01*
X141119634Y-85807298D01*
X148986903Y-85807298D01*
X149800000Y-86620395D01*
X150613097Y-85807298D01*
X150541514Y-85563329D01*
X150286004Y-85442429D01*
X150011816Y-85373700D01*
X149729488Y-85359783D01*
X149449870Y-85401213D01*
X149183708Y-85496397D01*
X149058486Y-85563329D01*
X148986903Y-85807298D01*
X141119634Y-85807298D01*
X141018932Y-85618899D01*
X140839608Y-85400392D01*
X140621101Y-85221068D01*
X140488142Y-85150000D01*
X140621101Y-85078932D01*
X140839608Y-84899608D01*
X140927343Y-84792702D01*
X148986903Y-84792702D01*
X149058486Y-85036671D01*
X149313996Y-85157571D01*
X149588184Y-85226300D01*
X149870512Y-85240217D01*
X150150130Y-85198787D01*
X150416292Y-85103603D01*
X150541514Y-85036671D01*
X150613097Y-84792702D01*
X150469211Y-84648816D01*
X154725000Y-84648816D01*
X154725000Y-84951184D01*
X154783989Y-85247743D01*
X154899701Y-85527095D01*
X155067688Y-85778505D01*
X155281495Y-85992312D01*
X155532905Y-86160299D01*
X155812257Y-86276011D01*
X156108816Y-86335000D01*
X156411184Y-86335000D01*
X156707743Y-86276011D01*
X156987095Y-86160299D01*
X157238505Y-85992312D01*
X157304944Y-85925873D01*
X157310498Y-85944180D01*
X157369463Y-86054494D01*
X157448815Y-86151185D01*
X157545506Y-86230537D01*
X157655820Y-86289502D01*
X157775518Y-86325812D01*
X157900000Y-86338072D01*
X158514250Y-86335000D01*
X158673000Y-86176250D01*
X158673000Y-84927000D01*
X158927000Y-84927000D01*
X158927000Y-86176250D01*
X159085750Y-86335000D01*
X159700000Y-86338072D01*
X159824482Y-86325812D01*
X159944180Y-86289502D01*
X160054494Y-86230537D01*
X160151185Y-86151185D01*
X160230537Y-86054494D01*
X160289502Y-85944180D01*
X160325812Y-85824482D01*
X160338072Y-85700000D01*
X160335000Y-85085750D01*
X160176250Y-84927000D01*
X158927000Y-84927000D01*
X158673000Y-84927000D01*
X158653000Y-84927000D01*
X158653000Y-84673000D01*
X158673000Y-84673000D01*
X158673000Y-83423750D01*
X158927000Y-83423750D01*
X158927000Y-84673000D01*
X160176250Y-84673000D01*
X160335000Y-84514250D01*
X160338072Y-83900000D01*
X160325812Y-83775518D01*
X160289502Y-83655820D01*
X160230537Y-83545506D01*
X160151185Y-83448815D01*
X160054494Y-83369463D01*
X159944180Y-83310498D01*
X159824482Y-83274188D01*
X159700000Y-83261928D01*
X159085750Y-83265000D01*
X158927000Y-83423750D01*
X158673000Y-83423750D01*
X158514250Y-83265000D01*
X157900000Y-83261928D01*
X157775518Y-83274188D01*
X157655820Y-83310498D01*
X157545506Y-83369463D01*
X157448815Y-83448815D01*
X157369463Y-83545506D01*
X157310498Y-83655820D01*
X157304944Y-83674127D01*
X157238505Y-83607688D01*
X156987095Y-83439701D01*
X156707743Y-83323989D01*
X156411184Y-83265000D01*
X156108816Y-83265000D01*
X155812257Y-83323989D01*
X155532905Y-83439701D01*
X155281495Y-83607688D01*
X155067688Y-83821495D01*
X154899701Y-84072905D01*
X154783989Y-84352257D01*
X154725000Y-84648816D01*
X150469211Y-84648816D01*
X149800000Y-83979605D01*
X148986903Y-84792702D01*
X140927343Y-84792702D01*
X141018932Y-84681101D01*
X141152182Y-84431808D01*
X141234236Y-84161309D01*
X141261943Y-83880000D01*
X141234236Y-83598691D01*
X141152182Y-83328192D01*
X141018932Y-83078899D01*
X140839608Y-82860392D01*
X140621101Y-82681068D01*
X140588401Y-82663589D01*
X143415000Y-82663589D01*
X143415000Y-82936411D01*
X143468225Y-83203989D01*
X143572629Y-83456043D01*
X143724201Y-83682886D01*
X143917114Y-83875799D01*
X144143957Y-84027371D01*
X144396011Y-84131775D01*
X144663589Y-84185000D01*
X144936411Y-84185000D01*
X145203989Y-84131775D01*
X145456043Y-84027371D01*
X145682886Y-83875799D01*
X145688173Y-83870512D01*
X148359783Y-83870512D01*
X148401213Y-84150130D01*
X148496397Y-84416292D01*
X148563329Y-84541514D01*
X148807298Y-84613097D01*
X149620395Y-83800000D01*
X149979605Y-83800000D01*
X150792702Y-84613097D01*
X151036671Y-84541514D01*
X151157571Y-84286004D01*
X151226300Y-84011816D01*
X151240217Y-83729488D01*
X151198787Y-83449870D01*
X151103603Y-83183708D01*
X151036671Y-83058486D01*
X150792702Y-82986903D01*
X149979605Y-83800000D01*
X149620395Y-83800000D01*
X148807298Y-82986903D01*
X148563329Y-83058486D01*
X148442429Y-83313996D01*
X148373700Y-83588184D01*
X148359783Y-83870512D01*
X145688173Y-83870512D01*
X145875799Y-83682886D01*
X146027371Y-83456043D01*
X146131775Y-83203989D01*
X146185000Y-82936411D01*
X146185000Y-82807298D01*
X148986903Y-82807298D01*
X149800000Y-83620395D01*
X150613097Y-82807298D01*
X150541514Y-82563329D01*
X150286004Y-82442429D01*
X150011816Y-82373700D01*
X149729488Y-82359783D01*
X149449870Y-82401213D01*
X149183708Y-82496397D01*
X149058486Y-82563329D01*
X148986903Y-82807298D01*
X146185000Y-82807298D01*
X146185000Y-82663589D01*
X146131775Y-82396011D01*
X146027371Y-82143957D01*
X145875799Y-81917114D01*
X145682886Y-81724201D01*
X145456043Y-81572629D01*
X145203989Y-81468225D01*
X144936411Y-81415000D01*
X144663589Y-81415000D01*
X144396011Y-81468225D01*
X144143957Y-81572629D01*
X143917114Y-81724201D01*
X143724201Y-81917114D01*
X143572629Y-82143957D01*
X143468225Y-82396011D01*
X143415000Y-82663589D01*
X140588401Y-82663589D01*
X140488142Y-82610000D01*
X140621101Y-82538932D01*
X140839608Y-82359608D01*
X141018932Y-82141101D01*
X141152182Y-81891808D01*
X141234236Y-81621309D01*
X141261943Y-81340000D01*
X141234236Y-81058691D01*
X141152182Y-80788192D01*
X141018932Y-80538899D01*
X140839608Y-80320392D01*
X140621101Y-80141068D01*
X140488142Y-80070000D01*
X140621101Y-79998932D01*
X140839608Y-79819608D01*
X141018932Y-79601101D01*
X141152182Y-79351808D01*
X141234236Y-79081309D01*
X141261943Y-78800000D01*
X141248023Y-78658665D01*
X148365000Y-78658665D01*
X148365000Y-78941335D01*
X148420147Y-79218574D01*
X148528320Y-79479727D01*
X148685363Y-79714759D01*
X148885241Y-79914637D01*
X149120273Y-80071680D01*
X149381426Y-80179853D01*
X149658665Y-80235000D01*
X149941335Y-80235000D01*
X150218574Y-80179853D01*
X150479727Y-80071680D01*
X150714759Y-79914637D01*
X150914637Y-79714759D01*
X150958698Y-79648816D01*
X154725000Y-79648816D01*
X154725000Y-79951184D01*
X154783989Y-80247743D01*
X154899701Y-80527095D01*
X155067688Y-80778505D01*
X155281495Y-80992312D01*
X155532905Y-81160299D01*
X155812257Y-81276011D01*
X156108816Y-81335000D01*
X156411184Y-81335000D01*
X156707743Y-81276011D01*
X156987095Y-81160299D01*
X157238505Y-80992312D01*
X157304944Y-80925873D01*
X157310498Y-80944180D01*
X157369463Y-81054494D01*
X157448815Y-81151185D01*
X157545506Y-81230537D01*
X157655820Y-81289502D01*
X157775518Y-81325812D01*
X157900000Y-81338072D01*
X158514250Y-81335000D01*
X158673000Y-81176250D01*
X158673000Y-79927000D01*
X158927000Y-79927000D01*
X158927000Y-81176250D01*
X159085750Y-81335000D01*
X159700000Y-81338072D01*
X159824482Y-81325812D01*
X159944180Y-81289502D01*
X160054494Y-81230537D01*
X160151185Y-81151185D01*
X160230537Y-81054494D01*
X160289502Y-80944180D01*
X160325812Y-80824482D01*
X160338072Y-80700000D01*
X160335000Y-80085750D01*
X160176250Y-79927000D01*
X158927000Y-79927000D01*
X158673000Y-79927000D01*
X158653000Y-79927000D01*
X158653000Y-79673000D01*
X158673000Y-79673000D01*
X158673000Y-78423750D01*
X158927000Y-78423750D01*
X158927000Y-79673000D01*
X160176250Y-79673000D01*
X160335000Y-79514250D01*
X160338072Y-78900000D01*
X160325812Y-78775518D01*
X160289502Y-78655820D01*
X160230537Y-78545506D01*
X160151185Y-78448815D01*
X160054494Y-78369463D01*
X159944180Y-78310498D01*
X159824482Y-78274188D01*
X159700000Y-78261928D01*
X159085750Y-78265000D01*
X158927000Y-78423750D01*
X158673000Y-78423750D01*
X158514250Y-78265000D01*
X157900000Y-78261928D01*
X157775518Y-78274188D01*
X157655820Y-78310498D01*
X157545506Y-78369463D01*
X157448815Y-78448815D01*
X157369463Y-78545506D01*
X157310498Y-78655820D01*
X157304944Y-78674127D01*
X157238505Y-78607688D01*
X156987095Y-78439701D01*
X156707743Y-78323989D01*
X156411184Y-78265000D01*
X156108816Y-78265000D01*
X155812257Y-78323989D01*
X155532905Y-78439701D01*
X155281495Y-78607688D01*
X155067688Y-78821495D01*
X154899701Y-79072905D01*
X154783989Y-79352257D01*
X154725000Y-79648816D01*
X150958698Y-79648816D01*
X151071680Y-79479727D01*
X151179853Y-79218574D01*
X151235000Y-78941335D01*
X151235000Y-78658665D01*
X151179853Y-78381426D01*
X151071680Y-78120273D01*
X150914637Y-77885241D01*
X150714759Y-77685363D01*
X150479727Y-77528320D01*
X150218574Y-77420147D01*
X149941335Y-77365000D01*
X149658665Y-77365000D01*
X149381426Y-77420147D01*
X149120273Y-77528320D01*
X148885241Y-77685363D01*
X148685363Y-77885241D01*
X148528320Y-78120273D01*
X148420147Y-78381426D01*
X148365000Y-78658665D01*
X141248023Y-78658665D01*
X141234236Y-78518691D01*
X141152182Y-78248192D01*
X141018932Y-77998899D01*
X140839608Y-77780392D01*
X140621101Y-77601068D01*
X140371808Y-77467818D01*
X140101309Y-77385764D01*
X139890492Y-77365000D01*
X138949508Y-77365000D01*
X138738691Y-77385764D01*
X138468192Y-77467818D01*
X138218899Y-77601068D01*
X138135000Y-77669922D01*
X138135000Y-75536600D01*
X152946321Y-75536600D01*
X153065363Y-75714759D01*
X153265241Y-75914637D01*
X153500273Y-76071680D01*
X153761426Y-76179853D01*
X154038665Y-76235000D01*
X154321335Y-76235000D01*
X154531488Y-76193197D01*
X155833557Y-77495267D01*
X155856625Y-77523375D01*
X155968787Y-77615424D01*
X156096751Y-77683822D01*
X156235601Y-77725942D01*
X156380000Y-77740164D01*
X156416186Y-77736600D01*
X159894891Y-77736600D01*
X162218202Y-80059912D01*
X162218201Y-99311928D01*
X160950000Y-99311928D01*
X160825518Y-99324188D01*
X160705820Y-99360498D01*
X160595506Y-99419463D01*
X160498815Y-99498815D01*
X160419463Y-99595506D01*
X160360498Y-99705820D01*
X160324188Y-99825518D01*
X160311928Y-99950000D01*
X160311928Y-101650000D01*
X160324188Y-101774482D01*
X160360498Y-101894180D01*
X160419463Y-102004494D01*
X160498815Y-102101185D01*
X160595506Y-102180537D01*
X160705820Y-102239502D01*
X160778380Y-102261513D01*
X160646525Y-102393368D01*
X160484010Y-102636589D01*
X160372068Y-102906842D01*
X160315000Y-103193740D01*
X160315000Y-103486260D01*
X160372068Y-103773158D01*
X160484010Y-104043411D01*
X160646525Y-104286632D01*
X160853368Y-104493475D01*
X161035534Y-104615195D01*
X160918645Y-104684822D01*
X160702412Y-104879731D01*
X160528359Y-105113080D01*
X160403175Y-105375901D01*
X160358524Y-105523110D01*
X160479845Y-105753000D01*
X161673000Y-105753000D01*
X161673000Y-105733000D01*
X161927000Y-105733000D01*
X161927000Y-105753000D01*
X163120155Y-105753000D01*
X163241476Y-105523110D01*
X163196825Y-105375901D01*
X163071641Y-105113080D01*
X162897588Y-104879731D01*
X162681355Y-104684822D01*
X162564466Y-104615195D01*
X162746632Y-104493475D01*
X162953475Y-104286632D01*
X163115990Y-104043411D01*
X163227932Y-103773158D01*
X163285000Y-103486260D01*
X163285000Y-103193740D01*
X163235719Y-102945991D01*
X163450074Y-102731636D01*
X163478175Y-102708574D01*
X163501238Y-102680472D01*
X163501243Y-102680467D01*
X163570224Y-102596413D01*
X163570226Y-102596411D01*
X163638623Y-102468448D01*
X163680743Y-102329598D01*
X163691401Y-102221385D01*
X163691401Y-102221376D01*
X163694964Y-102185200D01*
X163691401Y-102149024D01*
X163691401Y-79790987D01*
X163694965Y-79754801D01*
X163680743Y-79610402D01*
X163638623Y-79471553D01*
X163638623Y-79471552D01*
X163570225Y-79343588D01*
X163478176Y-79231426D01*
X163450070Y-79208360D01*
X160746446Y-76504736D01*
X160723375Y-76476625D01*
X160611213Y-76384576D01*
X160483249Y-76316178D01*
X160344399Y-76274058D01*
X160236186Y-76263400D01*
X160236183Y-76263400D01*
X160200000Y-76259836D01*
X160163817Y-76263400D01*
X156685110Y-76263400D01*
X155573197Y-75151488D01*
X155615000Y-74941335D01*
X155615000Y-74658665D01*
X160365000Y-74658665D01*
X160365000Y-74941335D01*
X160420147Y-75218574D01*
X160528320Y-75479727D01*
X160685363Y-75714759D01*
X160885241Y-75914637D01*
X161120273Y-76071680D01*
X161381426Y-76179853D01*
X161658665Y-76235000D01*
X161941335Y-76235000D01*
X162218574Y-76179853D01*
X162479727Y-76071680D01*
X162714759Y-75914637D01*
X162914637Y-75714759D01*
X163071680Y-75479727D01*
X163179853Y-75218574D01*
X163235000Y-74941335D01*
X163235000Y-74658665D01*
X163179853Y-74381426D01*
X163071680Y-74120273D01*
X162914637Y-73885241D01*
X162714759Y-73685363D01*
X162479727Y-73528320D01*
X162218574Y-73420147D01*
X161941335Y-73365000D01*
X161658665Y-73365000D01*
X161381426Y-73420147D01*
X161120273Y-73528320D01*
X160885241Y-73685363D01*
X160685363Y-73885241D01*
X160528320Y-74120273D01*
X160420147Y-74381426D01*
X160365000Y-74658665D01*
X155615000Y-74658665D01*
X155559853Y-74381426D01*
X155451680Y-74120273D01*
X155294637Y-73885241D01*
X155094759Y-73685363D01*
X154859727Y-73528320D01*
X154598574Y-73420147D01*
X154321335Y-73365000D01*
X154038665Y-73365000D01*
X153761426Y-73420147D01*
X153500273Y-73528320D01*
X153265241Y-73685363D01*
X153065363Y-73885241D01*
X152946321Y-74063400D01*
X138135000Y-74063400D01*
X138135000Y-73655741D01*
X138140490Y-73599999D01*
X138135000Y-73544257D01*
X138135000Y-73544248D01*
X138118577Y-73377501D01*
X138053676Y-73163553D01*
X137948284Y-72966377D01*
X137806449Y-72793551D01*
X137763140Y-72758009D01*
X136121996Y-71116865D01*
X136086449Y-71073551D01*
X135913623Y-70931716D01*
X135716447Y-70826324D01*
X135502499Y-70761423D01*
X135335752Y-70745000D01*
X135335751Y-70745000D01*
X135280000Y-70739509D01*
X135224249Y-70745000D01*
X132966888Y-70745000D01*
X132796101Y-70604837D01*
X132981315Y-70449437D01*
X133175969Y-70206923D01*
X133319571Y-69931094D01*
X133390563Y-69712980D01*
X133270594Y-69467000D01*
X131927000Y-69467000D01*
X131927000Y-69487000D01*
X131673000Y-69487000D01*
X131673000Y-69467000D01*
X130329406Y-69467000D01*
X130209437Y-69712980D01*
X130280429Y-69931094D01*
X130424031Y-70206923D01*
X130618685Y-70449437D01*
X130803899Y-70604837D01*
X130624537Y-70752037D01*
X130426155Y-70993765D01*
X130346174Y-71143400D01*
X130156175Y-71143400D01*
X130119999Y-71139837D01*
X130083823Y-71143400D01*
X130083814Y-71143400D01*
X129975601Y-71154058D01*
X129836751Y-71196178D01*
X129708787Y-71264576D01*
X129596625Y-71356625D01*
X129573559Y-71384731D01*
X128504732Y-72453559D01*
X128476626Y-72476625D01*
X128453560Y-72504731D01*
X128453558Y-72504733D01*
X128384576Y-72588788D01*
X128316178Y-72716753D01*
X128274059Y-72855602D01*
X128259836Y-73000000D01*
X128263401Y-73036193D01*
X128263400Y-76294890D01*
X127151488Y-77406803D01*
X126941335Y-77365000D01*
X126658665Y-77365000D01*
X126381426Y-77420147D01*
X126120273Y-77528320D01*
X125885241Y-77685363D01*
X125685363Y-77885241D01*
X125528320Y-78120273D01*
X125420147Y-78381426D01*
X125365000Y-78658665D01*
X117485000Y-78658665D01*
X117485000Y-73629117D01*
X121065000Y-73629117D01*
X121065000Y-73970883D01*
X121131675Y-74306081D01*
X121262463Y-74621831D01*
X121452337Y-74905998D01*
X121694002Y-75147663D01*
X121978169Y-75337537D01*
X122293919Y-75468325D01*
X122629117Y-75535000D01*
X122970883Y-75535000D01*
X123306081Y-75468325D01*
X123621831Y-75337537D01*
X123905998Y-75147663D01*
X124147663Y-74905998D01*
X124223364Y-74792702D01*
X125986903Y-74792702D01*
X126058486Y-75036671D01*
X126313996Y-75157571D01*
X126588184Y-75226300D01*
X126870512Y-75240217D01*
X127150130Y-75198787D01*
X127416292Y-75103603D01*
X127541514Y-75036671D01*
X127613097Y-74792702D01*
X126800000Y-73979605D01*
X125986903Y-74792702D01*
X124223364Y-74792702D01*
X124337537Y-74621831D01*
X124468325Y-74306081D01*
X124535000Y-73970883D01*
X124535000Y-73870512D01*
X125359783Y-73870512D01*
X125401213Y-74150130D01*
X125496397Y-74416292D01*
X125563329Y-74541514D01*
X125807298Y-74613097D01*
X126620395Y-73800000D01*
X126979605Y-73800000D01*
X127792702Y-74613097D01*
X128036671Y-74541514D01*
X128157571Y-74286004D01*
X128226300Y-74011816D01*
X128240217Y-73729488D01*
X128198787Y-73449870D01*
X128103603Y-73183708D01*
X128036671Y-73058486D01*
X127792702Y-72986903D01*
X126979605Y-73800000D01*
X126620395Y-73800000D01*
X125807298Y-72986903D01*
X125563329Y-73058486D01*
X125442429Y-73313996D01*
X125373700Y-73588184D01*
X125359783Y-73870512D01*
X124535000Y-73870512D01*
X124535000Y-73629117D01*
X124468325Y-73293919D01*
X124337537Y-72978169D01*
X124223365Y-72807298D01*
X125986903Y-72807298D01*
X126800000Y-73620395D01*
X127613097Y-72807298D01*
X127541514Y-72563329D01*
X127286004Y-72442429D01*
X127011816Y-72373700D01*
X126729488Y-72359783D01*
X126449870Y-72401213D01*
X126183708Y-72496397D01*
X126058486Y-72563329D01*
X125986903Y-72807298D01*
X124223365Y-72807298D01*
X124147663Y-72694002D01*
X123905998Y-72452337D01*
X123621831Y-72262463D01*
X123306081Y-72131675D01*
X122970883Y-72065000D01*
X122629117Y-72065000D01*
X122293919Y-72131675D01*
X121978169Y-72262463D01*
X121694002Y-72452337D01*
X121452337Y-72694002D01*
X121262463Y-72978169D01*
X121131675Y-73293919D01*
X121065000Y-73629117D01*
X117485000Y-73629117D01*
X117485000Y-67629117D01*
X121525000Y-67629117D01*
X121525000Y-67970883D01*
X121591675Y-68306081D01*
X121722463Y-68621831D01*
X121912337Y-68905998D01*
X122154002Y-69147663D01*
X122438169Y-69337537D01*
X122753919Y-69468325D01*
X123089117Y-69535000D01*
X123430883Y-69535000D01*
X123766081Y-69468325D01*
X124081831Y-69337537D01*
X124182443Y-69270310D01*
X124248815Y-69351185D01*
X124345506Y-69430537D01*
X124455820Y-69489502D01*
X124575518Y-69525812D01*
X124700000Y-69538072D01*
X125514250Y-69535000D01*
X125673000Y-69376250D01*
X125673000Y-67927000D01*
X125927000Y-67927000D01*
X125927000Y-69376250D01*
X126085750Y-69535000D01*
X126900000Y-69538072D01*
X127024482Y-69525812D01*
X127144180Y-69489502D01*
X127254494Y-69430537D01*
X127351185Y-69351185D01*
X127430537Y-69254494D01*
X127489502Y-69144180D01*
X127525812Y-69024482D01*
X127538072Y-68900000D01*
X127535000Y-68085750D01*
X127376250Y-67927000D01*
X125927000Y-67927000D01*
X125673000Y-67927000D01*
X125653000Y-67927000D01*
X125653000Y-67673000D01*
X125673000Y-67673000D01*
X125673000Y-67653000D01*
X125927000Y-67653000D01*
X125927000Y-67673000D01*
X127376250Y-67673000D01*
X127535000Y-67514250D01*
X127538072Y-66700000D01*
X127525812Y-66575518D01*
X127489502Y-66455820D01*
X127430537Y-66345506D01*
X127351185Y-66248815D01*
X127254494Y-66169463D01*
X127144180Y-66110498D01*
X127024482Y-66074188D01*
X126900000Y-66061928D01*
X126673060Y-66062784D01*
X126720450Y-66015394D01*
X126832633Y-65847500D01*
X130161928Y-65847500D01*
X130161928Y-67752500D01*
X130174188Y-67876982D01*
X130210498Y-67996680D01*
X130269463Y-68106994D01*
X130348815Y-68203685D01*
X130445506Y-68283037D01*
X130537219Y-68332059D01*
X130424031Y-68473077D01*
X130280429Y-68748906D01*
X130209437Y-68967020D01*
X130329406Y-69213000D01*
X131673000Y-69213000D01*
X131673000Y-69193000D01*
X131927000Y-69193000D01*
X131927000Y-69213000D01*
X133270594Y-69213000D01*
X133323219Y-69105098D01*
X146075000Y-69105098D01*
X146075000Y-69574902D01*
X146166654Y-70035679D01*
X146346440Y-70469721D01*
X146607450Y-70860349D01*
X146939651Y-71192550D01*
X147330279Y-71453560D01*
X147764321Y-71633346D01*
X148225098Y-71725000D01*
X148694902Y-71725000D01*
X149155679Y-71633346D01*
X149589721Y-71453560D01*
X149980349Y-71192550D01*
X150312550Y-70860349D01*
X150573560Y-70469721D01*
X150710562Y-70138967D01*
X153665000Y-70138967D01*
X153665000Y-70461033D01*
X153727832Y-70776912D01*
X153851082Y-71074463D01*
X154030013Y-71342252D01*
X154257748Y-71569987D01*
X154525537Y-71748918D01*
X154823088Y-71872168D01*
X155138967Y-71935000D01*
X155461033Y-71935000D01*
X155776912Y-71872168D01*
X156074463Y-71748918D01*
X156342252Y-71569987D01*
X156569987Y-71342252D01*
X156748918Y-71074463D01*
X156872168Y-70776912D01*
X156935000Y-70461033D01*
X156935000Y-70138967D01*
X160165000Y-70138967D01*
X160165000Y-70461033D01*
X160227832Y-70776912D01*
X160351082Y-71074463D01*
X160530013Y-71342252D01*
X160757748Y-71569987D01*
X161025537Y-71748918D01*
X161323088Y-71872168D01*
X161638967Y-71935000D01*
X161961033Y-71935000D01*
X162276912Y-71872168D01*
X162574463Y-71748918D01*
X162842252Y-71569987D01*
X163069987Y-71342252D01*
X163248918Y-71074463D01*
X163372168Y-70776912D01*
X163435000Y-70461033D01*
X163435000Y-70138967D01*
X163372168Y-69823088D01*
X163248918Y-69525537D01*
X163069987Y-69257748D01*
X162842252Y-69030013D01*
X162574463Y-68851082D01*
X162276912Y-68727832D01*
X161961033Y-68665000D01*
X161638967Y-68665000D01*
X161323088Y-68727832D01*
X161025537Y-68851082D01*
X160757748Y-69030013D01*
X160530013Y-69257748D01*
X160351082Y-69525537D01*
X160227832Y-69823088D01*
X160165000Y-70138967D01*
X156935000Y-70138967D01*
X156872168Y-69823088D01*
X156748918Y-69525537D01*
X156569987Y-69257748D01*
X156342252Y-69030013D01*
X156074463Y-68851082D01*
X155776912Y-68727832D01*
X155461033Y-68665000D01*
X155138967Y-68665000D01*
X154823088Y-68727832D01*
X154525537Y-68851082D01*
X154257748Y-69030013D01*
X154030013Y-69257748D01*
X153851082Y-69525537D01*
X153727832Y-69823088D01*
X153665000Y-70138967D01*
X150710562Y-70138967D01*
X150753346Y-70035679D01*
X150845000Y-69574902D01*
X150845000Y-69105098D01*
X150753346Y-68644321D01*
X150573560Y-68210279D01*
X150312550Y-67819651D01*
X149980349Y-67487450D01*
X149589721Y-67226440D01*
X149155679Y-67046654D01*
X148694902Y-66955000D01*
X148225098Y-66955000D01*
X147764321Y-67046654D01*
X147330279Y-67226440D01*
X146939651Y-67487450D01*
X146607450Y-67819651D01*
X146346440Y-68210279D01*
X146166654Y-68644321D01*
X146075000Y-69105098D01*
X133323219Y-69105098D01*
X133390563Y-68967020D01*
X133319571Y-68748906D01*
X133175969Y-68473077D01*
X133062781Y-68332059D01*
X133154494Y-68283037D01*
X133251185Y-68203685D01*
X133330537Y-68106994D01*
X133389502Y-67996680D01*
X133425812Y-67876982D01*
X133438072Y-67752500D01*
X133438072Y-66935413D01*
X154344192Y-66935413D01*
X154439956Y-67199814D01*
X154729571Y-67340704D01*
X155041108Y-67422384D01*
X155362595Y-67441718D01*
X155681675Y-67397961D01*
X155986088Y-67292795D01*
X156160044Y-67199814D01*
X156255808Y-66935413D01*
X160844192Y-66935413D01*
X160939956Y-67199814D01*
X161229571Y-67340704D01*
X161541108Y-67422384D01*
X161862595Y-67441718D01*
X162181675Y-67397961D01*
X162486088Y-67292795D01*
X162660044Y-67199814D01*
X162755808Y-66935413D01*
X161800000Y-65979605D01*
X160844192Y-66935413D01*
X156255808Y-66935413D01*
X155300000Y-65979605D01*
X154344192Y-66935413D01*
X133438072Y-66935413D01*
X133438072Y-65862595D01*
X153658282Y-65862595D01*
X153702039Y-66181675D01*
X153807205Y-66486088D01*
X153900186Y-66660044D01*
X154164587Y-66755808D01*
X155120395Y-65800000D01*
X155479605Y-65800000D01*
X156435413Y-66755808D01*
X156699814Y-66660044D01*
X156840704Y-66370429D01*
X156922384Y-66058892D01*
X156934189Y-65862595D01*
X160158282Y-65862595D01*
X160202039Y-66181675D01*
X160307205Y-66486088D01*
X160400186Y-66660044D01*
X160664587Y-66755808D01*
X161620395Y-65800000D01*
X161979605Y-65800000D01*
X162935413Y-66755808D01*
X163199814Y-66660044D01*
X163340704Y-66370429D01*
X163422384Y-66058892D01*
X163441718Y-65737405D01*
X163397961Y-65418325D01*
X163292795Y-65113912D01*
X163199814Y-64939956D01*
X162935413Y-64844192D01*
X161979605Y-65800000D01*
X161620395Y-65800000D01*
X160664587Y-64844192D01*
X160400186Y-64939956D01*
X160259296Y-65229571D01*
X160177616Y-65541108D01*
X160158282Y-65862595D01*
X156934189Y-65862595D01*
X156941718Y-65737405D01*
X156897961Y-65418325D01*
X156792795Y-65113912D01*
X156699814Y-64939956D01*
X156435413Y-64844192D01*
X155479605Y-65800000D01*
X155120395Y-65800000D01*
X154164587Y-64844192D01*
X153900186Y-64939956D01*
X153759296Y-65229571D01*
X153677616Y-65541108D01*
X153658282Y-65862595D01*
X133438072Y-65862595D01*
X133438072Y-65847500D01*
X133425812Y-65723018D01*
X133389502Y-65603320D01*
X133330537Y-65493006D01*
X133251185Y-65396315D01*
X133154494Y-65316963D01*
X133044180Y-65257998D01*
X132924482Y-65221688D01*
X132800000Y-65209428D01*
X130800000Y-65209428D01*
X130675518Y-65221688D01*
X130555820Y-65257998D01*
X130445506Y-65316963D01*
X130348815Y-65396315D01*
X130269463Y-65493006D01*
X130210498Y-65603320D01*
X130174188Y-65723018D01*
X130161928Y-65847500D01*
X126832633Y-65847500D01*
X126850134Y-65821308D01*
X126939461Y-65605652D01*
X126985000Y-65376712D01*
X126985000Y-65143288D01*
X126939461Y-64914348D01*
X126850134Y-64698692D01*
X126827346Y-64664587D01*
X154344192Y-64664587D01*
X155300000Y-65620395D01*
X156255808Y-64664587D01*
X160844192Y-64664587D01*
X161800000Y-65620395D01*
X162755808Y-64664587D01*
X162660044Y-64400186D01*
X162370429Y-64259296D01*
X162058892Y-64177616D01*
X161737405Y-64158282D01*
X161418325Y-64202039D01*
X161113912Y-64307205D01*
X160939956Y-64400186D01*
X160844192Y-64664587D01*
X156255808Y-64664587D01*
X156160044Y-64400186D01*
X155870429Y-64259296D01*
X155558892Y-64177616D01*
X155237405Y-64158282D01*
X154918325Y-64202039D01*
X154613912Y-64307205D01*
X154439956Y-64400186D01*
X154344192Y-64664587D01*
X126827346Y-64664587D01*
X126720450Y-64504606D01*
X126555394Y-64339550D01*
X126361308Y-64209866D01*
X126145652Y-64120539D01*
X125916712Y-64075000D01*
X125683288Y-64075000D01*
X125454348Y-64120539D01*
X125238692Y-64209866D01*
X125044606Y-64339550D01*
X124879550Y-64504606D01*
X124749866Y-64698692D01*
X124660539Y-64914348D01*
X124615000Y-65143288D01*
X124615000Y-65376712D01*
X124660539Y-65605652D01*
X124749866Y-65821308D01*
X124879550Y-66015394D01*
X124926940Y-66062784D01*
X124700000Y-66061928D01*
X124575518Y-66074188D01*
X124455820Y-66110498D01*
X124345506Y-66169463D01*
X124248815Y-66248815D01*
X124182443Y-66329690D01*
X124081831Y-66262463D01*
X123965048Y-66214090D01*
X124015394Y-66180450D01*
X124180450Y-66015394D01*
X124310134Y-65821308D01*
X124399461Y-65605652D01*
X124445000Y-65376712D01*
X124445000Y-65143288D01*
X124399461Y-64914348D01*
X124310134Y-64698692D01*
X124180450Y-64504606D01*
X124015394Y-64339550D01*
X123821308Y-64209866D01*
X123605652Y-64120539D01*
X123376712Y-64075000D01*
X123143288Y-64075000D01*
X122914348Y-64120539D01*
X122698692Y-64209866D01*
X122504606Y-64339550D01*
X122339550Y-64504606D01*
X122209866Y-64698692D01*
X122120539Y-64914348D01*
X122075000Y-65143288D01*
X122075000Y-65376712D01*
X122120539Y-65605652D01*
X122209866Y-65821308D01*
X122339550Y-66015394D01*
X122504606Y-66180450D01*
X122554952Y-66214090D01*
X122438169Y-66262463D01*
X122154002Y-66452337D01*
X121912337Y-66694002D01*
X121722463Y-66978169D01*
X121591675Y-67293919D01*
X121525000Y-67629117D01*
X117485000Y-67629117D01*
X117485000Y-63833505D01*
X117532312Y-63350984D01*
X117662714Y-62919070D01*
X117874524Y-62520715D01*
X118159675Y-62171086D01*
X118507303Y-61883503D01*
X118904177Y-61668914D01*
X119335161Y-61535502D01*
X119815654Y-61485000D01*
X163766495Y-61485000D01*
X164249016Y-61532312D01*
%TA.AperFunction,Conductor*%
D30*
G36*
X164249016Y-61532312D02*
G01*
X164680930Y-61662714D01*
X165079285Y-61874524D01*
X165428914Y-62159675D01*
X165716497Y-62507303D01*
X165931086Y-62904177D01*
X166064498Y-63335161D01*
X166115000Y-63815654D01*
X166115001Y-112766485D01*
X166067688Y-113249016D01*
X165937287Y-113680927D01*
X165725480Y-114079280D01*
X165440325Y-114428914D01*
X165092697Y-114716497D01*
X164695825Y-114931085D01*
X164264834Y-115064500D01*
X163784346Y-115115000D01*
X119833504Y-115115000D01*
X119350984Y-115067688D01*
X118919073Y-114937287D01*
X118520720Y-114725480D01*
X118171086Y-114440325D01*
X117883503Y-114092697D01*
X117668915Y-113695825D01*
X117535500Y-113264834D01*
X117485000Y-112784346D01*
X117485000Y-111886712D01*
X121972893Y-111886712D01*
X122080726Y-112161338D01*
X122387384Y-112312216D01*
X122717585Y-112400369D01*
X123058639Y-112422409D01*
X123397439Y-112377489D01*
X123720966Y-112267336D01*
X123919274Y-112161338D01*
X124027107Y-111886712D01*
X123000000Y-110859605D01*
X121972893Y-111886712D01*
X117485000Y-111886712D01*
X117485000Y-110563288D01*
X119275000Y-110563288D01*
X119275000Y-110796712D01*
X119320539Y-111025652D01*
X119409866Y-111241308D01*
X119539550Y-111435394D01*
X119704606Y-111600450D01*
X119898692Y-111730134D01*
X120114348Y-111819461D01*
X120343288Y-111865000D01*
X120576712Y-111865000D01*
X120805652Y-111819461D01*
X121021308Y-111730134D01*
X121215394Y-111600450D01*
X121380450Y-111435394D01*
X121409555Y-111391835D01*
X121412664Y-111400966D01*
X121518662Y-111599274D01*
X121793288Y-111707107D01*
X122820395Y-110680000D01*
X123179605Y-110680000D01*
X124206712Y-111707107D01*
X124481338Y-111599274D01*
X124550518Y-111458665D01*
X133365000Y-111458665D01*
X133365000Y-111741335D01*
X133420147Y-112018574D01*
X133528320Y-112279727D01*
X133685363Y-112514759D01*
X133885241Y-112714637D01*
X134120273Y-112871680D01*
X134381426Y-112979853D01*
X134658665Y-113035000D01*
X134941335Y-113035000D01*
X135218574Y-112979853D01*
X135479727Y-112871680D01*
X135714759Y-112714637D01*
X135914637Y-112514759D01*
X136071680Y-112279727D01*
X136179853Y-112018574D01*
X136235000Y-111741335D01*
X136235000Y-111458665D01*
X138365000Y-111458665D01*
X138365000Y-111741335D01*
X138420147Y-112018574D01*
X138528320Y-112279727D01*
X138685363Y-112514759D01*
X138885241Y-112714637D01*
X139120273Y-112871680D01*
X139381426Y-112979853D01*
X139658665Y-113035000D01*
X139941335Y-113035000D01*
X140218574Y-112979853D01*
X140479727Y-112871680D01*
X140714759Y-112714637D01*
X140914637Y-112514759D01*
X141071680Y-112279727D01*
X141179853Y-112018574D01*
X141235000Y-111741335D01*
X141235000Y-111458665D01*
X143365000Y-111458665D01*
X143365000Y-111741335D01*
X143420147Y-112018574D01*
X143528320Y-112279727D01*
X143685363Y-112514759D01*
X143885241Y-112714637D01*
X144120273Y-112871680D01*
X144381426Y-112979853D01*
X144658665Y-113035000D01*
X144941335Y-113035000D01*
X145218574Y-112979853D01*
X145479727Y-112871680D01*
X145714759Y-112714637D01*
X145914637Y-112514759D01*
X146071680Y-112279727D01*
X146179853Y-112018574D01*
X146235000Y-111741335D01*
X146235000Y-111458665D01*
X148365000Y-111458665D01*
X148365000Y-111741335D01*
X148420147Y-112018574D01*
X148528320Y-112279727D01*
X148685363Y-112514759D01*
X148885241Y-112714637D01*
X149120273Y-112871680D01*
X149381426Y-112979853D01*
X149658665Y-113035000D01*
X149941335Y-113035000D01*
X150218574Y-112979853D01*
X150479727Y-112871680D01*
X150597926Y-112792702D01*
X155986903Y-112792702D01*
X156058486Y-113036671D01*
X156313996Y-113157571D01*
X156588184Y-113226300D01*
X156870512Y-113240217D01*
X157150130Y-113198787D01*
X157416292Y-113103603D01*
X157541514Y-113036671D01*
X157613097Y-112792702D01*
X156800000Y-111979605D01*
X155986903Y-112792702D01*
X150597926Y-112792702D01*
X150714759Y-112714637D01*
X150914637Y-112514759D01*
X151071680Y-112279727D01*
X151179853Y-112018574D01*
X151209304Y-111870512D01*
X155359783Y-111870512D01*
X155401213Y-112150130D01*
X155496397Y-112416292D01*
X155563329Y-112541514D01*
X155807298Y-112613097D01*
X156620395Y-111800000D01*
X156979605Y-111800000D01*
X157792702Y-112613097D01*
X158036671Y-112541514D01*
X158157571Y-112286004D01*
X158226300Y-112011816D01*
X158240217Y-111729488D01*
X158198787Y-111449870D01*
X158103603Y-111183708D01*
X158036671Y-111058486D01*
X157792702Y-110986903D01*
X156979605Y-111800000D01*
X156620395Y-111800000D01*
X155807298Y-110986903D01*
X155563329Y-111058486D01*
X155442429Y-111313996D01*
X155373700Y-111588184D01*
X155359783Y-111870512D01*
X151209304Y-111870512D01*
X151235000Y-111741335D01*
X151235000Y-111458665D01*
X151179853Y-111181426D01*
X151071680Y-110920273D01*
X150996193Y-110807298D01*
X155986903Y-110807298D01*
X156800000Y-111620395D01*
X157613097Y-110807298D01*
X157541514Y-110563329D01*
X157286004Y-110442429D01*
X157011816Y-110373700D01*
X156729488Y-110359783D01*
X156449870Y-110401213D01*
X156183708Y-110496397D01*
X156058486Y-110563329D01*
X155986903Y-110807298D01*
X150996193Y-110807298D01*
X150914637Y-110685241D01*
X150714759Y-110485363D01*
X150479727Y-110328320D01*
X150218574Y-110220147D01*
X149941335Y-110165000D01*
X149658665Y-110165000D01*
X149381426Y-110220147D01*
X149120273Y-110328320D01*
X148885241Y-110485363D01*
X148685363Y-110685241D01*
X148528320Y-110920273D01*
X148420147Y-111181426D01*
X148365000Y-111458665D01*
X146235000Y-111458665D01*
X146179853Y-111181426D01*
X146071680Y-110920273D01*
X145914637Y-110685241D01*
X145714759Y-110485363D01*
X145479727Y-110328320D01*
X145218574Y-110220147D01*
X144941335Y-110165000D01*
X144658665Y-110165000D01*
X144381426Y-110220147D01*
X144120273Y-110328320D01*
X143885241Y-110485363D01*
X143685363Y-110685241D01*
X143528320Y-110920273D01*
X143420147Y-111181426D01*
X143365000Y-111458665D01*
X141235000Y-111458665D01*
X141179853Y-111181426D01*
X141071680Y-110920273D01*
X140914637Y-110685241D01*
X140714759Y-110485363D01*
X140479727Y-110328320D01*
X140218574Y-110220147D01*
X139941335Y-110165000D01*
X139658665Y-110165000D01*
X139381426Y-110220147D01*
X139120273Y-110328320D01*
X138885241Y-110485363D01*
X138685363Y-110685241D01*
X138528320Y-110920273D01*
X138420147Y-111181426D01*
X138365000Y-111458665D01*
X136235000Y-111458665D01*
X136179853Y-111181426D01*
X136071680Y-110920273D01*
X135914637Y-110685241D01*
X135714759Y-110485363D01*
X135479727Y-110328320D01*
X135218574Y-110220147D01*
X134941335Y-110165000D01*
X134658665Y-110165000D01*
X134381426Y-110220147D01*
X134120273Y-110328320D01*
X133885241Y-110485363D01*
X133685363Y-110685241D01*
X133528320Y-110920273D01*
X133420147Y-111181426D01*
X133365000Y-111458665D01*
X124550518Y-111458665D01*
X124632216Y-111292616D01*
X124720369Y-110962415D01*
X124742409Y-110621361D01*
X124697489Y-110282561D01*
X124587336Y-109959034D01*
X124481338Y-109760726D01*
X124206712Y-109652893D01*
X123179605Y-110680000D01*
X122820395Y-110680000D01*
X121793288Y-109652893D01*
X121518662Y-109760726D01*
X121413613Y-109974238D01*
X121380450Y-109924606D01*
X121215394Y-109759550D01*
X121021308Y-109629866D01*
X120805652Y-109540539D01*
X120576712Y-109495000D01*
X120343288Y-109495000D01*
X120114348Y-109540539D01*
X119898692Y-109629866D01*
X119704606Y-109759550D01*
X119539550Y-109924606D01*
X119409866Y-110118692D01*
X119320539Y-110334348D01*
X119275000Y-110563288D01*
X117485000Y-110563288D01*
X117485000Y-105483288D01*
X119275000Y-105483288D01*
X119275000Y-105716712D01*
X119320539Y-105945652D01*
X119409866Y-106161308D01*
X119539550Y-106355394D01*
X119704606Y-106520450D01*
X119898692Y-106650134D01*
X120114348Y-106739461D01*
X120343288Y-106785000D01*
X120576712Y-106785000D01*
X120805652Y-106739461D01*
X121021308Y-106650134D01*
X121215394Y-106520450D01*
X121261928Y-106473916D01*
X121261928Y-106700000D01*
X121274188Y-106824482D01*
X121310498Y-106944180D01*
X121369463Y-107054494D01*
X121448815Y-107151185D01*
X121529690Y-107217557D01*
X121462463Y-107318169D01*
X121414090Y-107434952D01*
X121380450Y-107384606D01*
X121215394Y-107219550D01*
X121021308Y-107089866D01*
X120805652Y-107000539D01*
X120576712Y-106955000D01*
X120343288Y-106955000D01*
X120114348Y-107000539D01*
X119898692Y-107089866D01*
X119704606Y-107219550D01*
X119539550Y-107384606D01*
X119409866Y-107578692D01*
X119320539Y-107794348D01*
X119275000Y-108023288D01*
X119275000Y-108256712D01*
X119320539Y-108485652D01*
X119409866Y-108701308D01*
X119539550Y-108895394D01*
X119704606Y-109060450D01*
X119898692Y-109190134D01*
X120114348Y-109279461D01*
X120343288Y-109325000D01*
X120576712Y-109325000D01*
X120805652Y-109279461D01*
X121021308Y-109190134D01*
X121215394Y-109060450D01*
X121380450Y-108895394D01*
X121414090Y-108845048D01*
X121462463Y-108961831D01*
X121652337Y-109245998D01*
X121894002Y-109487663D01*
X122175074Y-109675469D01*
X123000000Y-110500395D01*
X123824926Y-109675469D01*
X124105998Y-109487663D01*
X124347663Y-109245998D01*
X124537537Y-108961831D01*
X124668325Y-108646081D01*
X124735000Y-108310883D01*
X124735000Y-107969117D01*
X124668325Y-107633919D01*
X124537537Y-107318169D01*
X124470310Y-107217557D01*
X124551185Y-107151185D01*
X124630537Y-107054494D01*
X124689502Y-106944180D01*
X124725812Y-106824482D01*
X124738072Y-106700000D01*
X124738072Y-104500000D01*
X124725812Y-104375518D01*
X124689502Y-104255820D01*
X124630537Y-104145506D01*
X124551185Y-104048815D01*
X124454494Y-103969463D01*
X124344180Y-103910498D01*
X124224482Y-103874188D01*
X124100000Y-103861928D01*
X121900000Y-103861928D01*
X121775518Y-103874188D01*
X121655820Y-103910498D01*
X121545506Y-103969463D01*
X121448815Y-104048815D01*
X121369463Y-104145506D01*
X121310498Y-104255820D01*
X121274188Y-104375518D01*
X121261928Y-104500000D01*
X121261928Y-104726084D01*
X121215394Y-104679550D01*
X121021308Y-104549866D01*
X120805652Y-104460539D01*
X120576712Y-104415000D01*
X120343288Y-104415000D01*
X120114348Y-104460539D01*
X119898692Y-104549866D01*
X119704606Y-104679550D01*
X119539550Y-104844606D01*
X119409866Y-105038692D01*
X119320539Y-105254348D01*
X119275000Y-105483288D01*
X117485000Y-105483288D01*
X117485000Y-95600000D01*
X128459836Y-95600000D01*
X128463401Y-95636193D01*
X128463400Y-99763817D01*
X128459836Y-99800000D01*
X128463400Y-99836183D01*
X128463400Y-99836185D01*
X128474058Y-99944398D01*
X128516178Y-100083248D01*
X128584576Y-100211212D01*
X128676625Y-100323374D01*
X128704732Y-100346441D01*
X132833559Y-104475269D01*
X132856625Y-104503375D01*
X132968787Y-104595424D01*
X133096751Y-104663822D01*
X133235601Y-104705942D01*
X133380000Y-104720164D01*
X133416186Y-104716600D01*
X133566321Y-104716600D01*
X133685363Y-104894759D01*
X133885241Y-105094637D01*
X134120273Y-105251680D01*
X134381426Y-105359853D01*
X134658665Y-105415000D01*
X134941335Y-105415000D01*
X135218574Y-105359853D01*
X135479727Y-105251680D01*
X135714759Y-105094637D01*
X135914637Y-104894759D01*
X136071680Y-104659727D01*
X136179853Y-104398574D01*
X136235000Y-104121335D01*
X136235000Y-103838665D01*
X136179853Y-103561426D01*
X136071680Y-103300273D01*
X135914637Y-103065241D01*
X135714759Y-102865363D01*
X135479727Y-102708320D01*
X135334619Y-102648214D01*
X135395226Y-102501898D01*
X135435000Y-102301939D01*
X135435000Y-102098061D01*
X135395226Y-101898102D01*
X135351974Y-101793683D01*
X138033559Y-104475269D01*
X138056625Y-104503375D01*
X138168787Y-104595424D01*
X138296751Y-104663822D01*
X138435601Y-104705942D01*
X138567907Y-104718973D01*
X138685363Y-104894759D01*
X138885241Y-105094637D01*
X139120273Y-105251680D01*
X139381426Y-105359853D01*
X139658665Y-105415000D01*
X139941335Y-105415000D01*
X140218574Y-105359853D01*
X140479727Y-105251680D01*
X140714759Y-105094637D01*
X140914637Y-104894759D01*
X141071680Y-104659727D01*
X141179853Y-104398574D01*
X141235000Y-104121335D01*
X141235000Y-103838665D01*
X143365000Y-103838665D01*
X143365000Y-104121335D01*
X143420147Y-104398574D01*
X143528320Y-104659727D01*
X143685363Y-104894759D01*
X143885241Y-105094637D01*
X144120273Y-105251680D01*
X144381426Y-105359853D01*
X144658665Y-105415000D01*
X144941335Y-105415000D01*
X145218574Y-105359853D01*
X145479727Y-105251680D01*
X145714759Y-105094637D01*
X145914637Y-104894759D01*
X146071680Y-104659727D01*
X146179853Y-104398574D01*
X146235000Y-104121335D01*
X146235000Y-103838665D01*
X148365000Y-103838665D01*
X148365000Y-104121335D01*
X148420147Y-104398574D01*
X148528320Y-104659727D01*
X148685363Y-104894759D01*
X148885241Y-105094637D01*
X149120273Y-105251680D01*
X149381426Y-105359853D01*
X149658665Y-105415000D01*
X149941335Y-105415000D01*
X150218574Y-105359853D01*
X150479727Y-105251680D01*
X150714759Y-105094637D01*
X150914637Y-104894759D01*
X151071680Y-104659727D01*
X151179853Y-104398574D01*
X151235000Y-104121335D01*
X151235000Y-103838665D01*
X151179853Y-103561426D01*
X151071680Y-103300273D01*
X150914637Y-103065241D01*
X150714759Y-102865363D01*
X150479727Y-102708320D01*
X150218574Y-102600147D01*
X149941335Y-102545000D01*
X149658665Y-102545000D01*
X149381426Y-102600147D01*
X149120273Y-102708320D01*
X148885241Y-102865363D01*
X148685363Y-103065241D01*
X148528320Y-103300273D01*
X148420147Y-103561426D01*
X148365000Y-103838665D01*
X146235000Y-103838665D01*
X146179853Y-103561426D01*
X146071680Y-103300273D01*
X145914637Y-103065241D01*
X145714759Y-102865363D01*
X145479727Y-102708320D01*
X145218574Y-102600147D01*
X144941335Y-102545000D01*
X144658665Y-102545000D01*
X144381426Y-102600147D01*
X144120273Y-102708320D01*
X143885241Y-102865363D01*
X143685363Y-103065241D01*
X143528320Y-103300273D01*
X143420147Y-103561426D01*
X143365000Y-103838665D01*
X141235000Y-103838665D01*
X141179853Y-103561426D01*
X141071680Y-103300273D01*
X140914637Y-103065241D01*
X140714759Y-102865363D01*
X140479727Y-102708320D01*
X140218574Y-102600147D01*
X139941335Y-102545000D01*
X139658665Y-102545000D01*
X139381426Y-102600147D01*
X139120273Y-102708320D01*
X138885241Y-102865363D01*
X138696157Y-103054447D01*
X135736600Y-100094891D01*
X135736600Y-97836186D01*
X135740164Y-97800000D01*
X135725942Y-97655601D01*
X135683822Y-97516751D01*
X135615424Y-97388787D01*
X135523375Y-97276625D01*
X135495269Y-97253559D01*
X134326445Y-96084736D01*
X134303375Y-96056625D01*
X134191213Y-95964576D01*
X134063249Y-95896178D01*
X133924399Y-95854058D01*
X133816186Y-95843400D01*
X133816183Y-95843400D01*
X133780000Y-95839836D01*
X133743817Y-95843400D01*
X133433409Y-95843400D01*
X133398932Y-95778899D01*
X133219608Y-95560392D01*
X133001101Y-95381068D01*
X132868142Y-95310000D01*
X133001101Y-95238932D01*
X133219608Y-95059608D01*
X133398932Y-94841101D01*
X133532182Y-94591808D01*
X133614236Y-94321309D01*
X133641943Y-94040000D01*
X133614236Y-93758691D01*
X133532182Y-93488192D01*
X133398932Y-93238899D01*
X133219608Y-93020392D01*
X133001101Y-92841068D01*
X132868142Y-92770000D01*
X133001101Y-92698932D01*
X133219608Y-92519608D01*
X133398932Y-92301101D01*
X133532182Y-92051808D01*
X133614236Y-91781309D01*
X133641943Y-91500000D01*
X133614236Y-91218691D01*
X133532182Y-90948192D01*
X133398932Y-90698899D01*
X133219608Y-90480392D01*
X133001101Y-90301068D01*
X132873259Y-90232735D01*
X133102839Y-90082601D01*
X133304500Y-89884895D01*
X133463715Y-89651646D01*
X133574367Y-89391818D01*
X133591904Y-89309039D01*
X133469915Y-89087000D01*
X131927000Y-89087000D01*
X131927000Y-89107000D01*
X131673000Y-89107000D01*
X131673000Y-89087000D01*
X130130085Y-89087000D01*
X130008096Y-89309039D01*
X130025633Y-89391818D01*
X130136285Y-89651646D01*
X130295500Y-89884895D01*
X130497161Y-90082601D01*
X130726741Y-90232735D01*
X130598899Y-90301068D01*
X130380392Y-90480392D01*
X130201068Y-90698899D01*
X130067818Y-90948192D01*
X129985764Y-91218691D01*
X129958057Y-91500000D01*
X129985764Y-91781309D01*
X130067818Y-92051808D01*
X130201068Y-92301101D01*
X130380392Y-92519608D01*
X130598899Y-92698932D01*
X130731858Y-92770000D01*
X130598899Y-92841068D01*
X130380392Y-93020392D01*
X130201068Y-93238899D01*
X130067818Y-93488192D01*
X129985764Y-93758691D01*
X129984252Y-93774038D01*
X128704732Y-95053559D01*
X128676626Y-95076625D01*
X128653560Y-95104731D01*
X128653558Y-95104733D01*
X128584576Y-95188788D01*
X128516178Y-95316753D01*
X128474059Y-95455602D01*
X128459836Y-95600000D01*
X117485000Y-95600000D01*
X117485000Y-89000000D01*
X121361928Y-89000000D01*
X121361928Y-90600000D01*
X121374188Y-90724482D01*
X121410498Y-90844180D01*
X121469463Y-90954494D01*
X121548815Y-91051185D01*
X121645506Y-91130537D01*
X121755820Y-91189502D01*
X121875518Y-91225812D01*
X122000000Y-91238072D01*
X123600000Y-91238072D01*
X123724482Y-91225812D01*
X123844180Y-91189502D01*
X123954494Y-91130537D01*
X124051185Y-91051185D01*
X124130537Y-90954494D01*
X124189502Y-90844180D01*
X124205117Y-90792702D01*
X124486903Y-90792702D01*
X124558486Y-91036671D01*
X124813996Y-91157571D01*
X125088184Y-91226300D01*
X125370512Y-91240217D01*
X125650130Y-91198787D01*
X125916292Y-91103603D01*
X126041514Y-91036671D01*
X126113097Y-90792702D01*
X125300000Y-89979605D01*
X124486903Y-90792702D01*
X124205117Y-90792702D01*
X124225812Y-90724482D01*
X124238072Y-90600000D01*
X124238072Y-90592785D01*
X124307298Y-90613097D01*
X125120395Y-89800000D01*
X125479605Y-89800000D01*
X126292702Y-90613097D01*
X126536671Y-90541514D01*
X126657571Y-90286004D01*
X126726300Y-90011816D01*
X126740217Y-89729488D01*
X126698787Y-89449870D01*
X126603603Y-89183708D01*
X126536671Y-89058486D01*
X126292702Y-88986903D01*
X125479605Y-89800000D01*
X125120395Y-89800000D01*
X124307298Y-88986903D01*
X124238072Y-89007215D01*
X124238072Y-89000000D01*
X124225812Y-88875518D01*
X124205118Y-88807298D01*
X124486903Y-88807298D01*
X125300000Y-89620395D01*
X126113097Y-88807298D01*
X126041514Y-88563329D01*
X125786004Y-88442429D01*
X125511816Y-88373700D01*
X125229488Y-88359783D01*
X124949870Y-88401213D01*
X124683708Y-88496397D01*
X124558486Y-88563329D01*
X124486903Y-88807298D01*
X124205118Y-88807298D01*
X124189502Y-88755820D01*
X124130537Y-88645506D01*
X124051185Y-88548815D01*
X123954494Y-88469463D01*
X123844180Y-88410498D01*
X123724482Y-88374188D01*
X123600000Y-88361928D01*
X122000000Y-88361928D01*
X121875518Y-88374188D01*
X121755820Y-88410498D01*
X121645506Y-88469463D01*
X121548815Y-88548815D01*
X121469463Y-88645506D01*
X121410498Y-88755820D01*
X121374188Y-88875518D01*
X121361928Y-89000000D01*
X117485000Y-89000000D01*
X117485000Y-82860000D01*
X121061928Y-82860000D01*
X121061928Y-85060000D01*
X121074188Y-85184482D01*
X121110498Y-85304180D01*
X121169463Y-85414494D01*
X121248815Y-85511185D01*
X121345506Y-85590537D01*
X121455820Y-85649502D01*
X121575518Y-85685812D01*
X121700000Y-85698072D01*
X123900000Y-85698072D01*
X124024482Y-85685812D01*
X124144180Y-85649502D01*
X124254494Y-85590537D01*
X124351185Y-85511185D01*
X124430537Y-85414494D01*
X124489502Y-85304180D01*
X124525812Y-85184482D01*
X124538072Y-85060000D01*
X124538072Y-82860000D01*
X124525812Y-82735518D01*
X124489502Y-82615820D01*
X124430537Y-82505506D01*
X124351185Y-82408815D01*
X124254494Y-82329463D01*
X124144180Y-82270498D01*
X124024482Y-82234188D01*
X123900000Y-82221928D01*
X121700000Y-82221928D01*
X121575518Y-82234188D01*
X121455820Y-82270498D01*
X121345506Y-82329463D01*
X121248815Y-82408815D01*
X121169463Y-82505506D01*
X121110498Y-82615820D01*
X121074188Y-82735518D01*
X121061928Y-82860000D01*
X117485000Y-82860000D01*
X117485000Y-81340000D01*
X129958057Y-81340000D01*
X129985764Y-81621309D01*
X130067818Y-81891808D01*
X130201068Y-82141101D01*
X130380392Y-82359608D01*
X130598899Y-82538932D01*
X130731858Y-82610000D01*
X130598899Y-82681068D01*
X130380392Y-82860392D01*
X130201068Y-83078899D01*
X130067818Y-83328192D01*
X129985764Y-83598691D01*
X129958057Y-83880000D01*
X129985764Y-84161309D01*
X130067818Y-84431808D01*
X130201068Y-84681101D01*
X130380392Y-84899608D01*
X130598899Y-85078932D01*
X130731858Y-85150000D01*
X130598899Y-85221068D01*
X130380392Y-85400392D01*
X130201068Y-85618899D01*
X130067818Y-85868192D01*
X129985764Y-86138691D01*
X129958057Y-86420000D01*
X129985764Y-86701309D01*
X130067818Y-86971808D01*
X130201068Y-87221101D01*
X130380392Y-87439608D01*
X130598899Y-87618932D01*
X130726741Y-87687265D01*
X130497161Y-87837399D01*
X130295500Y-88035105D01*
X130136285Y-88268354D01*
X130025633Y-88528182D01*
X130008096Y-88610961D01*
X130130085Y-88833000D01*
X131673000Y-88833000D01*
X131673000Y-88813000D01*
X131927000Y-88813000D01*
X131927000Y-88833000D01*
X133469915Y-88833000D01*
X133591904Y-88610961D01*
X133574367Y-88528182D01*
X133463715Y-88268354D01*
X133304500Y-88035105D01*
X133102839Y-87837399D01*
X132873259Y-87687265D01*
X133001101Y-87618932D01*
X133219608Y-87439608D01*
X133398932Y-87221101D01*
X133532182Y-86971808D01*
X133614236Y-86701309D01*
X133641943Y-86420000D01*
X133614236Y-86138691D01*
X133532182Y-85868192D01*
X133398932Y-85618899D01*
X133219608Y-85400392D01*
X133001101Y-85221068D01*
X132868142Y-85150000D01*
X133001101Y-85078932D01*
X133219608Y-84899608D01*
X133398932Y-84681101D01*
X133532182Y-84431808D01*
X133614236Y-84161309D01*
X133641943Y-83880000D01*
X133614236Y-83598691D01*
X133532182Y-83328192D01*
X133398932Y-83078899D01*
X133219608Y-82860392D01*
X133001101Y-82681068D01*
X132868142Y-82610000D01*
X133001101Y-82538932D01*
X133219608Y-82359608D01*
X133398932Y-82141101D01*
X133532182Y-81891808D01*
X133614236Y-81621309D01*
X133641943Y-81340000D01*
X133614236Y-81058691D01*
X133532182Y-80788192D01*
X133398932Y-80538899D01*
X133219608Y-80320392D01*
X133106518Y-80227581D01*
X133124482Y-80225812D01*
X133244180Y-80189502D01*
X133354494Y-80130537D01*
X133451185Y-80051185D01*
X133530537Y-79954494D01*
X133589502Y-79844180D01*
X133625812Y-79724482D01*
X133638072Y-79600000D01*
X133638072Y-78000000D01*
X133625812Y-77875518D01*
X133589502Y-77755820D01*
X133530537Y-77645506D01*
X133451185Y-77548815D01*
X133354494Y-77469463D01*
X133244180Y-77410498D01*
X133124482Y-77374188D01*
X133000000Y-77361928D01*
X130600000Y-77361928D01*
X130475518Y-77374188D01*
X130355820Y-77410498D01*
X130245506Y-77469463D01*
X130148815Y-77548815D01*
X130069463Y-77645506D01*
X130010498Y-77755820D01*
X129974188Y-77875518D01*
X129961928Y-78000000D01*
X129961928Y-79600000D01*
X129974188Y-79724482D01*
X130010498Y-79844180D01*
X130069463Y-79954494D01*
X130148815Y-80051185D01*
X130245506Y-80130537D01*
X130355820Y-80189502D01*
X130475518Y-80225812D01*
X130493482Y-80227581D01*
X130380392Y-80320392D01*
X130201068Y-80538899D01*
X130067818Y-80788192D01*
X129985764Y-81058691D01*
X129958057Y-81340000D01*
X117485000Y-81340000D01*
X117485000Y-78658665D01*
X125365000Y-78658665D01*
X125365000Y-78941335D01*
X125420147Y-79218574D01*
X125528320Y-79479727D01*
X125685363Y-79714759D01*
X125885241Y-79914637D01*
X126120273Y-80071680D01*
X126381426Y-80179853D01*
X126658665Y-80235000D01*
X126941335Y-80235000D01*
X127218574Y-80179853D01*
X127479727Y-80071680D01*
X127714759Y-79914637D01*
X127914637Y-79714759D01*
X128071680Y-79479727D01*
X128179853Y-79218574D01*
X128235000Y-78941335D01*
X128235000Y-78658665D01*
X128193197Y-78448512D01*
X129495273Y-77146437D01*
X129523374Y-77123375D01*
X129546437Y-77095273D01*
X129546442Y-77095268D01*
X129615424Y-77011213D01*
X129621417Y-77000000D01*
X129683822Y-76883249D01*
X129725942Y-76744399D01*
X129736600Y-76636186D01*
X129736600Y-76636185D01*
X129740164Y-76600000D01*
X129736600Y-76563814D01*
X129736600Y-73305109D01*
X130373669Y-72668041D01*
X130426155Y-72766235D01*
X130624537Y-73007963D01*
X130866265Y-73206345D01*
X131142051Y-73353755D01*
X131441296Y-73444530D01*
X131674514Y-73467500D01*
X131925486Y-73467500D01*
X132158704Y-73444530D01*
X132457949Y-73353755D01*
X132733735Y-73206345D01*
X132966888Y-73015000D01*
X134809869Y-73015000D01*
X135865000Y-74070132D01*
X135865000Y-74855751D01*
X135865001Y-74855761D01*
X135865000Y-87344248D01*
X135859509Y-87400000D01*
X135865000Y-87455751D01*
X135881423Y-87622498D01*
X135946324Y-87836446D01*
X136051716Y-88033623D01*
X136193551Y-88206449D01*
X136236865Y-88241996D01*
X137718009Y-89723140D01*
X137753551Y-89766449D01*
X137926377Y-89908284D01*
X137953955Y-89923025D01*
X138000392Y-89979608D01*
X138218899Y-90158932D01*
X138351858Y-90230000D01*
X138218899Y-90301068D01*
X138000392Y-90480392D01*
X137821068Y-90698899D01*
X137687818Y-90948192D01*
X137605764Y-91218691D01*
X137578057Y-91500000D01*
X137605764Y-91781309D01*
X137687818Y-92051808D01*
X137821068Y-92301101D01*
X138000392Y-92519608D01*
X138218899Y-92698932D01*
X138351858Y-92770000D01*
X138218899Y-92841068D01*
X138000392Y-93020392D01*
X137821068Y-93238899D01*
X137687818Y-93488192D01*
X137605764Y-93758691D01*
X137578057Y-94040000D01*
X137605764Y-94321309D01*
X137687818Y-94591808D01*
X137821068Y-94841101D01*
X138000392Y-95059608D01*
X138218899Y-95238932D01*
X138351858Y-95310000D01*
X138218899Y-95381068D01*
X138000392Y-95560392D01*
X137821068Y-95778899D01*
X137687818Y-96028192D01*
X137605764Y-96298691D01*
X137578057Y-96580000D01*
X137605764Y-96861309D01*
X137687818Y-97131808D01*
X137821068Y-97381101D01*
X138000392Y-97599608D01*
X138218899Y-97778932D01*
X138351858Y-97850000D01*
X138218899Y-97921068D01*
X138000392Y-98100392D01*
X137821068Y-98318899D01*
X137687818Y-98568192D01*
X137605764Y-98838691D01*
X137578057Y-99120000D01*
X137605764Y-99401309D01*
X137687818Y-99671808D01*
X137821068Y-99921101D01*
X138000392Y-100139608D01*
X138218899Y-100318932D01*
X138468192Y-100452182D01*
X138738691Y-100534236D01*
X138949508Y-100555000D01*
X139890492Y-100555000D01*
X140101309Y-100534236D01*
X140371808Y-100452182D01*
X140621101Y-100318932D01*
X140839608Y-100139608D01*
X141018932Y-99921101D01*
X141152182Y-99671808D01*
X141234236Y-99401309D01*
X141261943Y-99120000D01*
X141234236Y-98838691D01*
X141152182Y-98568192D01*
X141018932Y-98318899D01*
X140839608Y-98100392D01*
X140621101Y-97921068D01*
X140488142Y-97850000D01*
X140621101Y-97778932D01*
X140839608Y-97599608D01*
X141018932Y-97381101D01*
X141152182Y-97131808D01*
X141234236Y-96861309D01*
X141261943Y-96580000D01*
X141234236Y-96298691D01*
X141152182Y-96028192D01*
X141018932Y-95778899D01*
X140839608Y-95560392D01*
X140621101Y-95381068D01*
X140488142Y-95310000D01*
X140621101Y-95238932D01*
X140839608Y-95059608D01*
X140919973Y-94961682D01*
X148253557Y-102295267D01*
X148276625Y-102323375D01*
X148388787Y-102415424D01*
X148516751Y-102483822D01*
X148655601Y-102525942D01*
X148763814Y-102536600D01*
X148763823Y-102536600D01*
X148799999Y-102540163D01*
X148836175Y-102536600D01*
X153994891Y-102536600D01*
X156823290Y-105365000D01*
X156658665Y-105365000D01*
X156381426Y-105420147D01*
X156120273Y-105528320D01*
X155885241Y-105685363D01*
X155685363Y-105885241D01*
X155528320Y-106120273D01*
X155420147Y-106381426D01*
X155365000Y-106658665D01*
X155365000Y-106941335D01*
X155420147Y-107218574D01*
X155528320Y-107479727D01*
X155685363Y-107714759D01*
X155885241Y-107914637D01*
X156120273Y-108071680D01*
X156381426Y-108179853D01*
X156658665Y-108235000D01*
X156941335Y-108235000D01*
X157218574Y-108179853D01*
X157479727Y-108071680D01*
X157714759Y-107914637D01*
X157914637Y-107714759D01*
X158071680Y-107479727D01*
X158179853Y-107218574D01*
X158235000Y-106941335D01*
X158235000Y-106776710D01*
X159263400Y-107805110D01*
X159263401Y-109123807D01*
X159259836Y-109160000D01*
X159274059Y-109304398D01*
X159316178Y-109443247D01*
X159363654Y-109532068D01*
X159384577Y-109571213D01*
X159476626Y-109683375D01*
X159504732Y-109706441D01*
X160364281Y-110565990D01*
X160315000Y-110813740D01*
X160315000Y-111106260D01*
X160372068Y-111393158D01*
X160484010Y-111663411D01*
X160646525Y-111906632D01*
X160853368Y-112113475D01*
X161096589Y-112275990D01*
X161366842Y-112387932D01*
X161653740Y-112445000D01*
X161946260Y-112445000D01*
X162233158Y-112387932D01*
X162503411Y-112275990D01*
X162746632Y-112113475D01*
X162953475Y-111906632D01*
X163115990Y-111663411D01*
X163227932Y-111393158D01*
X163285000Y-111106260D01*
X163285000Y-110813740D01*
X163227932Y-110526842D01*
X163115990Y-110256589D01*
X162953475Y-110013368D01*
X162746632Y-109806525D01*
X162572240Y-109690000D01*
X162746632Y-109573475D01*
X162953475Y-109366632D01*
X163115990Y-109123411D01*
X163227932Y-108853158D01*
X163285000Y-108566260D01*
X163285000Y-108273740D01*
X163227932Y-107986842D01*
X163115990Y-107716589D01*
X162953475Y-107473368D01*
X162746632Y-107266525D01*
X162564466Y-107144805D01*
X162681355Y-107075178D01*
X162897588Y-106880269D01*
X163071641Y-106646920D01*
X163196825Y-106384099D01*
X163241476Y-106236890D01*
X163120155Y-106007000D01*
X161927000Y-106007000D01*
X161927000Y-106027000D01*
X161673000Y-106027000D01*
X161673000Y-106007000D01*
X160479845Y-106007000D01*
X160462181Y-106040471D01*
X155126446Y-100704737D01*
X155103375Y-100676625D01*
X154991213Y-100584576D01*
X154863249Y-100516178D01*
X154724399Y-100474058D01*
X154616186Y-100463400D01*
X154616183Y-100463400D01*
X154580000Y-100459836D01*
X154543817Y-100463400D01*
X149425110Y-100463400D01*
X143610526Y-94648816D01*
X154725000Y-94648816D01*
X154725000Y-94951184D01*
X154783989Y-95247743D01*
X154899701Y-95527095D01*
X155067688Y-95778505D01*
X155281495Y-95992312D01*
X155532905Y-96160299D01*
X155812257Y-96276011D01*
X156108816Y-96335000D01*
X156411184Y-96335000D01*
X156707743Y-96276011D01*
X156987095Y-96160299D01*
X157238505Y-95992312D01*
X157304944Y-95925873D01*
X157310498Y-95944180D01*
X157369463Y-96054494D01*
X157448815Y-96151185D01*
X157545506Y-96230537D01*
X157655820Y-96289502D01*
X157775518Y-96325812D01*
X157900000Y-96338072D01*
X158514250Y-96335000D01*
X158673000Y-96176250D01*
X158673000Y-94927000D01*
X158927000Y-94927000D01*
X158927000Y-96176250D01*
X159085750Y-96335000D01*
X159700000Y-96338072D01*
X159824482Y-96325812D01*
X159944180Y-96289502D01*
X160054494Y-96230537D01*
X160151185Y-96151185D01*
X160230537Y-96054494D01*
X160289502Y-95944180D01*
X160325812Y-95824482D01*
X160338072Y-95700000D01*
X160335000Y-95085750D01*
X160176250Y-94927000D01*
X158927000Y-94927000D01*
X158673000Y-94927000D01*
X158653000Y-94927000D01*
X158653000Y-94673000D01*
X158673000Y-94673000D01*
X158673000Y-93423750D01*
X158927000Y-93423750D01*
X158927000Y-94673000D01*
X160176250Y-94673000D01*
X160335000Y-94514250D01*
X160338072Y-93900000D01*
X160325812Y-93775518D01*
X160289502Y-93655820D01*
X160230537Y-93545506D01*
X160151185Y-93448815D01*
X160054494Y-93369463D01*
X159944180Y-93310498D01*
X159824482Y-93274188D01*
X159700000Y-93261928D01*
X159085750Y-93265000D01*
X158927000Y-93423750D01*
X158673000Y-93423750D01*
X158514250Y-93265000D01*
X157900000Y-93261928D01*
X157775518Y-93274188D01*
X157655820Y-93310498D01*
X157545506Y-93369463D01*
X157448815Y-93448815D01*
X157369463Y-93545506D01*
X157310498Y-93655820D01*
X157304944Y-93674127D01*
X157238505Y-93607688D01*
X156987095Y-93439701D01*
X156707743Y-93323989D01*
X156411184Y-93265000D01*
X156108816Y-93265000D01*
X155812257Y-93323989D01*
X155532905Y-93439701D01*
X155281495Y-93607688D01*
X155067688Y-93821495D01*
X154899701Y-94072905D01*
X154783989Y-94352257D01*
X154725000Y-94648816D01*
X143610526Y-94648816D01*
X141103881Y-92142172D01*
X141152182Y-92051808D01*
X141234236Y-91781309D01*
X141246315Y-91658665D01*
X148365000Y-91658665D01*
X148365000Y-91941335D01*
X148420147Y-92218574D01*
X148528320Y-92479727D01*
X148685363Y-92714759D01*
X148885241Y-92914637D01*
X149120273Y-93071680D01*
X149381426Y-93179853D01*
X149658665Y-93235000D01*
X149941335Y-93235000D01*
X150218574Y-93179853D01*
X150479727Y-93071680D01*
X150714759Y-92914637D01*
X150914637Y-92714759D01*
X151071680Y-92479727D01*
X151179853Y-92218574D01*
X151235000Y-91941335D01*
X151235000Y-91658665D01*
X151179853Y-91381426D01*
X151071680Y-91120273D01*
X150914637Y-90885241D01*
X150714759Y-90685363D01*
X150479727Y-90528320D01*
X150218574Y-90420147D01*
X149941335Y-90365000D01*
X149658665Y-90365000D01*
X149381426Y-90420147D01*
X149120273Y-90528320D01*
X148885241Y-90685363D01*
X148685363Y-90885241D01*
X148528320Y-91120273D01*
X148420147Y-91381426D01*
X148365000Y-91658665D01*
X141246315Y-91658665D01*
X141261943Y-91500000D01*
X141234236Y-91218691D01*
X141152182Y-90948192D01*
X141018932Y-90698899D01*
X140839608Y-90480392D01*
X140621101Y-90301068D01*
X140488142Y-90230000D01*
X140621101Y-90158932D01*
X140839608Y-89979608D01*
X141018932Y-89761101D01*
X141078949Y-89648816D01*
X154725000Y-89648816D01*
X154725000Y-89951184D01*
X154783989Y-90247743D01*
X154899701Y-90527095D01*
X155067688Y-90778505D01*
X155281495Y-90992312D01*
X155532905Y-91160299D01*
X155812257Y-91276011D01*
X156108816Y-91335000D01*
X156411184Y-91335000D01*
X156707743Y-91276011D01*
X156987095Y-91160299D01*
X157238505Y-90992312D01*
X157304944Y-90925873D01*
X157310498Y-90944180D01*
X157369463Y-91054494D01*
X157448815Y-91151185D01*
X157545506Y-91230537D01*
X157655820Y-91289502D01*
X157775518Y-91325812D01*
X157900000Y-91338072D01*
X158514250Y-91335000D01*
X158673000Y-91176250D01*
X158673000Y-89927000D01*
X158927000Y-89927000D01*
X158927000Y-91176250D01*
X159085750Y-91335000D01*
X159700000Y-91338072D01*
X159824482Y-91325812D01*
X159944180Y-91289502D01*
X160054494Y-91230537D01*
X160151185Y-91151185D01*
X160230537Y-91054494D01*
X160289502Y-90944180D01*
X160325812Y-90824482D01*
X160338072Y-90700000D01*
X160335000Y-90085750D01*
X160176250Y-89927000D01*
X158927000Y-89927000D01*
X158673000Y-89927000D01*
X158653000Y-89927000D01*
X158653000Y-89673000D01*
X158673000Y-89673000D01*
X158673000Y-88423750D01*
X158927000Y-88423750D01*
X158927000Y-89673000D01*
X160176250Y-89673000D01*
X160335000Y-89514250D01*
X160338072Y-88900000D01*
X160325812Y-88775518D01*
X160289502Y-88655820D01*
X160230537Y-88545506D01*
X160151185Y-88448815D01*
X160054494Y-88369463D01*
X159944180Y-88310498D01*
X159824482Y-88274188D01*
X159700000Y-88261928D01*
X159085750Y-88265000D01*
X158927000Y-88423750D01*
X158673000Y-88423750D01*
X158514250Y-88265000D01*
X157900000Y-88261928D01*
X157775518Y-88274188D01*
X157655820Y-88310498D01*
X157545506Y-88369463D01*
X157448815Y-88448815D01*
X157369463Y-88545506D01*
X157310498Y-88655820D01*
X157304944Y-88674127D01*
X157238505Y-88607688D01*
X156987095Y-88439701D01*
X156707743Y-88323989D01*
X156411184Y-88265000D01*
X156108816Y-88265000D01*
X155812257Y-88323989D01*
X155532905Y-88439701D01*
X155281495Y-88607688D01*
X155067688Y-88821495D01*
X154899701Y-89072905D01*
X154783989Y-89352257D01*
X154725000Y-89648816D01*
X141078949Y-89648816D01*
X141152182Y-89511808D01*
X141234236Y-89241309D01*
X141261943Y-88960000D01*
X141234236Y-88678691D01*
X141152182Y-88408192D01*
X141018932Y-88158899D01*
X140839608Y-87940392D01*
X140621101Y-87761068D01*
X140488142Y-87690000D01*
X140621101Y-87618932D01*
X140688536Y-87563589D01*
X143415000Y-87563589D01*
X143415000Y-87836411D01*
X143468225Y-88103989D01*
X143572629Y-88356043D01*
X143724201Y-88582886D01*
X143917114Y-88775799D01*
X144143957Y-88927371D01*
X144396011Y-89031775D01*
X144663589Y-89085000D01*
X144936411Y-89085000D01*
X145203989Y-89031775D01*
X145456043Y-88927371D01*
X145682886Y-88775799D01*
X145875799Y-88582886D01*
X146027371Y-88356043D01*
X146131775Y-88103989D01*
X146185000Y-87836411D01*
X146185000Y-87792702D01*
X148986903Y-87792702D01*
X149058486Y-88036671D01*
X149313996Y-88157571D01*
X149588184Y-88226300D01*
X149870512Y-88240217D01*
X150150130Y-88198787D01*
X150416292Y-88103603D01*
X150541514Y-88036671D01*
X150613097Y-87792702D01*
X149800000Y-86979605D01*
X148986903Y-87792702D01*
X146185000Y-87792702D01*
X146185000Y-87563589D01*
X146131775Y-87296011D01*
X146027371Y-87043957D01*
X145911479Y-86870512D01*
X148359783Y-86870512D01*
X148401213Y-87150130D01*
X148496397Y-87416292D01*
X148563329Y-87541514D01*
X148807298Y-87613097D01*
X149620395Y-86800000D01*
X149979605Y-86800000D01*
X150792702Y-87613097D01*
X151036671Y-87541514D01*
X151157571Y-87286004D01*
X151226300Y-87011816D01*
X151240217Y-86729488D01*
X151198787Y-86449870D01*
X151103603Y-86183708D01*
X151036671Y-86058486D01*
X150792702Y-85986903D01*
X149979605Y-86800000D01*
X149620395Y-86800000D01*
X148807298Y-85986903D01*
X148563329Y-86058486D01*
X148442429Y-86313996D01*
X148373700Y-86588184D01*
X148359783Y-86870512D01*
X145911479Y-86870512D01*
X145875799Y-86817114D01*
X145682886Y-86624201D01*
X145456043Y-86472629D01*
X145203989Y-86368225D01*
X144936411Y-86315000D01*
X144663589Y-86315000D01*
X144396011Y-86368225D01*
X144143957Y-86472629D01*
X143917114Y-86624201D01*
X143724201Y-86817114D01*
X143572629Y-87043957D01*
X143468225Y-87296011D01*
X143415000Y-87563589D01*
X140688536Y-87563589D01*
X140839608Y-87439608D01*
X141018932Y-87221101D01*
X141152182Y-86971808D01*
X141234236Y-86701309D01*
X141261943Y-86420000D01*
X141234236Y-86138691D01*
X141152182Y-85868192D01*
X141119634Y-85807298D01*
X148986903Y-85807298D01*
X149800000Y-86620395D01*
X150613097Y-85807298D01*
X150541514Y-85563329D01*
X150286004Y-85442429D01*
X150011816Y-85373700D01*
X149729488Y-85359783D01*
X149449870Y-85401213D01*
X149183708Y-85496397D01*
X149058486Y-85563329D01*
X148986903Y-85807298D01*
X141119634Y-85807298D01*
X141018932Y-85618899D01*
X140839608Y-85400392D01*
X140621101Y-85221068D01*
X140488142Y-85150000D01*
X140621101Y-85078932D01*
X140839608Y-84899608D01*
X140927343Y-84792702D01*
X148986903Y-84792702D01*
X149058486Y-85036671D01*
X149313996Y-85157571D01*
X149588184Y-85226300D01*
X149870512Y-85240217D01*
X150150130Y-85198787D01*
X150416292Y-85103603D01*
X150541514Y-85036671D01*
X150613097Y-84792702D01*
X150469211Y-84648816D01*
X154725000Y-84648816D01*
X154725000Y-84951184D01*
X154783989Y-85247743D01*
X154899701Y-85527095D01*
X155067688Y-85778505D01*
X155281495Y-85992312D01*
X155532905Y-86160299D01*
X155812257Y-86276011D01*
X156108816Y-86335000D01*
X156411184Y-86335000D01*
X156707743Y-86276011D01*
X156987095Y-86160299D01*
X157238505Y-85992312D01*
X157304944Y-85925873D01*
X157310498Y-85944180D01*
X157369463Y-86054494D01*
X157448815Y-86151185D01*
X157545506Y-86230537D01*
X157655820Y-86289502D01*
X157775518Y-86325812D01*
X157900000Y-86338072D01*
X158514250Y-86335000D01*
X158673000Y-86176250D01*
X158673000Y-84927000D01*
X158927000Y-84927000D01*
X158927000Y-86176250D01*
X159085750Y-86335000D01*
X159700000Y-86338072D01*
X159824482Y-86325812D01*
X159944180Y-86289502D01*
X160054494Y-86230537D01*
X160151185Y-86151185D01*
X160230537Y-86054494D01*
X160289502Y-85944180D01*
X160325812Y-85824482D01*
X160338072Y-85700000D01*
X160335000Y-85085750D01*
X160176250Y-84927000D01*
X158927000Y-84927000D01*
X158673000Y-84927000D01*
X158653000Y-84927000D01*
X158653000Y-84673000D01*
X158673000Y-84673000D01*
X158673000Y-83423750D01*
X158927000Y-83423750D01*
X158927000Y-84673000D01*
X160176250Y-84673000D01*
X160335000Y-84514250D01*
X160338072Y-83900000D01*
X160325812Y-83775518D01*
X160289502Y-83655820D01*
X160230537Y-83545506D01*
X160151185Y-83448815D01*
X160054494Y-83369463D01*
X159944180Y-83310498D01*
X159824482Y-83274188D01*
X159700000Y-83261928D01*
X159085750Y-83265000D01*
X158927000Y-83423750D01*
X158673000Y-83423750D01*
X158514250Y-83265000D01*
X157900000Y-83261928D01*
X157775518Y-83274188D01*
X157655820Y-83310498D01*
X157545506Y-83369463D01*
X157448815Y-83448815D01*
X157369463Y-83545506D01*
X157310498Y-83655820D01*
X157304944Y-83674127D01*
X157238505Y-83607688D01*
X156987095Y-83439701D01*
X156707743Y-83323989D01*
X156411184Y-83265000D01*
X156108816Y-83265000D01*
X155812257Y-83323989D01*
X155532905Y-83439701D01*
X155281495Y-83607688D01*
X155067688Y-83821495D01*
X154899701Y-84072905D01*
X154783989Y-84352257D01*
X154725000Y-84648816D01*
X150469211Y-84648816D01*
X149800000Y-83979605D01*
X148986903Y-84792702D01*
X140927343Y-84792702D01*
X141018932Y-84681101D01*
X141152182Y-84431808D01*
X141234236Y-84161309D01*
X141261943Y-83880000D01*
X141234236Y-83598691D01*
X141152182Y-83328192D01*
X141018932Y-83078899D01*
X140839608Y-82860392D01*
X140621101Y-82681068D01*
X140588401Y-82663589D01*
X143415000Y-82663589D01*
X143415000Y-82936411D01*
X143468225Y-83203989D01*
X143572629Y-83456043D01*
X143724201Y-83682886D01*
X143917114Y-83875799D01*
X144143957Y-84027371D01*
X144396011Y-84131775D01*
X144663589Y-84185000D01*
X144936411Y-84185000D01*
X145203989Y-84131775D01*
X145456043Y-84027371D01*
X145682886Y-83875799D01*
X145688173Y-83870512D01*
X148359783Y-83870512D01*
X148401213Y-84150130D01*
X148496397Y-84416292D01*
X148563329Y-84541514D01*
X148807298Y-84613097D01*
X149620395Y-83800000D01*
X149979605Y-83800000D01*
X150792702Y-84613097D01*
X151036671Y-84541514D01*
X151157571Y-84286004D01*
X151226300Y-84011816D01*
X151240217Y-83729488D01*
X151198787Y-83449870D01*
X151103603Y-83183708D01*
X151036671Y-83058486D01*
X150792702Y-82986903D01*
X149979605Y-83800000D01*
X149620395Y-83800000D01*
X148807298Y-82986903D01*
X148563329Y-83058486D01*
X148442429Y-83313996D01*
X148373700Y-83588184D01*
X148359783Y-83870512D01*
X145688173Y-83870512D01*
X145875799Y-83682886D01*
X146027371Y-83456043D01*
X146131775Y-83203989D01*
X146185000Y-82936411D01*
X146185000Y-82807298D01*
X148986903Y-82807298D01*
X149800000Y-83620395D01*
X150613097Y-82807298D01*
X150541514Y-82563329D01*
X150286004Y-82442429D01*
X150011816Y-82373700D01*
X149729488Y-82359783D01*
X149449870Y-82401213D01*
X149183708Y-82496397D01*
X149058486Y-82563329D01*
X148986903Y-82807298D01*
X146185000Y-82807298D01*
X146185000Y-82663589D01*
X146131775Y-82396011D01*
X146027371Y-82143957D01*
X145875799Y-81917114D01*
X145682886Y-81724201D01*
X145456043Y-81572629D01*
X145203989Y-81468225D01*
X144936411Y-81415000D01*
X144663589Y-81415000D01*
X144396011Y-81468225D01*
X144143957Y-81572629D01*
X143917114Y-81724201D01*
X143724201Y-81917114D01*
X143572629Y-82143957D01*
X143468225Y-82396011D01*
X143415000Y-82663589D01*
X140588401Y-82663589D01*
X140488142Y-82610000D01*
X140621101Y-82538932D01*
X140839608Y-82359608D01*
X141018932Y-82141101D01*
X141152182Y-81891808D01*
X141234236Y-81621309D01*
X141261943Y-81340000D01*
X141234236Y-81058691D01*
X141152182Y-80788192D01*
X141018932Y-80538899D01*
X140839608Y-80320392D01*
X140621101Y-80141068D01*
X140488142Y-80070000D01*
X140621101Y-79998932D01*
X140839608Y-79819608D01*
X141018932Y-79601101D01*
X141152182Y-79351808D01*
X141234236Y-79081309D01*
X141261943Y-78800000D01*
X141248023Y-78658665D01*
X148365000Y-78658665D01*
X148365000Y-78941335D01*
X148420147Y-79218574D01*
X148528320Y-79479727D01*
X148685363Y-79714759D01*
X148885241Y-79914637D01*
X149120273Y-80071680D01*
X149381426Y-80179853D01*
X149658665Y-80235000D01*
X149941335Y-80235000D01*
X150218574Y-80179853D01*
X150479727Y-80071680D01*
X150714759Y-79914637D01*
X150914637Y-79714759D01*
X150958698Y-79648816D01*
X154725000Y-79648816D01*
X154725000Y-79951184D01*
X154783989Y-80247743D01*
X154899701Y-80527095D01*
X155067688Y-80778505D01*
X155281495Y-80992312D01*
X155532905Y-81160299D01*
X155812257Y-81276011D01*
X156108816Y-81335000D01*
X156411184Y-81335000D01*
X156707743Y-81276011D01*
X156987095Y-81160299D01*
X157238505Y-80992312D01*
X157304944Y-80925873D01*
X157310498Y-80944180D01*
X157369463Y-81054494D01*
X157448815Y-81151185D01*
X157545506Y-81230537D01*
X157655820Y-81289502D01*
X157775518Y-81325812D01*
X157900000Y-81338072D01*
X158514250Y-81335000D01*
X158673000Y-81176250D01*
X158673000Y-79927000D01*
X158927000Y-79927000D01*
X158927000Y-81176250D01*
X159085750Y-81335000D01*
X159700000Y-81338072D01*
X159824482Y-81325812D01*
X159944180Y-81289502D01*
X160054494Y-81230537D01*
X160151185Y-81151185D01*
X160230537Y-81054494D01*
X160289502Y-80944180D01*
X160325812Y-80824482D01*
X160338072Y-80700000D01*
X160335000Y-80085750D01*
X160176250Y-79927000D01*
X158927000Y-79927000D01*
X158673000Y-79927000D01*
X158653000Y-79927000D01*
X158653000Y-79673000D01*
X158673000Y-79673000D01*
X158673000Y-78423750D01*
X158927000Y-78423750D01*
X158927000Y-79673000D01*
X160176250Y-79673000D01*
X160335000Y-79514250D01*
X160338072Y-78900000D01*
X160325812Y-78775518D01*
X160289502Y-78655820D01*
X160230537Y-78545506D01*
X160151185Y-78448815D01*
X160054494Y-78369463D01*
X159944180Y-78310498D01*
X159824482Y-78274188D01*
X159700000Y-78261928D01*
X159085750Y-78265000D01*
X158927000Y-78423750D01*
X158673000Y-78423750D01*
X158514250Y-78265000D01*
X157900000Y-78261928D01*
X157775518Y-78274188D01*
X157655820Y-78310498D01*
X157545506Y-78369463D01*
X157448815Y-78448815D01*
X157369463Y-78545506D01*
X157310498Y-78655820D01*
X157304944Y-78674127D01*
X157238505Y-78607688D01*
X156987095Y-78439701D01*
X156707743Y-78323989D01*
X156411184Y-78265000D01*
X156108816Y-78265000D01*
X155812257Y-78323989D01*
X155532905Y-78439701D01*
X155281495Y-78607688D01*
X155067688Y-78821495D01*
X154899701Y-79072905D01*
X154783989Y-79352257D01*
X154725000Y-79648816D01*
X150958698Y-79648816D01*
X151071680Y-79479727D01*
X151179853Y-79218574D01*
X151235000Y-78941335D01*
X151235000Y-78658665D01*
X151179853Y-78381426D01*
X151071680Y-78120273D01*
X150914637Y-77885241D01*
X150714759Y-77685363D01*
X150479727Y-77528320D01*
X150218574Y-77420147D01*
X149941335Y-77365000D01*
X149658665Y-77365000D01*
X149381426Y-77420147D01*
X149120273Y-77528320D01*
X148885241Y-77685363D01*
X148685363Y-77885241D01*
X148528320Y-78120273D01*
X148420147Y-78381426D01*
X148365000Y-78658665D01*
X141248023Y-78658665D01*
X141234236Y-78518691D01*
X141152182Y-78248192D01*
X141018932Y-77998899D01*
X140839608Y-77780392D01*
X140621101Y-77601068D01*
X140371808Y-77467818D01*
X140101309Y-77385764D01*
X139890492Y-77365000D01*
X138949508Y-77365000D01*
X138738691Y-77385764D01*
X138468192Y-77467818D01*
X138218899Y-77601068D01*
X138135000Y-77669922D01*
X138135000Y-75536600D01*
X152946321Y-75536600D01*
X153065363Y-75714759D01*
X153265241Y-75914637D01*
X153500273Y-76071680D01*
X153761426Y-76179853D01*
X154038665Y-76235000D01*
X154321335Y-76235000D01*
X154531488Y-76193197D01*
X155833557Y-77495267D01*
X155856625Y-77523375D01*
X155968787Y-77615424D01*
X156096751Y-77683822D01*
X156235601Y-77725942D01*
X156380000Y-77740164D01*
X156416186Y-77736600D01*
X159894891Y-77736600D01*
X162218202Y-80059912D01*
X162218201Y-99311928D01*
X160950000Y-99311928D01*
X160825518Y-99324188D01*
X160705820Y-99360498D01*
X160595506Y-99419463D01*
X160498815Y-99498815D01*
X160419463Y-99595506D01*
X160360498Y-99705820D01*
X160324188Y-99825518D01*
X160311928Y-99950000D01*
X160311928Y-101650000D01*
X160324188Y-101774482D01*
X160360498Y-101894180D01*
X160419463Y-102004494D01*
X160498815Y-102101185D01*
X160595506Y-102180537D01*
X160705820Y-102239502D01*
X160778380Y-102261513D01*
X160646525Y-102393368D01*
X160484010Y-102636589D01*
X160372068Y-102906842D01*
X160315000Y-103193740D01*
X160315000Y-103486260D01*
X160372068Y-103773158D01*
X160484010Y-104043411D01*
X160646525Y-104286632D01*
X160853368Y-104493475D01*
X161035534Y-104615195D01*
X160918645Y-104684822D01*
X160702412Y-104879731D01*
X160528359Y-105113080D01*
X160403175Y-105375901D01*
X160358524Y-105523110D01*
X160479845Y-105753000D01*
X161673000Y-105753000D01*
X161673000Y-105733000D01*
X161927000Y-105733000D01*
X161927000Y-105753000D01*
X163120155Y-105753000D01*
X163241476Y-105523110D01*
X163196825Y-105375901D01*
X163071641Y-105113080D01*
X162897588Y-104879731D01*
X162681355Y-104684822D01*
X162564466Y-104615195D01*
X162746632Y-104493475D01*
X162953475Y-104286632D01*
X163115990Y-104043411D01*
X163227932Y-103773158D01*
X163285000Y-103486260D01*
X163285000Y-103193740D01*
X163235719Y-102945991D01*
X163450074Y-102731636D01*
X163478175Y-102708574D01*
X163501238Y-102680472D01*
X163501243Y-102680467D01*
X163570224Y-102596413D01*
X163570226Y-102596411D01*
X163638623Y-102468448D01*
X163680743Y-102329598D01*
X163691401Y-102221385D01*
X163691401Y-102221376D01*
X163694964Y-102185200D01*
X163691401Y-102149024D01*
X163691401Y-79790987D01*
X163694965Y-79754801D01*
X163680743Y-79610402D01*
X163638623Y-79471553D01*
X163638623Y-79471552D01*
X163570225Y-79343588D01*
X163478176Y-79231426D01*
X163450070Y-79208360D01*
X160746446Y-76504736D01*
X160723375Y-76476625D01*
X160611213Y-76384576D01*
X160483249Y-76316178D01*
X160344399Y-76274058D01*
X160236186Y-76263400D01*
X160236183Y-76263400D01*
X160200000Y-76259836D01*
X160163817Y-76263400D01*
X156685110Y-76263400D01*
X155573197Y-75151488D01*
X155615000Y-74941335D01*
X155615000Y-74658665D01*
X160365000Y-74658665D01*
X160365000Y-74941335D01*
X160420147Y-75218574D01*
X160528320Y-75479727D01*
X160685363Y-75714759D01*
X160885241Y-75914637D01*
X161120273Y-76071680D01*
X161381426Y-76179853D01*
X161658665Y-76235000D01*
X161941335Y-76235000D01*
X162218574Y-76179853D01*
X162479727Y-76071680D01*
X162714759Y-75914637D01*
X162914637Y-75714759D01*
X163071680Y-75479727D01*
X163179853Y-75218574D01*
X163235000Y-74941335D01*
X163235000Y-74658665D01*
X163179853Y-74381426D01*
X163071680Y-74120273D01*
X162914637Y-73885241D01*
X162714759Y-73685363D01*
X162479727Y-73528320D01*
X162218574Y-73420147D01*
X161941335Y-73365000D01*
X161658665Y-73365000D01*
X161381426Y-73420147D01*
X161120273Y-73528320D01*
X160885241Y-73685363D01*
X160685363Y-73885241D01*
X160528320Y-74120273D01*
X160420147Y-74381426D01*
X160365000Y-74658665D01*
X155615000Y-74658665D01*
X155559853Y-74381426D01*
X155451680Y-74120273D01*
X155294637Y-73885241D01*
X155094759Y-73685363D01*
X154859727Y-73528320D01*
X154598574Y-73420147D01*
X154321335Y-73365000D01*
X154038665Y-73365000D01*
X153761426Y-73420147D01*
X153500273Y-73528320D01*
X153265241Y-73685363D01*
X153065363Y-73885241D01*
X152946321Y-74063400D01*
X138135000Y-74063400D01*
X138135000Y-73655741D01*
X138140490Y-73599999D01*
X138135000Y-73544257D01*
X138135000Y-73544248D01*
X138118577Y-73377501D01*
X138053676Y-73163553D01*
X137948284Y-72966377D01*
X137806449Y-72793551D01*
X137763140Y-72758009D01*
X136121996Y-71116865D01*
X136086449Y-71073551D01*
X135913623Y-70931716D01*
X135716447Y-70826324D01*
X135502499Y-70761423D01*
X135335752Y-70745000D01*
X135335751Y-70745000D01*
X135280000Y-70739509D01*
X135224249Y-70745000D01*
X132966888Y-70745000D01*
X132796101Y-70604837D01*
X132981315Y-70449437D01*
X133175969Y-70206923D01*
X133319571Y-69931094D01*
X133390563Y-69712980D01*
X133270594Y-69467000D01*
X131927000Y-69467000D01*
X131927000Y-69487000D01*
X131673000Y-69487000D01*
X131673000Y-69467000D01*
X130329406Y-69467000D01*
X130209437Y-69712980D01*
X130280429Y-69931094D01*
X130424031Y-70206923D01*
X130618685Y-70449437D01*
X130803899Y-70604837D01*
X130624537Y-70752037D01*
X130426155Y-70993765D01*
X130346174Y-71143400D01*
X130156175Y-71143400D01*
X130119999Y-71139837D01*
X130083823Y-71143400D01*
X130083814Y-71143400D01*
X129975601Y-71154058D01*
X129836751Y-71196178D01*
X129708787Y-71264576D01*
X129596625Y-71356625D01*
X129573559Y-71384731D01*
X128504732Y-72453559D01*
X128476626Y-72476625D01*
X128453560Y-72504731D01*
X128453558Y-72504733D01*
X128384576Y-72588788D01*
X128316178Y-72716753D01*
X128274059Y-72855602D01*
X128259836Y-73000000D01*
X128263401Y-73036193D01*
X128263400Y-76294890D01*
X127151488Y-77406803D01*
X126941335Y-77365000D01*
X126658665Y-77365000D01*
X126381426Y-77420147D01*
X126120273Y-77528320D01*
X125885241Y-77685363D01*
X125685363Y-77885241D01*
X125528320Y-78120273D01*
X125420147Y-78381426D01*
X125365000Y-78658665D01*
X117485000Y-78658665D01*
X117485000Y-73629117D01*
X121065000Y-73629117D01*
X121065000Y-73970883D01*
X121131675Y-74306081D01*
X121262463Y-74621831D01*
X121452337Y-74905998D01*
X121694002Y-75147663D01*
X121978169Y-75337537D01*
X122293919Y-75468325D01*
X122629117Y-75535000D01*
X122970883Y-75535000D01*
X123306081Y-75468325D01*
X123621831Y-75337537D01*
X123905998Y-75147663D01*
X124147663Y-74905998D01*
X124223364Y-74792702D01*
X125986903Y-74792702D01*
X126058486Y-75036671D01*
X126313996Y-75157571D01*
X126588184Y-75226300D01*
X126870512Y-75240217D01*
X127150130Y-75198787D01*
X127416292Y-75103603D01*
X127541514Y-75036671D01*
X127613097Y-74792702D01*
X126800000Y-73979605D01*
X125986903Y-74792702D01*
X124223364Y-74792702D01*
X124337537Y-74621831D01*
X124468325Y-74306081D01*
X124535000Y-73970883D01*
X124535000Y-73870512D01*
X125359783Y-73870512D01*
X125401213Y-74150130D01*
X125496397Y-74416292D01*
X125563329Y-74541514D01*
X125807298Y-74613097D01*
X126620395Y-73800000D01*
X126979605Y-73800000D01*
X127792702Y-74613097D01*
X128036671Y-74541514D01*
X128157571Y-74286004D01*
X128226300Y-74011816D01*
X128240217Y-73729488D01*
X128198787Y-73449870D01*
X128103603Y-73183708D01*
X128036671Y-73058486D01*
X127792702Y-72986903D01*
X126979605Y-73800000D01*
X126620395Y-73800000D01*
X125807298Y-72986903D01*
X125563329Y-73058486D01*
X125442429Y-73313996D01*
X125373700Y-73588184D01*
X125359783Y-73870512D01*
X124535000Y-73870512D01*
X124535000Y-73629117D01*
X124468325Y-73293919D01*
X124337537Y-72978169D01*
X124223365Y-72807298D01*
X125986903Y-72807298D01*
X126800000Y-73620395D01*
X127613097Y-72807298D01*
X127541514Y-72563329D01*
X127286004Y-72442429D01*
X127011816Y-72373700D01*
X126729488Y-72359783D01*
X126449870Y-72401213D01*
X126183708Y-72496397D01*
X126058486Y-72563329D01*
X125986903Y-72807298D01*
X124223365Y-72807298D01*
X124147663Y-72694002D01*
X123905998Y-72452337D01*
X123621831Y-72262463D01*
X123306081Y-72131675D01*
X122970883Y-72065000D01*
X122629117Y-72065000D01*
X122293919Y-72131675D01*
X121978169Y-72262463D01*
X121694002Y-72452337D01*
X121452337Y-72694002D01*
X121262463Y-72978169D01*
X121131675Y-73293919D01*
X121065000Y-73629117D01*
X117485000Y-73629117D01*
X117485000Y-67629117D01*
X121525000Y-67629117D01*
X121525000Y-67970883D01*
X121591675Y-68306081D01*
X121722463Y-68621831D01*
X121912337Y-68905998D01*
X122154002Y-69147663D01*
X122438169Y-69337537D01*
X122753919Y-69468325D01*
X123089117Y-69535000D01*
X123430883Y-69535000D01*
X123766081Y-69468325D01*
X124081831Y-69337537D01*
X124182443Y-69270310D01*
X124248815Y-69351185D01*
X124345506Y-69430537D01*
X124455820Y-69489502D01*
X124575518Y-69525812D01*
X124700000Y-69538072D01*
X125514250Y-69535000D01*
X125673000Y-69376250D01*
X125673000Y-67927000D01*
X125927000Y-67927000D01*
X125927000Y-69376250D01*
X126085750Y-69535000D01*
X126900000Y-69538072D01*
X127024482Y-69525812D01*
X127144180Y-69489502D01*
X127254494Y-69430537D01*
X127351185Y-69351185D01*
X127430537Y-69254494D01*
X127489502Y-69144180D01*
X127525812Y-69024482D01*
X127538072Y-68900000D01*
X127535000Y-68085750D01*
X127376250Y-67927000D01*
X125927000Y-67927000D01*
X125673000Y-67927000D01*
X125653000Y-67927000D01*
X125653000Y-67673000D01*
X125673000Y-67673000D01*
X125673000Y-67653000D01*
X125927000Y-67653000D01*
X125927000Y-67673000D01*
X127376250Y-67673000D01*
X127535000Y-67514250D01*
X127538072Y-66700000D01*
X127525812Y-66575518D01*
X127489502Y-66455820D01*
X127430537Y-66345506D01*
X127351185Y-66248815D01*
X127254494Y-66169463D01*
X127144180Y-66110498D01*
X127024482Y-66074188D01*
X126900000Y-66061928D01*
X126673060Y-66062784D01*
X126720450Y-66015394D01*
X126832633Y-65847500D01*
X130161928Y-65847500D01*
X130161928Y-67752500D01*
X130174188Y-67876982D01*
X130210498Y-67996680D01*
X130269463Y-68106994D01*
X130348815Y-68203685D01*
X130445506Y-68283037D01*
X130537219Y-68332059D01*
X130424031Y-68473077D01*
X130280429Y-68748906D01*
X130209437Y-68967020D01*
X130329406Y-69213000D01*
X131673000Y-69213000D01*
X131673000Y-69193000D01*
X131927000Y-69193000D01*
X131927000Y-69213000D01*
X133270594Y-69213000D01*
X133323219Y-69105098D01*
X146075000Y-69105098D01*
X146075000Y-69574902D01*
X146166654Y-70035679D01*
X146346440Y-70469721D01*
X146607450Y-70860349D01*
X146939651Y-71192550D01*
X147330279Y-71453560D01*
X147764321Y-71633346D01*
X148225098Y-71725000D01*
X148694902Y-71725000D01*
X149155679Y-71633346D01*
X149589721Y-71453560D01*
X149980349Y-71192550D01*
X150312550Y-70860349D01*
X150573560Y-70469721D01*
X150710562Y-70138967D01*
X153665000Y-70138967D01*
X153665000Y-70461033D01*
X153727832Y-70776912D01*
X153851082Y-71074463D01*
X154030013Y-71342252D01*
X154257748Y-71569987D01*
X154525537Y-71748918D01*
X154823088Y-71872168D01*
X155138967Y-71935000D01*
X155461033Y-71935000D01*
X155776912Y-71872168D01*
X156074463Y-71748918D01*
X156342252Y-71569987D01*
X156569987Y-71342252D01*
X156748918Y-71074463D01*
X156872168Y-70776912D01*
X156935000Y-70461033D01*
X156935000Y-70138967D01*
X160165000Y-70138967D01*
X160165000Y-70461033D01*
X160227832Y-70776912D01*
X160351082Y-71074463D01*
X160530013Y-71342252D01*
X160757748Y-71569987D01*
X161025537Y-71748918D01*
X161323088Y-71872168D01*
X161638967Y-71935000D01*
X161961033Y-71935000D01*
X162276912Y-71872168D01*
X162574463Y-71748918D01*
X162842252Y-71569987D01*
X163069987Y-71342252D01*
X163248918Y-71074463D01*
X163372168Y-70776912D01*
X163435000Y-70461033D01*
X163435000Y-70138967D01*
X163372168Y-69823088D01*
X163248918Y-69525537D01*
X163069987Y-69257748D01*
X162842252Y-69030013D01*
X162574463Y-68851082D01*
X162276912Y-68727832D01*
X161961033Y-68665000D01*
X161638967Y-68665000D01*
X161323088Y-68727832D01*
X161025537Y-68851082D01*
X160757748Y-69030013D01*
X160530013Y-69257748D01*
X160351082Y-69525537D01*
X160227832Y-69823088D01*
X160165000Y-70138967D01*
X156935000Y-70138967D01*
X156872168Y-69823088D01*
X156748918Y-69525537D01*
X156569987Y-69257748D01*
X156342252Y-69030013D01*
X156074463Y-68851082D01*
X155776912Y-68727832D01*
X155461033Y-68665000D01*
X155138967Y-68665000D01*
X154823088Y-68727832D01*
X154525537Y-68851082D01*
X154257748Y-69030013D01*
X154030013Y-69257748D01*
X153851082Y-69525537D01*
X153727832Y-69823088D01*
X153665000Y-70138967D01*
X150710562Y-70138967D01*
X150753346Y-70035679D01*
X150845000Y-69574902D01*
X150845000Y-69105098D01*
X150753346Y-68644321D01*
X150573560Y-68210279D01*
X150312550Y-67819651D01*
X149980349Y-67487450D01*
X149589721Y-67226440D01*
X149155679Y-67046654D01*
X148694902Y-66955000D01*
X148225098Y-66955000D01*
X147764321Y-67046654D01*
X147330279Y-67226440D01*
X146939651Y-67487450D01*
X146607450Y-67819651D01*
X146346440Y-68210279D01*
X146166654Y-68644321D01*
X146075000Y-69105098D01*
X133323219Y-69105098D01*
X133390563Y-68967020D01*
X133319571Y-68748906D01*
X133175969Y-68473077D01*
X133062781Y-68332059D01*
X133154494Y-68283037D01*
X133251185Y-68203685D01*
X133330537Y-68106994D01*
X133389502Y-67996680D01*
X133425812Y-67876982D01*
X133438072Y-67752500D01*
X133438072Y-66935413D01*
X154344192Y-66935413D01*
X154439956Y-67199814D01*
X154729571Y-67340704D01*
X155041108Y-67422384D01*
X155362595Y-67441718D01*
X155681675Y-67397961D01*
X155986088Y-67292795D01*
X156160044Y-67199814D01*
X156255808Y-66935413D01*
X160844192Y-66935413D01*
X160939956Y-67199814D01*
X161229571Y-67340704D01*
X161541108Y-67422384D01*
X161862595Y-67441718D01*
X162181675Y-67397961D01*
X162486088Y-67292795D01*
X162660044Y-67199814D01*
X162755808Y-66935413D01*
X161800000Y-65979605D01*
X160844192Y-66935413D01*
X156255808Y-66935413D01*
X155300000Y-65979605D01*
X154344192Y-66935413D01*
X133438072Y-66935413D01*
X133438072Y-65862595D01*
X153658282Y-65862595D01*
X153702039Y-66181675D01*
X153807205Y-66486088D01*
X153900186Y-66660044D01*
X154164587Y-66755808D01*
X155120395Y-65800000D01*
X155479605Y-65800000D01*
X156435413Y-66755808D01*
X156699814Y-66660044D01*
X156840704Y-66370429D01*
X156922384Y-66058892D01*
X156934189Y-65862595D01*
X160158282Y-65862595D01*
X160202039Y-66181675D01*
X160307205Y-66486088D01*
X160400186Y-66660044D01*
X160664587Y-66755808D01*
X161620395Y-65800000D01*
X161979605Y-65800000D01*
X162935413Y-66755808D01*
X163199814Y-66660044D01*
X163340704Y-66370429D01*
X163422384Y-66058892D01*
X163441718Y-65737405D01*
X163397961Y-65418325D01*
X163292795Y-65113912D01*
X163199814Y-64939956D01*
X162935413Y-64844192D01*
X161979605Y-65800000D01*
X161620395Y-65800000D01*
X160664587Y-64844192D01*
X160400186Y-64939956D01*
X160259296Y-65229571D01*
X160177616Y-65541108D01*
X160158282Y-65862595D01*
X156934189Y-65862595D01*
X156941718Y-65737405D01*
X156897961Y-65418325D01*
X156792795Y-65113912D01*
X156699814Y-64939956D01*
X156435413Y-64844192D01*
X155479605Y-65800000D01*
X155120395Y-65800000D01*
X154164587Y-64844192D01*
X153900186Y-64939956D01*
X153759296Y-65229571D01*
X153677616Y-65541108D01*
X153658282Y-65862595D01*
X133438072Y-65862595D01*
X133438072Y-65847500D01*
X133425812Y-65723018D01*
X133389502Y-65603320D01*
X133330537Y-65493006D01*
X133251185Y-65396315D01*
X133154494Y-65316963D01*
X133044180Y-65257998D01*
X132924482Y-65221688D01*
X132800000Y-65209428D01*
X130800000Y-65209428D01*
X130675518Y-65221688D01*
X130555820Y-65257998D01*
X130445506Y-65316963D01*
X130348815Y-65396315D01*
X130269463Y-65493006D01*
X130210498Y-65603320D01*
X130174188Y-65723018D01*
X130161928Y-65847500D01*
X126832633Y-65847500D01*
X126850134Y-65821308D01*
X126939461Y-65605652D01*
X126985000Y-65376712D01*
X126985000Y-65143288D01*
X126939461Y-64914348D01*
X126850134Y-64698692D01*
X126827346Y-64664587D01*
X154344192Y-64664587D01*
X155300000Y-65620395D01*
X156255808Y-64664587D01*
X160844192Y-64664587D01*
X161800000Y-65620395D01*
X162755808Y-64664587D01*
X162660044Y-64400186D01*
X162370429Y-64259296D01*
X162058892Y-64177616D01*
X161737405Y-64158282D01*
X161418325Y-64202039D01*
X161113912Y-64307205D01*
X160939956Y-64400186D01*
X160844192Y-64664587D01*
X156255808Y-64664587D01*
X156160044Y-64400186D01*
X155870429Y-64259296D01*
X155558892Y-64177616D01*
X155237405Y-64158282D01*
X154918325Y-64202039D01*
X154613912Y-64307205D01*
X154439956Y-64400186D01*
X154344192Y-64664587D01*
X126827346Y-64664587D01*
X126720450Y-64504606D01*
X126555394Y-64339550D01*
X126361308Y-64209866D01*
X126145652Y-64120539D01*
X125916712Y-64075000D01*
X125683288Y-64075000D01*
X125454348Y-64120539D01*
X125238692Y-64209866D01*
X125044606Y-64339550D01*
X124879550Y-64504606D01*
X124749866Y-64698692D01*
X124660539Y-64914348D01*
X124615000Y-65143288D01*
X124615000Y-65376712D01*
X124660539Y-65605652D01*
X124749866Y-65821308D01*
X124879550Y-66015394D01*
X124926940Y-66062784D01*
X124700000Y-66061928D01*
X124575518Y-66074188D01*
X124455820Y-66110498D01*
X124345506Y-66169463D01*
X124248815Y-66248815D01*
X124182443Y-66329690D01*
X124081831Y-66262463D01*
X123965048Y-66214090D01*
X124015394Y-66180450D01*
X124180450Y-66015394D01*
X124310134Y-65821308D01*
X124399461Y-65605652D01*
X124445000Y-65376712D01*
X124445000Y-65143288D01*
X124399461Y-64914348D01*
X124310134Y-64698692D01*
X124180450Y-64504606D01*
X124015394Y-64339550D01*
X123821308Y-64209866D01*
X123605652Y-64120539D01*
X123376712Y-64075000D01*
X123143288Y-64075000D01*
X122914348Y-64120539D01*
X122698692Y-64209866D01*
X122504606Y-64339550D01*
X122339550Y-64504606D01*
X122209866Y-64698692D01*
X122120539Y-64914348D01*
X122075000Y-65143288D01*
X122075000Y-65376712D01*
X122120539Y-65605652D01*
X122209866Y-65821308D01*
X122339550Y-66015394D01*
X122504606Y-66180450D01*
X122554952Y-66214090D01*
X122438169Y-66262463D01*
X122154002Y-66452337D01*
X121912337Y-66694002D01*
X121722463Y-66978169D01*
X121591675Y-67293919D01*
X121525000Y-67629117D01*
X117485000Y-67629117D01*
X117485000Y-63833505D01*
X117532312Y-63350984D01*
X117662714Y-62919070D01*
X117874524Y-62520715D01*
X118159675Y-62171086D01*
X118507303Y-61883503D01*
X118904177Y-61668914D01*
X119335161Y-61535502D01*
X119815654Y-61485000D01*
X163766495Y-61485000D01*
X164249016Y-61532312D01*
G37*
%TD.AperFunction*%
%TD*%
M02*
