%TF.GenerationSoftware,KiCad,Pcbnew,(5.1.9)-1*%
%TF.CreationDate,2021-08-22T03:34:57+05:30*%
%TF.ProjectId,G18_TRANSMITTER_laser_communication_system,4731385f-5452-4414-9e53-4d4954544552,rev?*%
%TF.SameCoordinates,Original*%
%TF.FileFunction,Legend,Top*%
%TF.FilePolarity,Positive*%
%FSLAX46Y46*%
G04 Gerber Fmt 4.6, Leading zero omitted, Abs format (unit mm)*
G04 Created by KiCad (PCBNEW (5.1.9)-1) date 2021-08-22 03:34:57*
%MOMM*%
%LPD*%
G01*
G04 APERTURE LIST*
%ADD10C,0.150000*%
%ADD11C,0.120000*%
G04 APERTURE END LIST*
D10*
X106988095Y-80500000D02*
X106892857Y-80452380D01*
X106750000Y-80452380D01*
X106607142Y-80500000D01*
X106511904Y-80595238D01*
X106464285Y-80690476D01*
X106416666Y-80880952D01*
X106416666Y-81023809D01*
X106464285Y-81214285D01*
X106511904Y-81309523D01*
X106607142Y-81404761D01*
X106750000Y-81452380D01*
X106845238Y-81452380D01*
X106988095Y-81404761D01*
X107035714Y-81357142D01*
X107035714Y-81023809D01*
X106845238Y-81023809D01*
X107464285Y-81452380D02*
X107464285Y-80452380D01*
X108035714Y-81452380D01*
X108035714Y-80452380D01*
X108511904Y-81452380D02*
X108511904Y-80452380D01*
X108750000Y-80452380D01*
X108892857Y-80500000D01*
X108988095Y-80595238D01*
X109035714Y-80690476D01*
X109083333Y-80880952D01*
X109083333Y-81023809D01*
X109035714Y-81214285D01*
X108988095Y-81309523D01*
X108892857Y-81404761D01*
X108750000Y-81452380D01*
X108511904Y-81452380D01*
X108059523Y-82952380D02*
X107583333Y-82952380D01*
X107535714Y-83428571D01*
X107583333Y-83380952D01*
X107678571Y-83333333D01*
X107916666Y-83333333D01*
X108011904Y-83380952D01*
X108059523Y-83428571D01*
X108107142Y-83523809D01*
X108107142Y-83761904D01*
X108059523Y-83857142D01*
X108011904Y-83904761D01*
X107916666Y-83952380D01*
X107678571Y-83952380D01*
X107583333Y-83904761D01*
X107535714Y-83857142D01*
X108392857Y-82952380D02*
X108726190Y-83952380D01*
X109059523Y-82952380D01*
X105452380Y-86452380D02*
X104976190Y-86452380D01*
X104976190Y-85452380D01*
X105738095Y-86166666D02*
X106214285Y-86166666D01*
X105642857Y-86452380D02*
X105976190Y-85452380D01*
X106309523Y-86452380D01*
X106595238Y-86404761D02*
X106738095Y-86452380D01*
X106976190Y-86452380D01*
X107071428Y-86404761D01*
X107119047Y-86357142D01*
X107166666Y-86261904D01*
X107166666Y-86166666D01*
X107119047Y-86071428D01*
X107071428Y-86023809D01*
X106976190Y-85976190D01*
X106785714Y-85928571D01*
X106690476Y-85880952D01*
X106642857Y-85833333D01*
X106595238Y-85738095D01*
X106595238Y-85642857D01*
X106642857Y-85547619D01*
X106690476Y-85500000D01*
X106785714Y-85452380D01*
X107023809Y-85452380D01*
X107166666Y-85500000D01*
X107595238Y-85928571D02*
X107928571Y-85928571D01*
X108071428Y-86452380D02*
X107595238Y-86452380D01*
X107595238Y-85452380D01*
X108071428Y-85452380D01*
X109071428Y-86452380D02*
X108738095Y-85976190D01*
X108500000Y-86452380D02*
X108500000Y-85452380D01*
X108880952Y-85452380D01*
X108976190Y-85500000D01*
X109023809Y-85547619D01*
X109071428Y-85642857D01*
X109071428Y-85785714D01*
X109023809Y-85880952D01*
X108976190Y-85928571D01*
X108880952Y-85976190D01*
X108500000Y-85976190D01*
X73547619Y-104916666D02*
X73547619Y-105535714D01*
X73166666Y-105202380D01*
X73166666Y-105345238D01*
X73119047Y-105440476D01*
X73071428Y-105488095D01*
X72976190Y-105535714D01*
X72738095Y-105535714D01*
X72642857Y-105488095D01*
X72595238Y-105440476D01*
X72547619Y-105345238D01*
X72547619Y-105059523D01*
X72595238Y-104964285D01*
X72642857Y-104916666D01*
X73452380Y-107464285D02*
X73500000Y-107511904D01*
X73547619Y-107607142D01*
X73547619Y-107845238D01*
X73500000Y-107940476D01*
X73452380Y-107988095D01*
X73357142Y-108035714D01*
X73261904Y-108035714D01*
X73119047Y-107988095D01*
X72547619Y-107416666D01*
X72547619Y-108035714D01*
X72547619Y-110535714D02*
X72547619Y-109964285D01*
X72547619Y-110250000D02*
X73547619Y-110250000D01*
X73404761Y-110154761D01*
X73309523Y-110059523D01*
X73261904Y-109964285D01*
X73547619Y-112702380D02*
X73547619Y-112797619D01*
X73500000Y-112892857D01*
X73452380Y-112940476D01*
X73357142Y-112988095D01*
X73166666Y-113035714D01*
X72928571Y-113035714D01*
X72738095Y-112988095D01*
X72642857Y-112940476D01*
X72595238Y-112892857D01*
X72547619Y-112797619D01*
X72547619Y-112702380D01*
X72595238Y-112607142D01*
X72642857Y-112559523D01*
X72738095Y-112511904D01*
X72928571Y-112464285D01*
X73166666Y-112464285D01*
X73357142Y-112511904D01*
X73452380Y-112559523D01*
X73500000Y-112607142D01*
X73547619Y-112702380D01*
X75238095Y-64000000D02*
X75142857Y-63952380D01*
X75000000Y-63952380D01*
X74857142Y-64000000D01*
X74761904Y-64095238D01*
X74714285Y-64190476D01*
X74666666Y-64380952D01*
X74666666Y-64523809D01*
X74714285Y-64714285D01*
X74761904Y-64809523D01*
X74857142Y-64904761D01*
X75000000Y-64952380D01*
X75095238Y-64952380D01*
X75238095Y-64904761D01*
X75285714Y-64857142D01*
X75285714Y-64523809D01*
X75095238Y-64523809D01*
X75714285Y-64952380D02*
X75714285Y-63952380D01*
X76285714Y-64952380D01*
X76285714Y-63952380D01*
X76761904Y-64952380D02*
X76761904Y-63952380D01*
X77000000Y-63952380D01*
X77142857Y-64000000D01*
X77238095Y-64095238D01*
X77285714Y-64190476D01*
X77333333Y-64380952D01*
X77333333Y-64523809D01*
X77285714Y-64714285D01*
X77238095Y-64809523D01*
X77142857Y-64904761D01*
X77000000Y-64952380D01*
X76761904Y-64952380D01*
X78666666Y-63952380D02*
X79000000Y-64952380D01*
X79333333Y-63952380D01*
X80238095Y-64857142D02*
X80190476Y-64904761D01*
X80047619Y-64952380D01*
X79952380Y-64952380D01*
X79809523Y-64904761D01*
X79714285Y-64809523D01*
X79666666Y-64714285D01*
X79619047Y-64523809D01*
X79619047Y-64380952D01*
X79666666Y-64190476D01*
X79714285Y-64095238D01*
X79809523Y-64000000D01*
X79952380Y-63952380D01*
X80047619Y-63952380D01*
X80190476Y-64000000D01*
X80238095Y-64047619D01*
X81238095Y-64857142D02*
X81190476Y-64904761D01*
X81047619Y-64952380D01*
X80952380Y-64952380D01*
X80809523Y-64904761D01*
X80714285Y-64809523D01*
X80666666Y-64714285D01*
X80619047Y-64523809D01*
X80619047Y-64380952D01*
X80666666Y-64190476D01*
X80714285Y-64095238D01*
X80809523Y-64000000D01*
X80952380Y-63952380D01*
X81047619Y-63952380D01*
X81190476Y-64000000D01*
X81238095Y-64047619D01*
D11*
%TO.C,ICSP*%
X114670000Y-114490000D02*
X117330000Y-114490000D01*
X114670000Y-104270000D02*
X114670000Y-114490000D01*
X117330000Y-104270000D02*
X117330000Y-114490000D01*
X114670000Y-104270000D02*
X117330000Y-104270000D01*
X114670000Y-103000000D02*
X114670000Y-101670000D01*
X114670000Y-101670000D02*
X116000000Y-101670000D01*
%TO.C,C5*%
X80970000Y-90055000D02*
X80970000Y-90370000D01*
X80970000Y-87630000D02*
X80970000Y-87945000D01*
X76030000Y-90055000D02*
X76030000Y-90370000D01*
X76030000Y-87630000D02*
X76030000Y-87945000D01*
X76030000Y-90370000D02*
X80970000Y-90370000D01*
X76030000Y-87630000D02*
X80970000Y-87630000D01*
%TO.C,C1*%
X79064759Y-78846000D02*
X79064759Y-79476000D01*
X78749759Y-79161000D02*
X79379759Y-79161000D01*
X85491000Y-80598000D02*
X85491000Y-81402000D01*
X85451000Y-80367000D02*
X85451000Y-81633000D01*
X85411000Y-80198000D02*
X85411000Y-81802000D01*
X85371000Y-80060000D02*
X85371000Y-81940000D01*
X85331000Y-79941000D02*
X85331000Y-82059000D01*
X85291000Y-79835000D02*
X85291000Y-82165000D01*
X85251000Y-79738000D02*
X85251000Y-82262000D01*
X85211000Y-79650000D02*
X85211000Y-82350000D01*
X85171000Y-79568000D02*
X85171000Y-82432000D01*
X85131000Y-79491000D02*
X85131000Y-82509000D01*
X85091000Y-79419000D02*
X85091000Y-82581000D01*
X85051000Y-79350000D02*
X85051000Y-82650000D01*
X85011000Y-79286000D02*
X85011000Y-82714000D01*
X84971000Y-79224000D02*
X84971000Y-82776000D01*
X84931000Y-79166000D02*
X84931000Y-82834000D01*
X84891000Y-79110000D02*
X84891000Y-82890000D01*
X84851000Y-79056000D02*
X84851000Y-82944000D01*
X84811000Y-79005000D02*
X84811000Y-82995000D01*
X84771000Y-78956000D02*
X84771000Y-83044000D01*
X84731000Y-78908000D02*
X84731000Y-83092000D01*
X84691000Y-78863000D02*
X84691000Y-83137000D01*
X84651000Y-78818000D02*
X84651000Y-83182000D01*
X84611000Y-78776000D02*
X84611000Y-83224000D01*
X84571000Y-78735000D02*
X84571000Y-83265000D01*
X84531000Y-82040000D02*
X84531000Y-83305000D01*
X84531000Y-78695000D02*
X84531000Y-79960000D01*
X84491000Y-82040000D02*
X84491000Y-83343000D01*
X84491000Y-78657000D02*
X84491000Y-79960000D01*
X84451000Y-82040000D02*
X84451000Y-83380000D01*
X84451000Y-78620000D02*
X84451000Y-79960000D01*
X84411000Y-82040000D02*
X84411000Y-83416000D01*
X84411000Y-78584000D02*
X84411000Y-79960000D01*
X84371000Y-82040000D02*
X84371000Y-83450000D01*
X84371000Y-78550000D02*
X84371000Y-79960000D01*
X84331000Y-82040000D02*
X84331000Y-83484000D01*
X84331000Y-78516000D02*
X84331000Y-79960000D01*
X84291000Y-82040000D02*
X84291000Y-83516000D01*
X84291000Y-78484000D02*
X84291000Y-79960000D01*
X84251000Y-82040000D02*
X84251000Y-83548000D01*
X84251000Y-78452000D02*
X84251000Y-79960000D01*
X84211000Y-82040000D02*
X84211000Y-83578000D01*
X84211000Y-78422000D02*
X84211000Y-79960000D01*
X84171000Y-82040000D02*
X84171000Y-83607000D01*
X84171000Y-78393000D02*
X84171000Y-79960000D01*
X84131000Y-82040000D02*
X84131000Y-83636000D01*
X84131000Y-78364000D02*
X84131000Y-79960000D01*
X84091000Y-82040000D02*
X84091000Y-83664000D01*
X84091000Y-78336000D02*
X84091000Y-79960000D01*
X84051000Y-82040000D02*
X84051000Y-83690000D01*
X84051000Y-78310000D02*
X84051000Y-79960000D01*
X84011000Y-82040000D02*
X84011000Y-83716000D01*
X84011000Y-78284000D02*
X84011000Y-79960000D01*
X83971000Y-82040000D02*
X83971000Y-83742000D01*
X83971000Y-78258000D02*
X83971000Y-79960000D01*
X83931000Y-82040000D02*
X83931000Y-83766000D01*
X83931000Y-78234000D02*
X83931000Y-79960000D01*
X83891000Y-82040000D02*
X83891000Y-83790000D01*
X83891000Y-78210000D02*
X83891000Y-79960000D01*
X83851000Y-82040000D02*
X83851000Y-83812000D01*
X83851000Y-78188000D02*
X83851000Y-79960000D01*
X83811000Y-82040000D02*
X83811000Y-83834000D01*
X83811000Y-78166000D02*
X83811000Y-79960000D01*
X83771000Y-82040000D02*
X83771000Y-83856000D01*
X83771000Y-78144000D02*
X83771000Y-79960000D01*
X83731000Y-82040000D02*
X83731000Y-83876000D01*
X83731000Y-78124000D02*
X83731000Y-79960000D01*
X83691000Y-82040000D02*
X83691000Y-83896000D01*
X83691000Y-78104000D02*
X83691000Y-79960000D01*
X83651000Y-82040000D02*
X83651000Y-83916000D01*
X83651000Y-78084000D02*
X83651000Y-79960000D01*
X83611000Y-82040000D02*
X83611000Y-83934000D01*
X83611000Y-78066000D02*
X83611000Y-79960000D01*
X83571000Y-82040000D02*
X83571000Y-83952000D01*
X83571000Y-78048000D02*
X83571000Y-79960000D01*
X83531000Y-82040000D02*
X83531000Y-83970000D01*
X83531000Y-78030000D02*
X83531000Y-79960000D01*
X83491000Y-82040000D02*
X83491000Y-83986000D01*
X83491000Y-78014000D02*
X83491000Y-79960000D01*
X83451000Y-82040000D02*
X83451000Y-84002000D01*
X83451000Y-77998000D02*
X83451000Y-79960000D01*
X83411000Y-82040000D02*
X83411000Y-84018000D01*
X83411000Y-77982000D02*
X83411000Y-79960000D01*
X83371000Y-82040000D02*
X83371000Y-84033000D01*
X83371000Y-77967000D02*
X83371000Y-79960000D01*
X83331000Y-82040000D02*
X83331000Y-84047000D01*
X83331000Y-77953000D02*
X83331000Y-79960000D01*
X83291000Y-82040000D02*
X83291000Y-84061000D01*
X83291000Y-77939000D02*
X83291000Y-79960000D01*
X83251000Y-82040000D02*
X83251000Y-84074000D01*
X83251000Y-77926000D02*
X83251000Y-79960000D01*
X83211000Y-82040000D02*
X83211000Y-84086000D01*
X83211000Y-77914000D02*
X83211000Y-79960000D01*
X83171000Y-82040000D02*
X83171000Y-84098000D01*
X83171000Y-77902000D02*
X83171000Y-79960000D01*
X83131000Y-82040000D02*
X83131000Y-84110000D01*
X83131000Y-77890000D02*
X83131000Y-79960000D01*
X83091000Y-82040000D02*
X83091000Y-84121000D01*
X83091000Y-77879000D02*
X83091000Y-79960000D01*
X83051000Y-82040000D02*
X83051000Y-84131000D01*
X83051000Y-77869000D02*
X83051000Y-79960000D01*
X83011000Y-82040000D02*
X83011000Y-84141000D01*
X83011000Y-77859000D02*
X83011000Y-79960000D01*
X82971000Y-82040000D02*
X82971000Y-84150000D01*
X82971000Y-77850000D02*
X82971000Y-79960000D01*
X82930000Y-82040000D02*
X82930000Y-84159000D01*
X82930000Y-77841000D02*
X82930000Y-79960000D01*
X82890000Y-82040000D02*
X82890000Y-84167000D01*
X82890000Y-77833000D02*
X82890000Y-79960000D01*
X82850000Y-82040000D02*
X82850000Y-84175000D01*
X82850000Y-77825000D02*
X82850000Y-79960000D01*
X82810000Y-82040000D02*
X82810000Y-84182000D01*
X82810000Y-77818000D02*
X82810000Y-79960000D01*
X82770000Y-82040000D02*
X82770000Y-84189000D01*
X82770000Y-77811000D02*
X82770000Y-79960000D01*
X82730000Y-82040000D02*
X82730000Y-84195000D01*
X82730000Y-77805000D02*
X82730000Y-79960000D01*
X82690000Y-82040000D02*
X82690000Y-84201000D01*
X82690000Y-77799000D02*
X82690000Y-79960000D01*
X82650000Y-82040000D02*
X82650000Y-84206000D01*
X82650000Y-77794000D02*
X82650000Y-79960000D01*
X82610000Y-82040000D02*
X82610000Y-84211000D01*
X82610000Y-77789000D02*
X82610000Y-79960000D01*
X82570000Y-82040000D02*
X82570000Y-84215000D01*
X82570000Y-77785000D02*
X82570000Y-79960000D01*
X82530000Y-82040000D02*
X82530000Y-84218000D01*
X82530000Y-77782000D02*
X82530000Y-79960000D01*
X82490000Y-82040000D02*
X82490000Y-84222000D01*
X82490000Y-77778000D02*
X82490000Y-79960000D01*
X82450000Y-77776000D02*
X82450000Y-84224000D01*
X82410000Y-77773000D02*
X82410000Y-84227000D01*
X82370000Y-77772000D02*
X82370000Y-84228000D01*
X82330000Y-77770000D02*
X82330000Y-84230000D01*
X82290000Y-77770000D02*
X82290000Y-84230000D01*
X82250000Y-77770000D02*
X82250000Y-84230000D01*
X85520000Y-81000000D02*
G75*
G03*
X85520000Y-81000000I-3270000J0D01*
G01*
%TO.C,C2*%
X117055000Y-92030000D02*
X117370000Y-92030000D01*
X114630000Y-92030000D02*
X114945000Y-92030000D01*
X117055000Y-96970000D02*
X117370000Y-96970000D01*
X114630000Y-96970000D02*
X114945000Y-96970000D01*
X117370000Y-96970000D02*
X117370000Y-92030000D01*
X114630000Y-96970000D02*
X114630000Y-92030000D01*
%TO.C,C3*%
X88308000Y-79866000D02*
X93248000Y-79866000D01*
X88308000Y-82606000D02*
X93248000Y-82606000D01*
X88308000Y-79866000D02*
X88308000Y-80181000D01*
X88308000Y-82291000D02*
X88308000Y-82606000D01*
X93248000Y-79866000D02*
X93248000Y-80181000D01*
X93248000Y-82291000D02*
X93248000Y-82606000D01*
%TO.C,C4*%
X96008000Y-80181000D02*
X96008000Y-79866000D01*
X96008000Y-82606000D02*
X96008000Y-82291000D01*
X100948000Y-80181000D02*
X100948000Y-79866000D01*
X100948000Y-82606000D02*
X100948000Y-82291000D01*
X100948000Y-79866000D02*
X96008000Y-79866000D01*
X100948000Y-82606000D02*
X96008000Y-82606000D01*
%TO.C,D1*%
X74530000Y-81860000D02*
X77470000Y-81860000D01*
X74530000Y-81620000D02*
X77470000Y-81620000D01*
X74530000Y-81740000D02*
X77470000Y-81740000D01*
X76000000Y-76180000D02*
X76000000Y-77200000D01*
X76000000Y-83660000D02*
X76000000Y-82640000D01*
X74530000Y-77200000D02*
X74530000Y-82640000D01*
X77470000Y-77200000D02*
X74530000Y-77200000D01*
X77470000Y-82640000D02*
X77470000Y-77200000D01*
X74530000Y-82640000D02*
X77470000Y-82640000D01*
%TO.C,J1*%
X80800000Y-65600000D02*
X80300000Y-65600000D01*
X80800000Y-66340000D02*
X80800000Y-65600000D01*
X74900000Y-72160000D02*
X74900000Y-65840000D01*
X80560000Y-72160000D02*
X80560000Y-65840000D01*
X75670000Y-65840000D02*
X74900000Y-65840000D01*
X78210000Y-65840000D02*
X77250000Y-65840000D01*
X80560000Y-65840000D02*
X79790000Y-65840000D01*
X80560000Y-72160000D02*
X74900000Y-72160000D01*
X80560000Y-71700000D02*
X74900000Y-71700000D01*
X75670000Y-66400000D02*
X74900000Y-66400000D01*
X78210000Y-66400000D02*
X77250000Y-66400000D01*
X80560000Y-66400000D02*
X79790000Y-66400000D01*
%TO.C,J2*%
X116400000Y-87800000D02*
X116400000Y-87300000D01*
X115660000Y-87800000D02*
X116400000Y-87800000D01*
X109840000Y-79360000D02*
X116160000Y-79360000D01*
X109840000Y-87560000D02*
X116160000Y-87560000D01*
X116160000Y-80130000D02*
X116160000Y-79360000D01*
X116160000Y-82670000D02*
X116160000Y-81710000D01*
X116160000Y-85210000D02*
X116160000Y-84250000D01*
X116160000Y-87560000D02*
X116160000Y-86790000D01*
X109840000Y-87560000D02*
X109840000Y-79360000D01*
X110300000Y-87560000D02*
X110300000Y-79360000D01*
X115600000Y-80130000D02*
X115600000Y-79360000D01*
X115600000Y-82670000D02*
X115600000Y-81710000D01*
X115600000Y-85210000D02*
X115600000Y-84250000D01*
X115600000Y-87560000D02*
X115600000Y-86790000D01*
%TO.C,R1*%
X110040000Y-107040000D02*
X110370000Y-107040000D01*
X110370000Y-107040000D02*
X110370000Y-113580000D01*
X110370000Y-113580000D02*
X110040000Y-113580000D01*
X107960000Y-107040000D02*
X107630000Y-107040000D01*
X107630000Y-107040000D02*
X107630000Y-113580000D01*
X107630000Y-113580000D02*
X107960000Y-113580000D01*
%TO.C,R2*%
X106040000Y-107040000D02*
X106370000Y-107040000D01*
X106370000Y-107040000D02*
X106370000Y-113580000D01*
X106370000Y-113580000D02*
X106040000Y-113580000D01*
X103960000Y-107040000D02*
X103630000Y-107040000D01*
X103630000Y-107040000D02*
X103630000Y-113580000D01*
X103630000Y-113580000D02*
X103960000Y-113580000D01*
%TO.C,R3*%
X99630000Y-113580000D02*
X99960000Y-113580000D01*
X99630000Y-107040000D02*
X99630000Y-113580000D01*
X99960000Y-107040000D02*
X99630000Y-107040000D01*
X102370000Y-113580000D02*
X102040000Y-113580000D01*
X102370000Y-107040000D02*
X102370000Y-113580000D01*
X102040000Y-107040000D02*
X102370000Y-107040000D01*
%TO.C,R4*%
X98040000Y-107040000D02*
X98370000Y-107040000D01*
X98370000Y-107040000D02*
X98370000Y-113580000D01*
X98370000Y-113580000D02*
X98040000Y-113580000D01*
X95960000Y-107040000D02*
X95630000Y-107040000D01*
X95630000Y-107040000D02*
X95630000Y-113580000D01*
X95630000Y-113580000D02*
X95960000Y-113580000D01*
%TO.C,R5*%
X91630000Y-113580000D02*
X91960000Y-113580000D01*
X91630000Y-107040000D02*
X91630000Y-113580000D01*
X91960000Y-107040000D02*
X91630000Y-107040000D01*
X94370000Y-113580000D02*
X94040000Y-113580000D01*
X94370000Y-107040000D02*
X94370000Y-113580000D01*
X94040000Y-107040000D02*
X94370000Y-107040000D01*
%TO.C,R6*%
X87630000Y-113580000D02*
X87960000Y-113580000D01*
X87630000Y-107040000D02*
X87630000Y-113580000D01*
X87960000Y-107040000D02*
X87630000Y-107040000D01*
X90370000Y-113580000D02*
X90040000Y-113580000D01*
X90370000Y-107040000D02*
X90370000Y-113580000D01*
X90040000Y-107040000D02*
X90370000Y-107040000D01*
%TO.C,SW1*%
X81750000Y-98000000D02*
X81750000Y-96500000D01*
X80500000Y-94000000D02*
X76000000Y-94000000D01*
X74750000Y-96500000D02*
X74750000Y-98000000D01*
X76000000Y-100500000D02*
X80500000Y-100500000D01*
%TO.C,SW2*%
X78539333Y-112109000D02*
X78539333Y-113379000D01*
X77186000Y-113309000D02*
X78539333Y-113309000D01*
X77186000Y-113189000D02*
X78539333Y-113189000D01*
X77186000Y-113069000D02*
X78539333Y-113069000D01*
X77186000Y-112949000D02*
X78539333Y-112949000D01*
X77186000Y-112829000D02*
X78539333Y-112829000D01*
X77186000Y-112709000D02*
X78539333Y-112709000D01*
X77186000Y-112589000D02*
X78539333Y-112589000D01*
X77186000Y-112469000D02*
X78539333Y-112469000D01*
X77186000Y-112349000D02*
X78539333Y-112349000D01*
X77186000Y-112229000D02*
X78539333Y-112229000D01*
X81246000Y-112109000D02*
X77186000Y-112109000D01*
X81246000Y-113379000D02*
X81246000Y-112109000D01*
X77186000Y-113379000D02*
X81246000Y-113379000D01*
X77186000Y-112109000D02*
X77186000Y-113379000D01*
X78539333Y-109569000D02*
X78539333Y-110839000D01*
X77186000Y-110769000D02*
X78539333Y-110769000D01*
X77186000Y-110649000D02*
X78539333Y-110649000D01*
X77186000Y-110529000D02*
X78539333Y-110529000D01*
X77186000Y-110409000D02*
X78539333Y-110409000D01*
X77186000Y-110289000D02*
X78539333Y-110289000D01*
X77186000Y-110169000D02*
X78539333Y-110169000D01*
X77186000Y-110049000D02*
X78539333Y-110049000D01*
X77186000Y-109929000D02*
X78539333Y-109929000D01*
X77186000Y-109809000D02*
X78539333Y-109809000D01*
X77186000Y-109689000D02*
X78539333Y-109689000D01*
X81246000Y-109569000D02*
X77186000Y-109569000D01*
X81246000Y-110839000D02*
X81246000Y-109569000D01*
X77186000Y-110839000D02*
X81246000Y-110839000D01*
X77186000Y-109569000D02*
X77186000Y-110839000D01*
X78539333Y-107029000D02*
X78539333Y-108299000D01*
X77186000Y-108229000D02*
X78539333Y-108229000D01*
X77186000Y-108109000D02*
X78539333Y-108109000D01*
X77186000Y-107989000D02*
X78539333Y-107989000D01*
X77186000Y-107869000D02*
X78539333Y-107869000D01*
X77186000Y-107749000D02*
X78539333Y-107749000D01*
X77186000Y-107629000D02*
X78539333Y-107629000D01*
X77186000Y-107509000D02*
X78539333Y-107509000D01*
X77186000Y-107389000D02*
X78539333Y-107389000D01*
X77186000Y-107269000D02*
X78539333Y-107269000D01*
X77186000Y-107149000D02*
X78539333Y-107149000D01*
X81246000Y-107029000D02*
X77186000Y-107029000D01*
X81246000Y-108299000D02*
X81246000Y-107029000D01*
X77186000Y-108299000D02*
X81246000Y-108299000D01*
X77186000Y-107029000D02*
X77186000Y-108299000D01*
X78539333Y-104489000D02*
X78539333Y-105759000D01*
X77186000Y-105689000D02*
X78539333Y-105689000D01*
X77186000Y-105569000D02*
X78539333Y-105569000D01*
X77186000Y-105449000D02*
X78539333Y-105449000D01*
X77186000Y-105329000D02*
X78539333Y-105329000D01*
X77186000Y-105209000D02*
X78539333Y-105209000D01*
X77186000Y-105089000D02*
X78539333Y-105089000D01*
X77186000Y-104969000D02*
X78539333Y-104969000D01*
X77186000Y-104849000D02*
X78539333Y-104849000D01*
X77186000Y-104729000D02*
X78539333Y-104729000D01*
X77186000Y-104609000D02*
X78539333Y-104609000D01*
X81246000Y-104489000D02*
X77186000Y-104489000D01*
X81246000Y-105759000D02*
X81246000Y-104489000D01*
X77186000Y-105759000D02*
X81246000Y-105759000D01*
X77186000Y-104489000D02*
X77186000Y-105759000D01*
X74026000Y-102464000D02*
X74026000Y-103847000D01*
X74026000Y-102464000D02*
X75410000Y-102464000D01*
X84166000Y-102704000D02*
X84166000Y-115164000D01*
X74266000Y-102704000D02*
X74266000Y-115164000D01*
X74266000Y-115164000D02*
X84166000Y-115164000D01*
X74266000Y-102704000D02*
X84166000Y-102704000D01*
%TO.C,SW3*%
X109000000Y-72500000D02*
X113500000Y-72500000D01*
X107750000Y-68500000D02*
X107750000Y-70000000D01*
X113500000Y-66000000D02*
X109000000Y-66000000D01*
X114750000Y-70000000D02*
X114750000Y-68500000D01*
%TO.C,U1*%
X88690000Y-73080000D02*
X86150000Y-73080000D01*
X88690000Y-70540000D02*
X86150000Y-70540000D01*
X88690000Y-68000000D02*
X86150000Y-68000000D01*
X104580000Y-75660000D02*
X88690000Y-75660000D01*
X104580000Y-65420000D02*
X88690000Y-65420000D01*
X104580000Y-65420000D02*
X104580000Y-75660000D01*
X88690000Y-65420000D02*
X88690000Y-75660000D01*
%TO.C,U2*%
X87670000Y-93940000D02*
X87670000Y-95190000D01*
X110650000Y-93940000D02*
X87670000Y-93940000D01*
X110650000Y-98440000D02*
X110650000Y-93940000D01*
X87670000Y-98440000D02*
X110650000Y-98440000D01*
X87670000Y-97190000D02*
X87670000Y-98440000D01*
X87670000Y-95190000D02*
G75*
G02*
X87670000Y-97190000I0J-1000000D01*
G01*
%TO.C,Y1*%
X92325000Y-89525000D02*
X98575000Y-89525000D01*
X92325000Y-84475000D02*
X98575000Y-84475000D01*
X92325000Y-89525000D02*
G75*
G02*
X92325000Y-84475000I0J2525000D01*
G01*
X98575000Y-89525000D02*
G75*
G03*
X98575000Y-84475000I0J2525000D01*
G01*
%TO.C,ICSP*%
D10*
X114523809Y-101122380D02*
X114523809Y-100122380D01*
X115571428Y-101027142D02*
X115523809Y-101074761D01*
X115380952Y-101122380D01*
X115285714Y-101122380D01*
X115142857Y-101074761D01*
X115047619Y-100979523D01*
X115000000Y-100884285D01*
X114952380Y-100693809D01*
X114952380Y-100550952D01*
X115000000Y-100360476D01*
X115047619Y-100265238D01*
X115142857Y-100170000D01*
X115285714Y-100122380D01*
X115380952Y-100122380D01*
X115523809Y-100170000D01*
X115571428Y-100217619D01*
X115952380Y-101074761D02*
X116095238Y-101122380D01*
X116333333Y-101122380D01*
X116428571Y-101074761D01*
X116476190Y-101027142D01*
X116523809Y-100931904D01*
X116523809Y-100836666D01*
X116476190Y-100741428D01*
X116428571Y-100693809D01*
X116333333Y-100646190D01*
X116142857Y-100598571D01*
X116047619Y-100550952D01*
X116000000Y-100503333D01*
X115952380Y-100408095D01*
X115952380Y-100312857D01*
X116000000Y-100217619D01*
X116047619Y-100170000D01*
X116142857Y-100122380D01*
X116380952Y-100122380D01*
X116523809Y-100170000D01*
X116952380Y-101122380D02*
X116952380Y-100122380D01*
X117333333Y-100122380D01*
X117428571Y-100170000D01*
X117476190Y-100217619D01*
X117523809Y-100312857D01*
X117523809Y-100455714D01*
X117476190Y-100550952D01*
X117428571Y-100598571D01*
X117333333Y-100646190D01*
X116952380Y-100646190D01*
%TO.C,C5*%
X75833333Y-87357142D02*
X75785714Y-87404761D01*
X75642857Y-87452380D01*
X75547619Y-87452380D01*
X75404761Y-87404761D01*
X75309523Y-87309523D01*
X75261904Y-87214285D01*
X75214285Y-87023809D01*
X75214285Y-86880952D01*
X75261904Y-86690476D01*
X75309523Y-86595238D01*
X75404761Y-86500000D01*
X75547619Y-86452380D01*
X75642857Y-86452380D01*
X75785714Y-86500000D01*
X75833333Y-86547619D01*
X76738095Y-86452380D02*
X76261904Y-86452380D01*
X76214285Y-86928571D01*
X76261904Y-86880952D01*
X76357142Y-86833333D01*
X76595238Y-86833333D01*
X76690476Y-86880952D01*
X76738095Y-86928571D01*
X76785714Y-87023809D01*
X76785714Y-87261904D01*
X76738095Y-87357142D01*
X76690476Y-87404761D01*
X76595238Y-87452380D01*
X76357142Y-87452380D01*
X76261904Y-87404761D01*
X76214285Y-87357142D01*
%TO.C,C1*%
X82083333Y-76957142D02*
X82035714Y-77004761D01*
X81892857Y-77052380D01*
X81797619Y-77052380D01*
X81654761Y-77004761D01*
X81559523Y-76909523D01*
X81511904Y-76814285D01*
X81464285Y-76623809D01*
X81464285Y-76480952D01*
X81511904Y-76290476D01*
X81559523Y-76195238D01*
X81654761Y-76100000D01*
X81797619Y-76052380D01*
X81892857Y-76052380D01*
X82035714Y-76100000D01*
X82083333Y-76147619D01*
X83035714Y-77052380D02*
X82464285Y-77052380D01*
X82750000Y-77052380D02*
X82750000Y-76052380D01*
X82654761Y-76195238D01*
X82559523Y-76290476D01*
X82464285Y-76338095D01*
%TO.C,C2*%
X113857142Y-94666666D02*
X113904761Y-94714285D01*
X113952380Y-94857142D01*
X113952380Y-94952380D01*
X113904761Y-95095238D01*
X113809523Y-95190476D01*
X113714285Y-95238095D01*
X113523809Y-95285714D01*
X113380952Y-95285714D01*
X113190476Y-95238095D01*
X113095238Y-95190476D01*
X113000000Y-95095238D01*
X112952380Y-94952380D01*
X112952380Y-94857142D01*
X113000000Y-94714285D01*
X113047619Y-94666666D01*
X113047619Y-94285714D02*
X113000000Y-94238095D01*
X112952380Y-94142857D01*
X112952380Y-93904761D01*
X113000000Y-93809523D01*
X113047619Y-93761904D01*
X113142857Y-93714285D01*
X113238095Y-93714285D01*
X113380952Y-93761904D01*
X113952380Y-94333333D01*
X113952380Y-93714285D01*
%TO.C,C3*%
X90611333Y-79093142D02*
X90563714Y-79140761D01*
X90420857Y-79188380D01*
X90325619Y-79188380D01*
X90182761Y-79140761D01*
X90087523Y-79045523D01*
X90039904Y-78950285D01*
X89992285Y-78759809D01*
X89992285Y-78616952D01*
X90039904Y-78426476D01*
X90087523Y-78331238D01*
X90182761Y-78236000D01*
X90325619Y-78188380D01*
X90420857Y-78188380D01*
X90563714Y-78236000D01*
X90611333Y-78283619D01*
X90944666Y-78188380D02*
X91563714Y-78188380D01*
X91230380Y-78569333D01*
X91373238Y-78569333D01*
X91468476Y-78616952D01*
X91516095Y-78664571D01*
X91563714Y-78759809D01*
X91563714Y-78997904D01*
X91516095Y-79093142D01*
X91468476Y-79140761D01*
X91373238Y-79188380D01*
X91087523Y-79188380D01*
X90992285Y-79140761D01*
X90944666Y-79093142D01*
%TO.C,C4*%
X98333333Y-79107142D02*
X98285714Y-79154761D01*
X98142857Y-79202380D01*
X98047619Y-79202380D01*
X97904761Y-79154761D01*
X97809523Y-79059523D01*
X97761904Y-78964285D01*
X97714285Y-78773809D01*
X97714285Y-78630952D01*
X97761904Y-78440476D01*
X97809523Y-78345238D01*
X97904761Y-78250000D01*
X98047619Y-78202380D01*
X98142857Y-78202380D01*
X98285714Y-78250000D01*
X98333333Y-78297619D01*
X99190476Y-78535714D02*
X99190476Y-79202380D01*
X98952380Y-78154761D02*
X98714285Y-78869047D01*
X99333333Y-78869047D01*
%TO.C,D1*%
X73982380Y-80658095D02*
X72982380Y-80658095D01*
X72982380Y-80420000D01*
X73030000Y-80277142D01*
X73125238Y-80181904D01*
X73220476Y-80134285D01*
X73410952Y-80086666D01*
X73553809Y-80086666D01*
X73744285Y-80134285D01*
X73839523Y-80181904D01*
X73934761Y-80277142D01*
X73982380Y-80420000D01*
X73982380Y-80658095D01*
X73982380Y-79134285D02*
X73982380Y-79705714D01*
X73982380Y-79420000D02*
X72982380Y-79420000D01*
X73125238Y-79515238D01*
X73220476Y-79610476D01*
X73268095Y-79705714D01*
%TO.C,SW1*%
X72095238Y-96166666D02*
X72047619Y-96309523D01*
X72047619Y-96547619D01*
X72095238Y-96642857D01*
X72142857Y-96690476D01*
X72238095Y-96738095D01*
X72333333Y-96738095D01*
X72428571Y-96690476D01*
X72476190Y-96642857D01*
X72523809Y-96547619D01*
X72571428Y-96357142D01*
X72619047Y-96261904D01*
X72666666Y-96214285D01*
X72761904Y-96166666D01*
X72857142Y-96166666D01*
X72952380Y-96214285D01*
X73000000Y-96261904D01*
X73047619Y-96357142D01*
X73047619Y-96595238D01*
X73000000Y-96738095D01*
X73047619Y-97071428D02*
X72047619Y-97309523D01*
X72761904Y-97500000D01*
X72047619Y-97690476D01*
X73047619Y-97928571D01*
X72047619Y-98833333D02*
X72047619Y-98261904D01*
X72047619Y-98547619D02*
X73047619Y-98547619D01*
X72904761Y-98452380D01*
X72809523Y-98357142D01*
X72761904Y-98261904D01*
%TO.C,SW3*%
X109916666Y-65404761D02*
X110059523Y-65452380D01*
X110297619Y-65452380D01*
X110392857Y-65404761D01*
X110440476Y-65357142D01*
X110488095Y-65261904D01*
X110488095Y-65166666D01*
X110440476Y-65071428D01*
X110392857Y-65023809D01*
X110297619Y-64976190D01*
X110107142Y-64928571D01*
X110011904Y-64880952D01*
X109964285Y-64833333D01*
X109916666Y-64738095D01*
X109916666Y-64642857D01*
X109964285Y-64547619D01*
X110011904Y-64500000D01*
X110107142Y-64452380D01*
X110345238Y-64452380D01*
X110488095Y-64500000D01*
X110821428Y-64452380D02*
X111059523Y-65452380D01*
X111250000Y-64738095D01*
X111440476Y-65452380D01*
X111678571Y-64452380D01*
X111964285Y-64452380D02*
X112583333Y-64452380D01*
X112250000Y-64833333D01*
X112392857Y-64833333D01*
X112488095Y-64880952D01*
X112535714Y-64928571D01*
X112583333Y-65023809D01*
X112583333Y-65261904D01*
X112535714Y-65357142D01*
X112488095Y-65404761D01*
X112392857Y-65452380D01*
X112107142Y-65452380D01*
X112011904Y-65404761D01*
X111964285Y-65357142D01*
%TO.C,U1*%
X105032380Y-71301904D02*
X105841904Y-71301904D01*
X105937142Y-71254285D01*
X105984761Y-71206666D01*
X106032380Y-71111428D01*
X106032380Y-70920952D01*
X105984761Y-70825714D01*
X105937142Y-70778095D01*
X105841904Y-70730476D01*
X105032380Y-70730476D01*
X106032380Y-69730476D02*
X106032380Y-70301904D01*
X106032380Y-70016190D02*
X105032380Y-70016190D01*
X105175238Y-70111428D01*
X105270476Y-70206666D01*
X105318095Y-70301904D01*
%TO.C,U2*%
X86122380Y-96951904D02*
X86931904Y-96951904D01*
X87027142Y-96904285D01*
X87074761Y-96856666D01*
X87122380Y-96761428D01*
X87122380Y-96570952D01*
X87074761Y-96475714D01*
X87027142Y-96428095D01*
X86931904Y-96380476D01*
X86122380Y-96380476D01*
X86217619Y-95951904D02*
X86170000Y-95904285D01*
X86122380Y-95809047D01*
X86122380Y-95570952D01*
X86170000Y-95475714D01*
X86217619Y-95428095D01*
X86312857Y-95380476D01*
X86408095Y-95380476D01*
X86550952Y-95428095D01*
X87122380Y-95999523D01*
X87122380Y-95380476D01*
%TO.C,Y1*%
X94973809Y-83451190D02*
X94973809Y-83927380D01*
X94640476Y-82927380D02*
X94973809Y-83451190D01*
X95307142Y-82927380D01*
X96164285Y-83927380D02*
X95592857Y-83927380D01*
X95878571Y-83927380D02*
X95878571Y-82927380D01*
X95783333Y-83070238D01*
X95688095Y-83165476D01*
X95592857Y-83213095D01*
%TD*%
M02*
