M48
; DRILL file {KiCad (5.1.9)-1} date 08/22/21 03:35:00
; FORMAT={-:-/ absolute / inch / decimal}
; #@! TF.CreationDate,2021-08-22T03:35:00+05:30
; #@! TF.GenerationSoftware,Kicad,Pcbnew,(5.1.9)-1
; #@! TF.FileFunction,Plated,1,2,PTH
FMAT,2
INCH
T1C0.0236
T2C0.0315
T3C0.0394
T4C0.0433
%
G90
G05
T1
X3.3541Y-4.0161
X3.3858Y-3.3071
X3.3858Y-3.6614
X3.3975Y-4.0142
X3.4252Y-4.1339
X3.4252Y-4.3307
X3.4409Y-4.0157
X3.7402Y-4.3307
X4.0551Y-3.5433
X4.1535Y-4.0604
X4.2047Y-3.252
X4.2205Y-3.7403
X4.252Y-4.0748
X4.2598Y-3.4331
X4.311Y-3.7795
X4.4094Y-3.9567
X4.4409Y-3.8189
X4.4488Y-3.7598
X4.4488Y-4.0
X4.4803Y-3.8583
X4.5276Y-3.9134
T2
X2.9687Y-4.1387
X2.9687Y-4.2387
X2.9687Y-4.3387
X2.9687Y-4.4387
X2.9921Y-3.5039
X3.189Y-3.189
X3.189Y-3.5039
X3.2687Y-4.1387
X3.2687Y-4.2387
X3.2687Y-4.3387
X3.2687Y-4.4387
X3.2874Y-3.189
X3.4755Y-3.1983
X3.5039Y-3.637
X3.5039Y-3.937
X3.5039Y-4.1929
X3.5039Y-4.4929
X3.6039Y-3.637
X3.6039Y-3.937
X3.6614Y-3.4252
X3.6614Y-4.1929
X3.6614Y-4.4929
X3.6724Y-3.1983
X3.7039Y-3.637
X3.7039Y-3.937
X3.7787Y-3.1983
X3.8039Y-3.637
X3.8039Y-3.937
X3.8189Y-4.1929
X3.8189Y-4.4929
X3.8543Y-3.4252
X3.9039Y-3.637
X3.9039Y-3.937
X3.9755Y-3.1983
X3.9764Y-4.1929
X3.9764Y-4.4929
X4.0039Y-3.637
X4.0039Y-3.937
X4.1039Y-3.637
X4.1039Y-3.937
X4.1339Y-4.1929
X4.1339Y-4.4929
X4.2039Y-3.637
X4.2039Y-3.937
X4.2913Y-4.1929
X4.2913Y-4.4929
X4.3039Y-3.637
X4.3039Y-3.937
X4.5669Y-3.622
X4.5669Y-3.8189
T3
X4.5669Y-4.0551
X4.5669Y-4.1551
X4.5669Y-4.2551
X4.5669Y-4.3551
X4.5669Y-4.4551
T4
X2.9528Y-3.7402
X2.9528Y-3.9173
X2.9921Y-2.9465
X2.9921Y-3.3465
X3.0102Y-2.7165
X3.1102Y-2.7165
X3.2087Y-3.7402
X3.2087Y-3.9173
X3.3465Y-2.6772
X3.3465Y-2.7772
X3.3465Y-2.8772
X4.252Y-2.6378
X4.252Y-2.815
X4.4488Y-3.1858
X4.4488Y-3.2858
X4.4488Y-3.3858
X4.5079Y-2.6378
X4.5079Y-2.815
T0
M30
