%FSLAX45Y45*%
G04 Gerber Fmt 4.5, Leading zero omitted, Abs format (unit mm)*
G04 Created by KiCad (PCBNEW (5.1.9)-1) date 2021-08-22 03:35:01*
%MOMM*%
%LPD*%
G01*
G04 APERTURE LIST*
%TA.AperFunction,Profile*%
%ADD10C,0.100000*%
%TD*%
%ADD11C,0.200000*%
%ADD12C,0.300000*%
G04 APERTURE END LIST*
D10*
X12000000Y-11500000D02*
G75*
G02*
X11700000Y-11800000I-300000J0D01*
G01*
X12000000Y-6600000D02*
G75*
G03*
X11700000Y-6300000I-300000J0D01*
G01*
X7300000Y-6300000D02*
G75*
G03*
X7000000Y-6600000I0J-300000D01*
G01*
X7000000Y-11500000D02*
G75*
G03*
X7300000Y-11800000I300000J0D01*
G01*
X12000000Y-6600000D02*
X12000000Y-11500000D01*
X7300000Y-6300000D02*
X11700000Y-6300000D01*
X7000000Y-11500000D02*
X7000000Y-6600000D01*
X11700000Y-11800000D02*
X7300000Y-11800000D01*
D11*
X8489537Y-10170860D02*
X8549537Y-10230860D01*
X8549537Y-10170860D02*
X8489537Y-10230860D01*
X8570000Y-8370000D02*
X8630000Y-8430000D01*
X8630000Y-8370000D02*
X8570000Y-8430000D01*
X8570000Y-9270000D02*
X8630000Y-9330000D01*
X8630000Y-9270000D02*
X8570000Y-9330000D01*
X8599750Y-10165975D02*
X8659750Y-10225975D01*
X8659750Y-10165975D02*
X8599750Y-10225975D01*
X8670000Y-10470000D02*
X8730000Y-10530000D01*
X8730000Y-10470000D02*
X8670000Y-10530000D01*
X8670000Y-10970000D02*
X8730000Y-11030000D01*
X8730000Y-10970000D02*
X8670000Y-11030000D01*
X8710000Y-10170000D02*
X8770000Y-10230000D01*
X8770000Y-10170000D02*
X8710000Y-10230000D01*
X9470000Y-10970000D02*
X9530000Y-11030000D01*
X9530000Y-10970000D02*
X9470000Y-11030000D01*
X10270000Y-8970000D02*
X10330000Y-9030000D01*
X10330000Y-8970000D02*
X10270000Y-9030000D01*
X10520000Y-10283480D02*
X10580000Y-10343480D01*
X10580000Y-10283480D02*
X10520000Y-10343480D01*
X10650000Y-8230000D02*
X10710000Y-8290000D01*
X10710000Y-8230000D02*
X10650000Y-8290000D01*
X10690000Y-9470480D02*
X10750000Y-9530480D01*
X10750000Y-9470480D02*
X10690000Y-9530480D01*
X10770000Y-10320000D02*
X10830000Y-10380000D01*
X10830000Y-10320000D02*
X10770000Y-10380000D01*
X10790000Y-8690000D02*
X10850000Y-8750000D01*
X10850000Y-8690000D02*
X10790000Y-8750000D01*
X10920000Y-9570000D02*
X10980000Y-9630000D01*
X10980000Y-9570000D02*
X10920000Y-9630000D01*
X11170000Y-10020000D02*
X11230000Y-10080000D01*
X11230000Y-10020000D02*
X11170000Y-10080000D01*
X11250000Y-9670000D02*
X11310000Y-9730000D01*
X11310000Y-9670000D02*
X11250000Y-9730000D01*
X11270000Y-9520000D02*
X11330000Y-9580000D01*
X11330000Y-9520000D02*
X11270000Y-9580000D01*
X11270000Y-10130000D02*
X11330000Y-10190000D01*
X11330000Y-10130000D02*
X11270000Y-10190000D01*
X11350000Y-9770000D02*
X11410000Y-9830000D01*
X11410000Y-9770000D02*
X11350000Y-9830000D01*
X11470000Y-9910000D02*
X11530000Y-9970000D01*
X11530000Y-9910000D02*
X11470000Y-9970000D01*
X7580600Y-10512400D02*
G75*
G03*
X7580600Y-10512400I-40000J0D01*
G01*
X7580600Y-10766400D02*
G75*
G03*
X7580600Y-10766400I-40000J0D01*
G01*
X7580600Y-11020400D02*
G75*
G03*
X7580600Y-11020400I-40000J0D01*
G01*
X7580600Y-11274400D02*
G75*
G03*
X7580600Y-11274400I-40000J0D01*
G01*
X7640000Y-8900000D02*
G75*
G03*
X7640000Y-8900000I-40000J0D01*
G01*
X8140000Y-8100000D02*
G75*
G03*
X8140000Y-8100000I-40000J0D01*
G01*
X8140000Y-8900000D02*
G75*
G03*
X8140000Y-8900000I-40000J0D01*
G01*
X8342600Y-10512400D02*
G75*
G03*
X8342600Y-10512400I-40000J0D01*
G01*
X8342600Y-10766400D02*
G75*
G03*
X8342600Y-10766400I-40000J0D01*
G01*
X8342600Y-11020400D02*
G75*
G03*
X8342600Y-11020400I-40000J0D01*
G01*
X8342600Y-11274400D02*
G75*
G03*
X8342600Y-11274400I-40000J0D01*
G01*
X8390000Y-8100000D02*
G75*
G03*
X8390000Y-8100000I-40000J0D01*
G01*
X8867800Y-8123600D02*
G75*
G03*
X8867800Y-8123600I-40000J0D01*
G01*
X8940000Y-9238000D02*
G75*
G03*
X8940000Y-9238000I-40000J0D01*
G01*
X8940000Y-10000000D02*
G75*
G03*
X8940000Y-10000000I-40000J0D01*
G01*
X8940000Y-10650000D02*
G75*
G03*
X8940000Y-10650000I-40000J0D01*
G01*
X8940000Y-11412000D02*
G75*
G03*
X8940000Y-11412000I-40000J0D01*
G01*
X9194000Y-9238000D02*
G75*
G03*
X9194000Y-9238000I-40000J0D01*
G01*
X9194000Y-10000000D02*
G75*
G03*
X9194000Y-10000000I-40000J0D01*
G01*
X9340000Y-8700000D02*
G75*
G03*
X9340000Y-8700000I-40000J0D01*
G01*
X9340000Y-10650000D02*
G75*
G03*
X9340000Y-10650000I-40000J0D01*
G01*
X9340000Y-11412000D02*
G75*
G03*
X9340000Y-11412000I-40000J0D01*
G01*
X9367800Y-8123600D02*
G75*
G03*
X9367800Y-8123600I-40000J0D01*
G01*
X9448000Y-9238000D02*
G75*
G03*
X9448000Y-9238000I-40000J0D01*
G01*
X9448000Y-10000000D02*
G75*
G03*
X9448000Y-10000000I-40000J0D01*
G01*
X9637800Y-8123600D02*
G75*
G03*
X9637800Y-8123600I-40000J0D01*
G01*
X9702000Y-9238000D02*
G75*
G03*
X9702000Y-9238000I-40000J0D01*
G01*
X9702000Y-10000000D02*
G75*
G03*
X9702000Y-10000000I-40000J0D01*
G01*
X9740000Y-10650000D02*
G75*
G03*
X9740000Y-10650000I-40000J0D01*
G01*
X9740000Y-11412000D02*
G75*
G03*
X9740000Y-11412000I-40000J0D01*
G01*
X9830000Y-8700000D02*
G75*
G03*
X9830000Y-8700000I-40000J0D01*
G01*
X9956000Y-9238000D02*
G75*
G03*
X9956000Y-9238000I-40000J0D01*
G01*
X9956000Y-10000000D02*
G75*
G03*
X9956000Y-10000000I-40000J0D01*
G01*
X10137800Y-8123600D02*
G75*
G03*
X10137800Y-8123600I-40000J0D01*
G01*
X10140000Y-10650000D02*
G75*
G03*
X10140000Y-10650000I-40000J0D01*
G01*
X10140000Y-11412000D02*
G75*
G03*
X10140000Y-11412000I-40000J0D01*
G01*
X10210000Y-9238000D02*
G75*
G03*
X10210000Y-9238000I-40000J0D01*
G01*
X10210000Y-10000000D02*
G75*
G03*
X10210000Y-10000000I-40000J0D01*
G01*
X10464000Y-9238000D02*
G75*
G03*
X10464000Y-9238000I-40000J0D01*
G01*
X10464000Y-10000000D02*
G75*
G03*
X10464000Y-10000000I-40000J0D01*
G01*
X10540000Y-10650000D02*
G75*
G03*
X10540000Y-10650000I-40000J0D01*
G01*
X10540000Y-11412000D02*
G75*
G03*
X10540000Y-11412000I-40000J0D01*
G01*
X10718000Y-9238000D02*
G75*
G03*
X10718000Y-9238000I-40000J0D01*
G01*
X10718000Y-10000000D02*
G75*
G03*
X10718000Y-10000000I-40000J0D01*
G01*
X10940000Y-10650000D02*
G75*
G03*
X10940000Y-10650000I-40000J0D01*
G01*
X10940000Y-11412000D02*
G75*
G03*
X10940000Y-11412000I-40000J0D01*
G01*
X10972000Y-9238000D02*
G75*
G03*
X10972000Y-9238000I-40000J0D01*
G01*
X10972000Y-10000000D02*
G75*
G03*
X10972000Y-10000000I-40000J0D01*
G01*
X11640000Y-9200000D02*
G75*
G03*
X11640000Y-9200000I-40000J0D01*
G01*
X11640000Y-9700000D02*
G75*
G03*
X11640000Y-9700000I-40000J0D01*
G01*
X11600000Y-10250000D02*
X11600000Y-10350000D01*
X11550000Y-10300000D02*
X11650000Y-10300000D01*
X11600000Y-10504000D02*
X11600000Y-10604000D01*
X11550000Y-10554000D02*
X11650000Y-10554000D01*
X11600000Y-10758000D02*
X11600000Y-10858000D01*
X11550000Y-10808000D02*
X11650000Y-10808000D01*
X11600000Y-11012000D02*
X11600000Y-11112000D01*
X11550000Y-11062000D02*
X11650000Y-11062000D01*
X11600000Y-11266000D02*
X11600000Y-11366000D01*
X11550000Y-11316000D02*
X11650000Y-11316000D01*
X7538891Y-9538891D02*
X7538891Y-9461109D01*
X7461109Y-9461109D01*
X7461109Y-9538891D01*
X7538891Y-9538891D01*
X7538891Y-9988891D02*
X7538891Y-9911109D01*
X7461109Y-9911109D01*
X7461109Y-9988891D01*
X7538891Y-9988891D01*
X7638891Y-7522891D02*
X7638891Y-7445109D01*
X7561109Y-7445109D01*
X7561109Y-7522891D01*
X7638891Y-7522891D01*
X7638891Y-8538891D02*
X7638891Y-8461109D01*
X7561109Y-8461109D01*
X7561109Y-8538891D01*
X7638891Y-8538891D01*
X7684891Y-6938891D02*
X7684891Y-6861109D01*
X7607109Y-6861109D01*
X7607109Y-6938891D01*
X7684891Y-6938891D01*
X7938891Y-6938891D02*
X7938891Y-6861109D01*
X7861109Y-6861109D01*
X7861109Y-6938891D01*
X7938891Y-6938891D01*
X8188891Y-9538891D02*
X8188891Y-9461109D01*
X8111109Y-9461109D01*
X8111109Y-9538891D01*
X8188891Y-9538891D01*
X8188891Y-9988891D02*
X8188891Y-9911109D01*
X8111109Y-9911109D01*
X8111109Y-9988891D01*
X8188891Y-9988891D01*
X8538891Y-6838891D02*
X8538891Y-6761109D01*
X8461109Y-6761109D01*
X8461109Y-6838891D01*
X8538891Y-6838891D01*
X8538891Y-7092891D02*
X8538891Y-7015109D01*
X8461109Y-7015109D01*
X8461109Y-7092891D01*
X8538891Y-7092891D01*
X8538891Y-7346891D02*
X8538891Y-7269109D01*
X8461109Y-7269109D01*
X8461109Y-7346891D01*
X8538891Y-7346891D01*
X10838891Y-6738891D02*
X10838891Y-6661109D01*
X10761109Y-6661109D01*
X10761109Y-6738891D01*
X10838891Y-6738891D01*
X10838891Y-7188891D02*
X10838891Y-7111109D01*
X10761109Y-7111109D01*
X10761109Y-7188891D01*
X10838891Y-7188891D01*
X11338891Y-8130891D02*
X11338891Y-8053109D01*
X11261109Y-8053109D01*
X11261109Y-8130891D01*
X11338891Y-8130891D01*
X11338891Y-8384891D02*
X11338891Y-8307109D01*
X11261109Y-8307109D01*
X11261109Y-8384891D01*
X11338891Y-8384891D01*
X11338891Y-8638891D02*
X11338891Y-8561109D01*
X11261109Y-8561109D01*
X11261109Y-8638891D01*
X11338891Y-8638891D01*
X11488891Y-6738891D02*
X11488891Y-6661109D01*
X11411109Y-6661109D01*
X11411109Y-6738891D01*
X11488891Y-6738891D01*
X11488891Y-7188891D02*
X11488891Y-7111109D01*
X11411109Y-7111109D01*
X11411109Y-7188891D01*
X11488891Y-7188891D01*
D12*
X7281428Y-12270714D02*
X7281428Y-11970714D01*
X7352857Y-11970714D01*
X7395714Y-11985000D01*
X7424286Y-12013571D01*
X7438571Y-12042143D01*
X7452857Y-12099286D01*
X7452857Y-12142143D01*
X7438571Y-12199286D01*
X7424286Y-12227857D01*
X7395714Y-12256429D01*
X7352857Y-12270714D01*
X7281428Y-12270714D01*
X7581428Y-12270714D02*
X7581428Y-12070714D01*
X7581428Y-12127857D02*
X7595714Y-12099286D01*
X7610000Y-12085000D01*
X7638571Y-12070714D01*
X7667143Y-12070714D01*
X7767143Y-12270714D02*
X7767143Y-12070714D01*
X7767143Y-11970714D02*
X7752857Y-11985000D01*
X7767143Y-11999286D01*
X7781428Y-11985000D01*
X7767143Y-11970714D01*
X7767143Y-11999286D01*
X7952857Y-12270714D02*
X7924286Y-12256429D01*
X7910000Y-12227857D01*
X7910000Y-11970714D01*
X8110000Y-12270714D02*
X8081428Y-12256429D01*
X8067143Y-12227857D01*
X8067143Y-11970714D01*
X8452857Y-12270714D02*
X8452857Y-11970714D01*
X8552857Y-12185000D01*
X8652857Y-11970714D01*
X8652857Y-12270714D01*
X8924286Y-12270714D02*
X8924286Y-12113571D01*
X8910000Y-12085000D01*
X8881428Y-12070714D01*
X8824286Y-12070714D01*
X8795714Y-12085000D01*
X8924286Y-12256429D02*
X8895714Y-12270714D01*
X8824286Y-12270714D01*
X8795714Y-12256429D01*
X8781428Y-12227857D01*
X8781428Y-12199286D01*
X8795714Y-12170714D01*
X8824286Y-12156429D01*
X8895714Y-12156429D01*
X8924286Y-12142143D01*
X9067143Y-12070714D02*
X9067143Y-12370714D01*
X9067143Y-12085000D02*
X9095714Y-12070714D01*
X9152857Y-12070714D01*
X9181428Y-12085000D01*
X9195714Y-12099286D01*
X9210000Y-12127857D01*
X9210000Y-12213571D01*
X9195714Y-12242143D01*
X9181428Y-12256429D01*
X9152857Y-12270714D01*
X9095714Y-12270714D01*
X9067143Y-12256429D01*
X9338571Y-12242143D02*
X9352857Y-12256429D01*
X9338571Y-12270714D01*
X9324286Y-12256429D01*
X9338571Y-12242143D01*
X9338571Y-12270714D01*
X9338571Y-12085000D02*
X9352857Y-12099286D01*
X9338571Y-12113571D01*
X9324286Y-12099286D01*
X9338571Y-12085000D01*
X9338571Y-12113571D01*
X6935000Y-12735000D02*
X6995000Y-12795000D01*
X6995000Y-12735000D02*
X6935000Y-12795000D01*
X7338571Y-12600714D02*
X7367143Y-12600714D01*
X7395714Y-12615000D01*
X7410000Y-12629286D01*
X7424286Y-12657857D01*
X7438571Y-12715000D01*
X7438571Y-12786429D01*
X7424286Y-12843571D01*
X7410000Y-12872143D01*
X7395714Y-12886429D01*
X7367143Y-12900714D01*
X7338571Y-12900714D01*
X7310000Y-12886429D01*
X7295714Y-12872143D01*
X7281428Y-12843571D01*
X7267143Y-12786429D01*
X7267143Y-12715000D01*
X7281428Y-12657857D01*
X7295714Y-12629286D01*
X7310000Y-12615000D01*
X7338571Y-12600714D01*
X7567143Y-12872143D02*
X7581428Y-12886429D01*
X7567143Y-12900714D01*
X7552857Y-12886429D01*
X7567143Y-12872143D01*
X7567143Y-12900714D01*
X7838571Y-12600714D02*
X7781428Y-12600714D01*
X7752857Y-12615000D01*
X7738571Y-12629286D01*
X7710000Y-12672143D01*
X7695714Y-12729286D01*
X7695714Y-12843571D01*
X7710000Y-12872143D01*
X7724286Y-12886429D01*
X7752857Y-12900714D01*
X7810000Y-12900714D01*
X7838571Y-12886429D01*
X7852857Y-12872143D01*
X7867143Y-12843571D01*
X7867143Y-12772143D01*
X7852857Y-12743571D01*
X7838571Y-12729286D01*
X7810000Y-12715000D01*
X7752857Y-12715000D01*
X7724286Y-12729286D01*
X7710000Y-12743571D01*
X7695714Y-12772143D01*
X8052857Y-12600714D02*
X8081428Y-12600714D01*
X8110000Y-12615000D01*
X8124286Y-12629286D01*
X8138571Y-12657857D01*
X8152857Y-12715000D01*
X8152857Y-12786429D01*
X8138571Y-12843571D01*
X8124286Y-12872143D01*
X8110000Y-12886429D01*
X8081428Y-12900714D01*
X8052857Y-12900714D01*
X8024286Y-12886429D01*
X8010000Y-12872143D01*
X7995714Y-12843571D01*
X7981428Y-12786429D01*
X7981428Y-12715000D01*
X7995714Y-12657857D01*
X8010000Y-12629286D01*
X8024286Y-12615000D01*
X8052857Y-12600714D01*
X8281428Y-12900714D02*
X8281428Y-12700714D01*
X8281428Y-12729286D02*
X8295714Y-12715000D01*
X8324286Y-12700714D01*
X8367143Y-12700714D01*
X8395714Y-12715000D01*
X8410000Y-12743571D01*
X8410000Y-12900714D01*
X8410000Y-12743571D02*
X8424286Y-12715000D01*
X8452857Y-12700714D01*
X8495714Y-12700714D01*
X8524286Y-12715000D01*
X8538571Y-12743571D01*
X8538571Y-12900714D01*
X8681428Y-12900714D02*
X8681428Y-12700714D01*
X8681428Y-12729286D02*
X8695714Y-12715000D01*
X8724286Y-12700714D01*
X8767143Y-12700714D01*
X8795714Y-12715000D01*
X8810000Y-12743571D01*
X8810000Y-12900714D01*
X8810000Y-12743571D02*
X8824286Y-12715000D01*
X8852857Y-12700714D01*
X8895714Y-12700714D01*
X8924286Y-12715000D01*
X8938571Y-12743571D01*
X8938571Y-12900714D01*
X9524286Y-12586429D02*
X9267143Y-12972143D01*
X9910000Y-12600714D02*
X9938571Y-12600714D01*
X9967143Y-12615000D01*
X9981428Y-12629286D01*
X9995714Y-12657857D01*
X10010000Y-12715000D01*
X10010000Y-12786429D01*
X9995714Y-12843571D01*
X9981428Y-12872143D01*
X9967143Y-12886429D01*
X9938571Y-12900714D01*
X9910000Y-12900714D01*
X9881428Y-12886429D01*
X9867143Y-12872143D01*
X9852857Y-12843571D01*
X9838571Y-12786429D01*
X9838571Y-12715000D01*
X9852857Y-12657857D01*
X9867143Y-12629286D01*
X9881428Y-12615000D01*
X9910000Y-12600714D01*
X10138571Y-12872143D02*
X10152857Y-12886429D01*
X10138571Y-12900714D01*
X10124286Y-12886429D01*
X10138571Y-12872143D01*
X10138571Y-12900714D01*
X10338571Y-12600714D02*
X10367143Y-12600714D01*
X10395714Y-12615000D01*
X10410000Y-12629286D01*
X10424286Y-12657857D01*
X10438571Y-12715000D01*
X10438571Y-12786429D01*
X10424286Y-12843571D01*
X10410000Y-12872143D01*
X10395714Y-12886429D01*
X10367143Y-12900714D01*
X10338571Y-12900714D01*
X10310000Y-12886429D01*
X10295714Y-12872143D01*
X10281428Y-12843571D01*
X10267143Y-12786429D01*
X10267143Y-12715000D01*
X10281428Y-12657857D01*
X10295714Y-12629286D01*
X10310000Y-12615000D01*
X10338571Y-12600714D01*
X10552857Y-12629286D02*
X10567143Y-12615000D01*
X10595714Y-12600714D01*
X10667143Y-12600714D01*
X10695714Y-12615000D01*
X10710000Y-12629286D01*
X10724286Y-12657857D01*
X10724286Y-12686429D01*
X10710000Y-12729286D01*
X10538571Y-12900714D01*
X10724286Y-12900714D01*
X10981428Y-12700714D02*
X10981428Y-12900714D01*
X10910000Y-12586429D02*
X10838571Y-12800714D01*
X11024286Y-12800714D01*
X11124286Y-12600714D02*
X11124286Y-12657857D01*
X11238571Y-12600714D02*
X11238571Y-12657857D01*
X11681428Y-13015000D02*
X11667143Y-13000714D01*
X11638571Y-12957857D01*
X11624286Y-12929286D01*
X11610000Y-12886429D01*
X11595714Y-12815000D01*
X11595714Y-12757857D01*
X11610000Y-12686429D01*
X11624286Y-12643571D01*
X11638571Y-12615000D01*
X11667143Y-12572143D01*
X11681428Y-12557857D01*
X11781428Y-12629286D02*
X11795714Y-12615000D01*
X11824286Y-12600714D01*
X11895714Y-12600714D01*
X11924286Y-12615000D01*
X11938571Y-12629286D01*
X11952857Y-12657857D01*
X11952857Y-12686429D01*
X11938571Y-12729286D01*
X11767143Y-12900714D01*
X11952857Y-12900714D01*
X12238571Y-12900714D02*
X12067143Y-12900714D01*
X12152857Y-12900714D02*
X12152857Y-12600714D01*
X12124286Y-12643571D01*
X12095714Y-12672143D01*
X12067143Y-12686429D01*
X12595714Y-12900714D02*
X12595714Y-12600714D01*
X12724286Y-12900714D02*
X12724286Y-12743571D01*
X12710000Y-12715000D01*
X12681428Y-12700714D01*
X12638571Y-12700714D01*
X12610000Y-12715000D01*
X12595714Y-12729286D01*
X12910000Y-12900714D02*
X12881428Y-12886429D01*
X12867143Y-12872143D01*
X12852857Y-12843571D01*
X12852857Y-12757857D01*
X12867143Y-12729286D01*
X12881428Y-12715000D01*
X12910000Y-12700714D01*
X12952857Y-12700714D01*
X12981428Y-12715000D01*
X12995714Y-12729286D01*
X13010000Y-12757857D01*
X13010000Y-12843571D01*
X12995714Y-12872143D01*
X12981428Y-12886429D01*
X12952857Y-12900714D01*
X12910000Y-12900714D01*
X13181428Y-12900714D02*
X13152857Y-12886429D01*
X13138571Y-12857857D01*
X13138571Y-12600714D01*
X13410000Y-12886429D02*
X13381428Y-12900714D01*
X13324286Y-12900714D01*
X13295714Y-12886429D01*
X13281428Y-12857857D01*
X13281428Y-12743571D01*
X13295714Y-12715000D01*
X13324286Y-12700714D01*
X13381428Y-12700714D01*
X13410000Y-12715000D01*
X13424286Y-12743571D01*
X13424286Y-12772143D01*
X13281428Y-12800714D01*
X13538571Y-12886429D02*
X13567143Y-12900714D01*
X13624286Y-12900714D01*
X13652857Y-12886429D01*
X13667143Y-12857857D01*
X13667143Y-12843571D01*
X13652857Y-12815000D01*
X13624286Y-12800714D01*
X13581428Y-12800714D01*
X13552857Y-12786429D01*
X13538571Y-12757857D01*
X13538571Y-12743571D01*
X13552857Y-12715000D01*
X13581428Y-12700714D01*
X13624286Y-12700714D01*
X13652857Y-12715000D01*
X13767143Y-13015000D02*
X13781428Y-13000714D01*
X13810000Y-12957857D01*
X13824286Y-12929286D01*
X13838571Y-12886429D01*
X13852857Y-12815000D01*
X13852857Y-12757857D01*
X13838571Y-12686429D01*
X13824286Y-12643571D01*
X13810000Y-12615000D01*
X13781428Y-12572143D01*
X13767143Y-12557857D01*
X6995000Y-13161000D02*
G75*
G03*
X6995000Y-13161000I-40000J0D01*
G01*
X7338571Y-12996714D02*
X7367143Y-12996714D01*
X7395714Y-13011000D01*
X7410000Y-13025286D01*
X7424286Y-13053857D01*
X7438571Y-13111000D01*
X7438571Y-13182429D01*
X7424286Y-13239571D01*
X7410000Y-13268143D01*
X7395714Y-13282429D01*
X7367143Y-13296714D01*
X7338571Y-13296714D01*
X7310000Y-13282429D01*
X7295714Y-13268143D01*
X7281428Y-13239571D01*
X7267143Y-13182429D01*
X7267143Y-13111000D01*
X7281428Y-13053857D01*
X7295714Y-13025286D01*
X7310000Y-13011000D01*
X7338571Y-12996714D01*
X7567143Y-13268143D02*
X7581428Y-13282429D01*
X7567143Y-13296714D01*
X7552857Y-13282429D01*
X7567143Y-13268143D01*
X7567143Y-13296714D01*
X7752857Y-13125286D02*
X7724286Y-13111000D01*
X7710000Y-13096714D01*
X7695714Y-13068143D01*
X7695714Y-13053857D01*
X7710000Y-13025286D01*
X7724286Y-13011000D01*
X7752857Y-12996714D01*
X7810000Y-12996714D01*
X7838571Y-13011000D01*
X7852857Y-13025286D01*
X7867143Y-13053857D01*
X7867143Y-13068143D01*
X7852857Y-13096714D01*
X7838571Y-13111000D01*
X7810000Y-13125286D01*
X7752857Y-13125286D01*
X7724286Y-13139571D01*
X7710000Y-13153857D01*
X7695714Y-13182429D01*
X7695714Y-13239571D01*
X7710000Y-13268143D01*
X7724286Y-13282429D01*
X7752857Y-13296714D01*
X7810000Y-13296714D01*
X7838571Y-13282429D01*
X7852857Y-13268143D01*
X7867143Y-13239571D01*
X7867143Y-13182429D01*
X7852857Y-13153857D01*
X7838571Y-13139571D01*
X7810000Y-13125286D01*
X8052857Y-12996714D02*
X8081428Y-12996714D01*
X8110000Y-13011000D01*
X8124286Y-13025286D01*
X8138571Y-13053857D01*
X8152857Y-13111000D01*
X8152857Y-13182429D01*
X8138571Y-13239571D01*
X8124286Y-13268143D01*
X8110000Y-13282429D01*
X8081428Y-13296714D01*
X8052857Y-13296714D01*
X8024286Y-13282429D01*
X8010000Y-13268143D01*
X7995714Y-13239571D01*
X7981428Y-13182429D01*
X7981428Y-13111000D01*
X7995714Y-13053857D01*
X8010000Y-13025286D01*
X8024286Y-13011000D01*
X8052857Y-12996714D01*
X8281428Y-13296714D02*
X8281428Y-13096714D01*
X8281428Y-13125286D02*
X8295714Y-13111000D01*
X8324286Y-13096714D01*
X8367143Y-13096714D01*
X8395714Y-13111000D01*
X8410000Y-13139571D01*
X8410000Y-13296714D01*
X8410000Y-13139571D02*
X8424286Y-13111000D01*
X8452857Y-13096714D01*
X8495714Y-13096714D01*
X8524286Y-13111000D01*
X8538571Y-13139571D01*
X8538571Y-13296714D01*
X8681428Y-13296714D02*
X8681428Y-13096714D01*
X8681428Y-13125286D02*
X8695714Y-13111000D01*
X8724286Y-13096714D01*
X8767143Y-13096714D01*
X8795714Y-13111000D01*
X8810000Y-13139571D01*
X8810000Y-13296714D01*
X8810000Y-13139571D02*
X8824286Y-13111000D01*
X8852857Y-13096714D01*
X8895714Y-13096714D01*
X8924286Y-13111000D01*
X8938571Y-13139571D01*
X8938571Y-13296714D01*
X9524286Y-12982429D02*
X9267143Y-13368143D01*
X9910000Y-12996714D02*
X9938571Y-12996714D01*
X9967143Y-13011000D01*
X9981428Y-13025286D01*
X9995714Y-13053857D01*
X10010000Y-13111000D01*
X10010000Y-13182429D01*
X9995714Y-13239571D01*
X9981428Y-13268143D01*
X9967143Y-13282429D01*
X9938571Y-13296714D01*
X9910000Y-13296714D01*
X9881428Y-13282429D01*
X9867143Y-13268143D01*
X9852857Y-13239571D01*
X9838571Y-13182429D01*
X9838571Y-13111000D01*
X9852857Y-13053857D01*
X9867143Y-13025286D01*
X9881428Y-13011000D01*
X9910000Y-12996714D01*
X10138571Y-13268143D02*
X10152857Y-13282429D01*
X10138571Y-13296714D01*
X10124286Y-13282429D01*
X10138571Y-13268143D01*
X10138571Y-13296714D01*
X10338571Y-12996714D02*
X10367143Y-12996714D01*
X10395714Y-13011000D01*
X10410000Y-13025286D01*
X10424286Y-13053857D01*
X10438571Y-13111000D01*
X10438571Y-13182429D01*
X10424286Y-13239571D01*
X10410000Y-13268143D01*
X10395714Y-13282429D01*
X10367143Y-13296714D01*
X10338571Y-13296714D01*
X10310000Y-13282429D01*
X10295714Y-13268143D01*
X10281428Y-13239571D01*
X10267143Y-13182429D01*
X10267143Y-13111000D01*
X10281428Y-13053857D01*
X10295714Y-13025286D01*
X10310000Y-13011000D01*
X10338571Y-12996714D01*
X10538571Y-12996714D02*
X10724286Y-12996714D01*
X10624286Y-13111000D01*
X10667143Y-13111000D01*
X10695714Y-13125286D01*
X10710000Y-13139571D01*
X10724286Y-13168143D01*
X10724286Y-13239571D01*
X10710000Y-13268143D01*
X10695714Y-13282429D01*
X10667143Y-13296714D01*
X10581428Y-13296714D01*
X10552857Y-13282429D01*
X10538571Y-13268143D01*
X11010000Y-13296714D02*
X10838571Y-13296714D01*
X10924286Y-13296714D02*
X10924286Y-12996714D01*
X10895714Y-13039571D01*
X10867143Y-13068143D01*
X10838571Y-13082429D01*
X11124286Y-12996714D02*
X11124286Y-13053857D01*
X11238571Y-12996714D02*
X11238571Y-13053857D01*
X11681428Y-13411000D02*
X11667143Y-13396714D01*
X11638571Y-13353857D01*
X11624286Y-13325286D01*
X11610000Y-13282429D01*
X11595714Y-13211000D01*
X11595714Y-13153857D01*
X11610000Y-13082429D01*
X11624286Y-13039571D01*
X11638571Y-13011000D01*
X11667143Y-12968143D01*
X11681428Y-12953857D01*
X11938571Y-12996714D02*
X11795714Y-12996714D01*
X11781428Y-13139571D01*
X11795714Y-13125286D01*
X11824286Y-13111000D01*
X11895714Y-13111000D01*
X11924286Y-13125286D01*
X11938571Y-13139571D01*
X11952857Y-13168143D01*
X11952857Y-13239571D01*
X11938571Y-13268143D01*
X11924286Y-13282429D01*
X11895714Y-13296714D01*
X11824286Y-13296714D01*
X11795714Y-13282429D01*
X11781428Y-13268143D01*
X12138571Y-12996714D02*
X12167143Y-12996714D01*
X12195714Y-13011000D01*
X12210000Y-13025286D01*
X12224286Y-13053857D01*
X12238571Y-13111000D01*
X12238571Y-13182429D01*
X12224286Y-13239571D01*
X12210000Y-13268143D01*
X12195714Y-13282429D01*
X12167143Y-13296714D01*
X12138571Y-13296714D01*
X12110000Y-13282429D01*
X12095714Y-13268143D01*
X12081428Y-13239571D01*
X12067143Y-13182429D01*
X12067143Y-13111000D01*
X12081428Y-13053857D01*
X12095714Y-13025286D01*
X12110000Y-13011000D01*
X12138571Y-12996714D01*
X12595714Y-13296714D02*
X12595714Y-12996714D01*
X12724286Y-13296714D02*
X12724286Y-13139571D01*
X12710000Y-13111000D01*
X12681428Y-13096714D01*
X12638571Y-13096714D01*
X12610000Y-13111000D01*
X12595714Y-13125286D01*
X12910000Y-13296714D02*
X12881428Y-13282429D01*
X12867143Y-13268143D01*
X12852857Y-13239571D01*
X12852857Y-13153857D01*
X12867143Y-13125286D01*
X12881428Y-13111000D01*
X12910000Y-13096714D01*
X12952857Y-13096714D01*
X12981428Y-13111000D01*
X12995714Y-13125286D01*
X13010000Y-13153857D01*
X13010000Y-13239571D01*
X12995714Y-13268143D01*
X12981428Y-13282429D01*
X12952857Y-13296714D01*
X12910000Y-13296714D01*
X13181428Y-13296714D02*
X13152857Y-13282429D01*
X13138571Y-13253857D01*
X13138571Y-12996714D01*
X13410000Y-13282429D02*
X13381428Y-13296714D01*
X13324286Y-13296714D01*
X13295714Y-13282429D01*
X13281428Y-13253857D01*
X13281428Y-13139571D01*
X13295714Y-13111000D01*
X13324286Y-13096714D01*
X13381428Y-13096714D01*
X13410000Y-13111000D01*
X13424286Y-13139571D01*
X13424286Y-13168143D01*
X13281428Y-13196714D01*
X13538571Y-13282429D02*
X13567143Y-13296714D01*
X13624286Y-13296714D01*
X13652857Y-13282429D01*
X13667143Y-13253857D01*
X13667143Y-13239571D01*
X13652857Y-13211000D01*
X13624286Y-13196714D01*
X13581428Y-13196714D01*
X13552857Y-13182429D01*
X13538571Y-13153857D01*
X13538571Y-13139571D01*
X13552857Y-13111000D01*
X13581428Y-13096714D01*
X13624286Y-13096714D01*
X13652857Y-13111000D01*
X13767143Y-13411000D02*
X13781428Y-13396714D01*
X13810000Y-13353857D01*
X13824286Y-13325286D01*
X13838571Y-13282429D01*
X13852857Y-13211000D01*
X13852857Y-13153857D01*
X13838571Y-13082429D01*
X13824286Y-13039571D01*
X13810000Y-13011000D01*
X13781428Y-12968143D01*
X13767143Y-12953857D01*
X6945000Y-13507000D02*
X6945000Y-13607000D01*
X6895000Y-13557000D02*
X6995000Y-13557000D01*
X7438571Y-13692714D02*
X7267143Y-13692714D01*
X7352857Y-13692714D02*
X7352857Y-13392714D01*
X7324286Y-13435571D01*
X7295714Y-13464143D01*
X7267143Y-13478429D01*
X7567143Y-13664143D02*
X7581428Y-13678429D01*
X7567143Y-13692714D01*
X7552857Y-13678429D01*
X7567143Y-13664143D01*
X7567143Y-13692714D01*
X7767143Y-13392714D02*
X7795714Y-13392714D01*
X7824286Y-13407000D01*
X7838571Y-13421286D01*
X7852857Y-13449857D01*
X7867143Y-13507000D01*
X7867143Y-13578429D01*
X7852857Y-13635571D01*
X7838571Y-13664143D01*
X7824286Y-13678429D01*
X7795714Y-13692714D01*
X7767143Y-13692714D01*
X7738571Y-13678429D01*
X7724286Y-13664143D01*
X7710000Y-13635571D01*
X7695714Y-13578429D01*
X7695714Y-13507000D01*
X7710000Y-13449857D01*
X7724286Y-13421286D01*
X7738571Y-13407000D01*
X7767143Y-13392714D01*
X8052857Y-13392714D02*
X8081428Y-13392714D01*
X8110000Y-13407000D01*
X8124286Y-13421286D01*
X8138571Y-13449857D01*
X8152857Y-13507000D01*
X8152857Y-13578429D01*
X8138571Y-13635571D01*
X8124286Y-13664143D01*
X8110000Y-13678429D01*
X8081428Y-13692714D01*
X8052857Y-13692714D01*
X8024286Y-13678429D01*
X8010000Y-13664143D01*
X7995714Y-13635571D01*
X7981428Y-13578429D01*
X7981428Y-13507000D01*
X7995714Y-13449857D01*
X8010000Y-13421286D01*
X8024286Y-13407000D01*
X8052857Y-13392714D01*
X8281428Y-13692714D02*
X8281428Y-13492714D01*
X8281428Y-13521286D02*
X8295714Y-13507000D01*
X8324286Y-13492714D01*
X8367143Y-13492714D01*
X8395714Y-13507000D01*
X8410000Y-13535571D01*
X8410000Y-13692714D01*
X8410000Y-13535571D02*
X8424286Y-13507000D01*
X8452857Y-13492714D01*
X8495714Y-13492714D01*
X8524286Y-13507000D01*
X8538571Y-13535571D01*
X8538571Y-13692714D01*
X8681428Y-13692714D02*
X8681428Y-13492714D01*
X8681428Y-13521286D02*
X8695714Y-13507000D01*
X8724286Y-13492714D01*
X8767143Y-13492714D01*
X8795714Y-13507000D01*
X8810000Y-13535571D01*
X8810000Y-13692714D01*
X8810000Y-13535571D02*
X8824286Y-13507000D01*
X8852857Y-13492714D01*
X8895714Y-13492714D01*
X8924286Y-13507000D01*
X8938571Y-13535571D01*
X8938571Y-13692714D01*
X9524286Y-13378429D02*
X9267143Y-13764143D01*
X9910000Y-13392714D02*
X9938571Y-13392714D01*
X9967143Y-13407000D01*
X9981428Y-13421286D01*
X9995714Y-13449857D01*
X10010000Y-13507000D01*
X10010000Y-13578429D01*
X9995714Y-13635571D01*
X9981428Y-13664143D01*
X9967143Y-13678429D01*
X9938571Y-13692714D01*
X9910000Y-13692714D01*
X9881428Y-13678429D01*
X9867143Y-13664143D01*
X9852857Y-13635571D01*
X9838571Y-13578429D01*
X9838571Y-13507000D01*
X9852857Y-13449857D01*
X9867143Y-13421286D01*
X9881428Y-13407000D01*
X9910000Y-13392714D01*
X10138571Y-13664143D02*
X10152857Y-13678429D01*
X10138571Y-13692714D01*
X10124286Y-13678429D01*
X10138571Y-13664143D01*
X10138571Y-13692714D01*
X10338571Y-13392714D02*
X10367143Y-13392714D01*
X10395714Y-13407000D01*
X10410000Y-13421286D01*
X10424286Y-13449857D01*
X10438571Y-13507000D01*
X10438571Y-13578429D01*
X10424286Y-13635571D01*
X10410000Y-13664143D01*
X10395714Y-13678429D01*
X10367143Y-13692714D01*
X10338571Y-13692714D01*
X10310000Y-13678429D01*
X10295714Y-13664143D01*
X10281428Y-13635571D01*
X10267143Y-13578429D01*
X10267143Y-13507000D01*
X10281428Y-13449857D01*
X10295714Y-13421286D01*
X10310000Y-13407000D01*
X10338571Y-13392714D01*
X10538571Y-13392714D02*
X10724286Y-13392714D01*
X10624286Y-13507000D01*
X10667143Y-13507000D01*
X10695714Y-13521286D01*
X10710000Y-13535571D01*
X10724286Y-13564143D01*
X10724286Y-13635571D01*
X10710000Y-13664143D01*
X10695714Y-13678429D01*
X10667143Y-13692714D01*
X10581428Y-13692714D01*
X10552857Y-13678429D01*
X10538571Y-13664143D01*
X10867143Y-13692714D02*
X10924286Y-13692714D01*
X10952857Y-13678429D01*
X10967143Y-13664143D01*
X10995714Y-13621286D01*
X11010000Y-13564143D01*
X11010000Y-13449857D01*
X10995714Y-13421286D01*
X10981428Y-13407000D01*
X10952857Y-13392714D01*
X10895714Y-13392714D01*
X10867143Y-13407000D01*
X10852857Y-13421286D01*
X10838571Y-13449857D01*
X10838571Y-13521286D01*
X10852857Y-13549857D01*
X10867143Y-13564143D01*
X10895714Y-13578429D01*
X10952857Y-13578429D01*
X10981428Y-13564143D01*
X10995714Y-13549857D01*
X11010000Y-13521286D01*
X11124286Y-13392714D02*
X11124286Y-13449857D01*
X11238571Y-13392714D02*
X11238571Y-13449857D01*
X11681428Y-13807000D02*
X11667143Y-13792714D01*
X11638571Y-13749857D01*
X11624286Y-13721286D01*
X11610000Y-13678429D01*
X11595714Y-13607000D01*
X11595714Y-13549857D01*
X11610000Y-13478429D01*
X11624286Y-13435571D01*
X11638571Y-13407000D01*
X11667143Y-13364143D01*
X11681428Y-13349857D01*
X11938571Y-13392714D02*
X11795714Y-13392714D01*
X11781428Y-13535571D01*
X11795714Y-13521286D01*
X11824286Y-13507000D01*
X11895714Y-13507000D01*
X11924286Y-13521286D01*
X11938571Y-13535571D01*
X11952857Y-13564143D01*
X11952857Y-13635571D01*
X11938571Y-13664143D01*
X11924286Y-13678429D01*
X11895714Y-13692714D01*
X11824286Y-13692714D01*
X11795714Y-13678429D01*
X11781428Y-13664143D01*
X12310000Y-13692714D02*
X12310000Y-13392714D01*
X12438571Y-13692714D02*
X12438571Y-13535571D01*
X12424286Y-13507000D01*
X12395714Y-13492714D01*
X12352857Y-13492714D01*
X12324286Y-13507000D01*
X12310000Y-13521286D01*
X12624286Y-13692714D02*
X12595714Y-13678429D01*
X12581428Y-13664143D01*
X12567143Y-13635571D01*
X12567143Y-13549857D01*
X12581428Y-13521286D01*
X12595714Y-13507000D01*
X12624286Y-13492714D01*
X12667143Y-13492714D01*
X12695714Y-13507000D01*
X12710000Y-13521286D01*
X12724286Y-13549857D01*
X12724286Y-13635571D01*
X12710000Y-13664143D01*
X12695714Y-13678429D01*
X12667143Y-13692714D01*
X12624286Y-13692714D01*
X12895714Y-13692714D02*
X12867143Y-13678429D01*
X12852857Y-13649857D01*
X12852857Y-13392714D01*
X13124286Y-13678429D02*
X13095714Y-13692714D01*
X13038571Y-13692714D01*
X13010000Y-13678429D01*
X12995714Y-13649857D01*
X12995714Y-13535571D01*
X13010000Y-13507000D01*
X13038571Y-13492714D01*
X13095714Y-13492714D01*
X13124286Y-13507000D01*
X13138571Y-13535571D01*
X13138571Y-13564143D01*
X12995714Y-13592714D01*
X13252857Y-13678429D02*
X13281428Y-13692714D01*
X13338571Y-13692714D01*
X13367143Y-13678429D01*
X13381428Y-13649857D01*
X13381428Y-13635571D01*
X13367143Y-13607000D01*
X13338571Y-13592714D01*
X13295714Y-13592714D01*
X13267143Y-13578429D01*
X13252857Y-13549857D01*
X13252857Y-13535571D01*
X13267143Y-13507000D01*
X13295714Y-13492714D01*
X13338571Y-13492714D01*
X13367143Y-13507000D01*
X13481428Y-13807000D02*
X13495714Y-13792714D01*
X13524286Y-13749857D01*
X13538571Y-13721286D01*
X13552857Y-13678429D01*
X13567143Y-13607000D01*
X13567143Y-13549857D01*
X13552857Y-13478429D01*
X13538571Y-13435571D01*
X13524286Y-13407000D01*
X13495714Y-13364143D01*
X13481428Y-13349857D01*
X6978891Y-13991891D02*
X6978891Y-13914109D01*
X6901109Y-13914109D01*
X6901109Y-13991891D01*
X6978891Y-13991891D01*
X7438571Y-14088714D02*
X7267143Y-14088714D01*
X7352857Y-14088714D02*
X7352857Y-13788714D01*
X7324286Y-13831571D01*
X7295714Y-13860143D01*
X7267143Y-13874429D01*
X7567143Y-14060143D02*
X7581428Y-14074429D01*
X7567143Y-14088714D01*
X7552857Y-14074429D01*
X7567143Y-14060143D01*
X7567143Y-14088714D01*
X7867143Y-14088714D02*
X7695714Y-14088714D01*
X7781428Y-14088714D02*
X7781428Y-13788714D01*
X7752857Y-13831571D01*
X7724286Y-13860143D01*
X7695714Y-13874429D01*
X8052857Y-13788714D02*
X8081428Y-13788714D01*
X8110000Y-13803000D01*
X8124286Y-13817286D01*
X8138571Y-13845857D01*
X8152857Y-13903000D01*
X8152857Y-13974429D01*
X8138571Y-14031571D01*
X8124286Y-14060143D01*
X8110000Y-14074429D01*
X8081428Y-14088714D01*
X8052857Y-14088714D01*
X8024286Y-14074429D01*
X8010000Y-14060143D01*
X7995714Y-14031571D01*
X7981428Y-13974429D01*
X7981428Y-13903000D01*
X7995714Y-13845857D01*
X8010000Y-13817286D01*
X8024286Y-13803000D01*
X8052857Y-13788714D01*
X8281428Y-14088714D02*
X8281428Y-13888714D01*
X8281428Y-13917286D02*
X8295714Y-13903000D01*
X8324286Y-13888714D01*
X8367143Y-13888714D01*
X8395714Y-13903000D01*
X8410000Y-13931571D01*
X8410000Y-14088714D01*
X8410000Y-13931571D02*
X8424286Y-13903000D01*
X8452857Y-13888714D01*
X8495714Y-13888714D01*
X8524286Y-13903000D01*
X8538571Y-13931571D01*
X8538571Y-14088714D01*
X8681428Y-14088714D02*
X8681428Y-13888714D01*
X8681428Y-13917286D02*
X8695714Y-13903000D01*
X8724286Y-13888714D01*
X8767143Y-13888714D01*
X8795714Y-13903000D01*
X8810000Y-13931571D01*
X8810000Y-14088714D01*
X8810000Y-13931571D02*
X8824286Y-13903000D01*
X8852857Y-13888714D01*
X8895714Y-13888714D01*
X8924286Y-13903000D01*
X8938571Y-13931571D01*
X8938571Y-14088714D01*
X9524286Y-13774429D02*
X9267143Y-14160143D01*
X9910000Y-13788714D02*
X9938571Y-13788714D01*
X9967143Y-13803000D01*
X9981428Y-13817286D01*
X9995714Y-13845857D01*
X10010000Y-13903000D01*
X10010000Y-13974429D01*
X9995714Y-14031571D01*
X9981428Y-14060143D01*
X9967143Y-14074429D01*
X9938571Y-14088714D01*
X9910000Y-14088714D01*
X9881428Y-14074429D01*
X9867143Y-14060143D01*
X9852857Y-14031571D01*
X9838571Y-13974429D01*
X9838571Y-13903000D01*
X9852857Y-13845857D01*
X9867143Y-13817286D01*
X9881428Y-13803000D01*
X9910000Y-13788714D01*
X10138571Y-14060143D02*
X10152857Y-14074429D01*
X10138571Y-14088714D01*
X10124286Y-14074429D01*
X10138571Y-14060143D01*
X10138571Y-14088714D01*
X10338571Y-13788714D02*
X10367143Y-13788714D01*
X10395714Y-13803000D01*
X10410000Y-13817286D01*
X10424286Y-13845857D01*
X10438571Y-13903000D01*
X10438571Y-13974429D01*
X10424286Y-14031571D01*
X10410000Y-14060143D01*
X10395714Y-14074429D01*
X10367143Y-14088714D01*
X10338571Y-14088714D01*
X10310000Y-14074429D01*
X10295714Y-14060143D01*
X10281428Y-14031571D01*
X10267143Y-13974429D01*
X10267143Y-13903000D01*
X10281428Y-13845857D01*
X10295714Y-13817286D01*
X10310000Y-13803000D01*
X10338571Y-13788714D01*
X10695714Y-13888714D02*
X10695714Y-14088714D01*
X10624286Y-13774429D02*
X10552857Y-13988714D01*
X10738571Y-13988714D01*
X10824286Y-13788714D02*
X11010000Y-13788714D01*
X10910000Y-13903000D01*
X10952857Y-13903000D01*
X10981428Y-13917286D01*
X10995714Y-13931571D01*
X11010000Y-13960143D01*
X11010000Y-14031571D01*
X10995714Y-14060143D01*
X10981428Y-14074429D01*
X10952857Y-14088714D01*
X10867143Y-14088714D01*
X10838571Y-14074429D01*
X10824286Y-14060143D01*
X11124286Y-13788714D02*
X11124286Y-13845857D01*
X11238571Y-13788714D02*
X11238571Y-13845857D01*
X11681428Y-14203000D02*
X11667143Y-14188714D01*
X11638571Y-14145857D01*
X11624286Y-14117286D01*
X11610000Y-14074429D01*
X11595714Y-14003000D01*
X11595714Y-13945857D01*
X11610000Y-13874429D01*
X11624286Y-13831571D01*
X11638571Y-13803000D01*
X11667143Y-13760143D01*
X11681428Y-13745857D01*
X11952857Y-14088714D02*
X11781428Y-14088714D01*
X11867143Y-14088714D02*
X11867143Y-13788714D01*
X11838571Y-13831571D01*
X11810000Y-13860143D01*
X11781428Y-13874429D01*
X12124286Y-13917286D02*
X12095714Y-13903000D01*
X12081428Y-13888714D01*
X12067143Y-13860143D01*
X12067143Y-13845857D01*
X12081428Y-13817286D01*
X12095714Y-13803000D01*
X12124286Y-13788714D01*
X12181428Y-13788714D01*
X12210000Y-13803000D01*
X12224286Y-13817286D01*
X12238571Y-13845857D01*
X12238571Y-13860143D01*
X12224286Y-13888714D01*
X12210000Y-13903000D01*
X12181428Y-13917286D01*
X12124286Y-13917286D01*
X12095714Y-13931571D01*
X12081428Y-13945857D01*
X12067143Y-13974429D01*
X12067143Y-14031571D01*
X12081428Y-14060143D01*
X12095714Y-14074429D01*
X12124286Y-14088714D01*
X12181428Y-14088714D01*
X12210000Y-14074429D01*
X12224286Y-14060143D01*
X12238571Y-14031571D01*
X12238571Y-13974429D01*
X12224286Y-13945857D01*
X12210000Y-13931571D01*
X12181428Y-13917286D01*
X12595714Y-14088714D02*
X12595714Y-13788714D01*
X12724286Y-14088714D02*
X12724286Y-13931571D01*
X12710000Y-13903000D01*
X12681428Y-13888714D01*
X12638571Y-13888714D01*
X12610000Y-13903000D01*
X12595714Y-13917286D01*
X12910000Y-14088714D02*
X12881428Y-14074429D01*
X12867143Y-14060143D01*
X12852857Y-14031571D01*
X12852857Y-13945857D01*
X12867143Y-13917286D01*
X12881428Y-13903000D01*
X12910000Y-13888714D01*
X12952857Y-13888714D01*
X12981428Y-13903000D01*
X12995714Y-13917286D01*
X13010000Y-13945857D01*
X13010000Y-14031571D01*
X12995714Y-14060143D01*
X12981428Y-14074429D01*
X12952857Y-14088714D01*
X12910000Y-14088714D01*
X13181428Y-14088714D02*
X13152857Y-14074429D01*
X13138571Y-14045857D01*
X13138571Y-13788714D01*
X13410000Y-14074429D02*
X13381428Y-14088714D01*
X13324286Y-14088714D01*
X13295714Y-14074429D01*
X13281428Y-14045857D01*
X13281428Y-13931571D01*
X13295714Y-13903000D01*
X13324286Y-13888714D01*
X13381428Y-13888714D01*
X13410000Y-13903000D01*
X13424286Y-13931571D01*
X13424286Y-13960143D01*
X13281428Y-13988714D01*
X13538571Y-14074429D02*
X13567143Y-14088714D01*
X13624286Y-14088714D01*
X13652857Y-14074429D01*
X13667143Y-14045857D01*
X13667143Y-14031571D01*
X13652857Y-14003000D01*
X13624286Y-13988714D01*
X13581428Y-13988714D01*
X13552857Y-13974429D01*
X13538571Y-13945857D01*
X13538571Y-13931571D01*
X13552857Y-13903000D01*
X13581428Y-13888714D01*
X13624286Y-13888714D01*
X13652857Y-13903000D01*
X13767143Y-14203000D02*
X13781428Y-14188714D01*
X13810000Y-14145857D01*
X13824286Y-14117286D01*
X13838571Y-14074429D01*
X13852857Y-14003000D01*
X13852857Y-13945857D01*
X13838571Y-13874429D01*
X13824286Y-13831571D01*
X13810000Y-13803000D01*
X13781428Y-13760143D01*
X13767143Y-13745857D01*
M02*
