%TF.GenerationSoftware,KiCad,Pcbnew,(5.1.9)-1*%
%TF.CreationDate,2021-08-22T04:22:43+05:30*%
%TF.ProjectId,G18_RECEIVER_laser_communication_system,4731385f-5245-4434-9549-5645525f6c61,rev?*%
%TF.SameCoordinates,Original*%
%TF.FileFunction,Legend,Bot*%
%TF.FilePolarity,Positive*%
%FSLAX46Y46*%
G04 Gerber Fmt 4.6, Leading zero omitted, Abs format (unit mm)*
G04 Created by KiCad (PCBNEW (5.1.9)-1) date 2021-08-22 04:22:43*
%MOMM*%
%LPD*%
G01*
G04 APERTURE LIST*
%ADD10C,0.150000*%
G04 APERTURE END LIST*
D10*
X135521428Y-94966666D02*
X135521428Y-94633333D01*
X134997619Y-94490476D02*
X134997619Y-94966666D01*
X135997619Y-94966666D01*
X135997619Y-94490476D01*
X135521428Y-94061904D02*
X135521428Y-93728571D01*
X134997619Y-93585714D02*
X134997619Y-94061904D01*
X135997619Y-94061904D01*
X135997619Y-93585714D01*
X135997619Y-93252380D02*
X135997619Y-92633333D01*
X135616666Y-92966666D01*
X135616666Y-92823809D01*
X135569047Y-92728571D01*
X135521428Y-92680952D01*
X135426190Y-92633333D01*
X135188095Y-92633333D01*
X135092857Y-92680952D01*
X135045238Y-92728571D01*
X134997619Y-92823809D01*
X134997619Y-93109523D01*
X135045238Y-93204761D01*
X135092857Y-93252380D01*
X135902380Y-92252380D02*
X135950000Y-92204761D01*
X135997619Y-92109523D01*
X135997619Y-91871428D01*
X135950000Y-91776190D01*
X135902380Y-91728571D01*
X135807142Y-91680952D01*
X135711904Y-91680952D01*
X135569047Y-91728571D01*
X134997619Y-92300000D01*
X134997619Y-91680952D01*
X135902380Y-91300000D02*
X135950000Y-91252380D01*
X135997619Y-91157142D01*
X135997619Y-90919047D01*
X135950000Y-90823809D01*
X135902380Y-90776190D01*
X135807142Y-90728571D01*
X135711904Y-90728571D01*
X135569047Y-90776190D01*
X134997619Y-91347619D01*
X134997619Y-90728571D01*
X134664285Y-89300000D02*
X136092857Y-89300000D01*
X135950000Y-87300000D02*
X135997619Y-87395238D01*
X135997619Y-87538095D01*
X135950000Y-87680952D01*
X135854761Y-87776190D01*
X135759523Y-87823809D01*
X135569047Y-87871428D01*
X135426190Y-87871428D01*
X135235714Y-87823809D01*
X135140476Y-87776190D01*
X135045238Y-87680952D01*
X134997619Y-87538095D01*
X134997619Y-87442857D01*
X135045238Y-87300000D01*
X135092857Y-87252380D01*
X135426190Y-87252380D01*
X135426190Y-87442857D01*
X134997619Y-86300000D02*
X134997619Y-86871428D01*
X134997619Y-86585714D02*
X135997619Y-86585714D01*
X135854761Y-86680952D01*
X135759523Y-86776190D01*
X135711904Y-86871428D01*
X135569047Y-85728571D02*
X135616666Y-85823809D01*
X135664285Y-85871428D01*
X135759523Y-85919047D01*
X135807142Y-85919047D01*
X135902380Y-85871428D01*
X135950000Y-85823809D01*
X135997619Y-85728571D01*
X135997619Y-85538095D01*
X135950000Y-85442857D01*
X135902380Y-85395238D01*
X135807142Y-85347619D01*
X135759523Y-85347619D01*
X135664285Y-85395238D01*
X135616666Y-85442857D01*
X135569047Y-85538095D01*
X135569047Y-85728571D01*
X135521428Y-85823809D01*
X135473809Y-85871428D01*
X135378571Y-85919047D01*
X135188095Y-85919047D01*
X135092857Y-85871428D01*
X135045238Y-85823809D01*
X134997619Y-85728571D01*
X134997619Y-85538095D01*
X135045238Y-85442857D01*
X135092857Y-85395238D01*
X135188095Y-85347619D01*
X135378571Y-85347619D01*
X135473809Y-85395238D01*
X135521428Y-85442857D01*
X135569047Y-85538095D01*
X136497619Y-100192857D02*
X136497619Y-100669047D01*
X137497619Y-100669047D01*
X136783333Y-99907142D02*
X136783333Y-99430952D01*
X136497619Y-100002380D02*
X137497619Y-99669047D01*
X136497619Y-99335714D01*
X136545238Y-99050000D02*
X136497619Y-98907142D01*
X136497619Y-98669047D01*
X136545238Y-98573809D01*
X136592857Y-98526190D01*
X136688095Y-98478571D01*
X136783333Y-98478571D01*
X136878571Y-98526190D01*
X136926190Y-98573809D01*
X136973809Y-98669047D01*
X137021428Y-98859523D01*
X137069047Y-98954761D01*
X137116666Y-99002380D01*
X137211904Y-99050000D01*
X137307142Y-99050000D01*
X137402380Y-99002380D01*
X137450000Y-98954761D01*
X137497619Y-98859523D01*
X137497619Y-98621428D01*
X137450000Y-98478571D01*
X137021428Y-98050000D02*
X137021428Y-97716666D01*
X136497619Y-97573809D02*
X136497619Y-98050000D01*
X137497619Y-98050000D01*
X137497619Y-97573809D01*
X136497619Y-96573809D02*
X136973809Y-96907142D01*
X136497619Y-97145238D02*
X137497619Y-97145238D01*
X137497619Y-96764285D01*
X137450000Y-96669047D01*
X137402380Y-96621428D01*
X137307142Y-96573809D01*
X137164285Y-96573809D01*
X137069047Y-96621428D01*
X137021428Y-96669047D01*
X136973809Y-96764285D01*
X136973809Y-97145238D01*
X136592857Y-94811904D02*
X136545238Y-94859523D01*
X136497619Y-95002380D01*
X136497619Y-95097619D01*
X136545238Y-95240476D01*
X136640476Y-95335714D01*
X136735714Y-95383333D01*
X136926190Y-95430952D01*
X137069047Y-95430952D01*
X137259523Y-95383333D01*
X137354761Y-95335714D01*
X137450000Y-95240476D01*
X137497619Y-95097619D01*
X137497619Y-95002380D01*
X137450000Y-94859523D01*
X137402380Y-94811904D01*
X137497619Y-94192857D02*
X137497619Y-94002380D01*
X137450000Y-93907142D01*
X137354761Y-93811904D01*
X137164285Y-93764285D01*
X136830952Y-93764285D01*
X136640476Y-93811904D01*
X136545238Y-93907142D01*
X136497619Y-94002380D01*
X136497619Y-94192857D01*
X136545238Y-94288095D01*
X136640476Y-94383333D01*
X136830952Y-94430952D01*
X137164285Y-94430952D01*
X137354761Y-94383333D01*
X137450000Y-94288095D01*
X137497619Y-94192857D01*
X136497619Y-93335714D02*
X137497619Y-93335714D01*
X136783333Y-93002380D01*
X137497619Y-92669047D01*
X136497619Y-92669047D01*
X136497619Y-92192857D02*
X137497619Y-92192857D01*
X136783333Y-91859523D01*
X137497619Y-91526190D01*
X136497619Y-91526190D01*
X137497619Y-91050000D02*
X136688095Y-91050000D01*
X136592857Y-91002380D01*
X136545238Y-90954761D01*
X136497619Y-90859523D01*
X136497619Y-90669047D01*
X136545238Y-90573809D01*
X136592857Y-90526190D01*
X136688095Y-90478571D01*
X137497619Y-90478571D01*
X136497619Y-90002380D02*
X137497619Y-90002380D01*
X136497619Y-89430952D01*
X137497619Y-89430952D01*
X136497619Y-88954761D02*
X137497619Y-88954761D01*
X136592857Y-87907142D02*
X136545238Y-87954761D01*
X136497619Y-88097619D01*
X136497619Y-88192857D01*
X136545238Y-88335714D01*
X136640476Y-88430952D01*
X136735714Y-88478571D01*
X136926190Y-88526190D01*
X137069047Y-88526190D01*
X137259523Y-88478571D01*
X137354761Y-88430952D01*
X137450000Y-88335714D01*
X137497619Y-88192857D01*
X137497619Y-88097619D01*
X137450000Y-87954761D01*
X137402380Y-87907142D01*
X136783333Y-87526190D02*
X136783333Y-87050000D01*
X136497619Y-87621428D02*
X137497619Y-87288095D01*
X136497619Y-86954761D01*
X137497619Y-86764285D02*
X137497619Y-86192857D01*
X136497619Y-86478571D02*
X137497619Y-86478571D01*
X136497619Y-85859523D02*
X137497619Y-85859523D01*
X137497619Y-85192857D02*
X137497619Y-85002380D01*
X137450000Y-84907142D01*
X137354761Y-84811904D01*
X137164285Y-84764285D01*
X136830952Y-84764285D01*
X136640476Y-84811904D01*
X136545238Y-84907142D01*
X136497619Y-85002380D01*
X136497619Y-85192857D01*
X136545238Y-85288095D01*
X136640476Y-85383333D01*
X136830952Y-85430952D01*
X137164285Y-85430952D01*
X137354761Y-85383333D01*
X137450000Y-85288095D01*
X137497619Y-85192857D01*
X136497619Y-84335714D02*
X137497619Y-84335714D01*
X136497619Y-83764285D01*
X137497619Y-83764285D01*
X136545238Y-82573809D02*
X136497619Y-82430952D01*
X136497619Y-82192857D01*
X136545238Y-82097619D01*
X136592857Y-82050000D01*
X136688095Y-82002380D01*
X136783333Y-82002380D01*
X136878571Y-82050000D01*
X136926190Y-82097619D01*
X136973809Y-82192857D01*
X137021428Y-82383333D01*
X137069047Y-82478571D01*
X137116666Y-82526190D01*
X137211904Y-82573809D01*
X137307142Y-82573809D01*
X137402380Y-82526190D01*
X137450000Y-82478571D01*
X137497619Y-82383333D01*
X137497619Y-82145238D01*
X137450000Y-82002380D01*
X136973809Y-81383333D02*
X136497619Y-81383333D01*
X137497619Y-81716666D02*
X136973809Y-81383333D01*
X137497619Y-81050000D01*
X136545238Y-80764285D02*
X136497619Y-80621428D01*
X136497619Y-80383333D01*
X136545238Y-80288095D01*
X136592857Y-80240476D01*
X136688095Y-80192857D01*
X136783333Y-80192857D01*
X136878571Y-80240476D01*
X136926190Y-80288095D01*
X136973809Y-80383333D01*
X137021428Y-80573809D01*
X137069047Y-80669047D01*
X137116666Y-80716666D01*
X137211904Y-80764285D01*
X137307142Y-80764285D01*
X137402380Y-80716666D01*
X137450000Y-80669047D01*
X137497619Y-80573809D01*
X137497619Y-80335714D01*
X137450000Y-80192857D01*
X137497619Y-79907142D02*
X137497619Y-79335714D01*
X136497619Y-79621428D02*
X137497619Y-79621428D01*
X137021428Y-79002380D02*
X137021428Y-78669047D01*
X136497619Y-78526190D02*
X136497619Y-79002380D01*
X137497619Y-79002380D01*
X137497619Y-78526190D01*
X136497619Y-78097619D02*
X137497619Y-78097619D01*
X136783333Y-77764285D01*
X137497619Y-77430952D01*
X136497619Y-77430952D01*
X134347619Y-99319047D02*
X133538095Y-99319047D01*
X133442857Y-99271428D01*
X133395238Y-99223809D01*
X133347619Y-99128571D01*
X133347619Y-98938095D01*
X133395238Y-98842857D01*
X133442857Y-98795238D01*
X133538095Y-98747619D01*
X134347619Y-98747619D01*
X133347619Y-98271428D02*
X134347619Y-98271428D01*
X133347619Y-97700000D01*
X134347619Y-97700000D01*
X133347619Y-97223809D02*
X134347619Y-97223809D01*
X134347619Y-96890476D02*
X133347619Y-96557142D01*
X134347619Y-96223809D01*
X133871428Y-95890476D02*
X133871428Y-95557142D01*
X133347619Y-95414285D02*
X133347619Y-95890476D01*
X134347619Y-95890476D01*
X134347619Y-95414285D01*
X133347619Y-94414285D02*
X133823809Y-94747619D01*
X133347619Y-94985714D02*
X134347619Y-94985714D01*
X134347619Y-94604761D01*
X134300000Y-94509523D01*
X134252380Y-94461904D01*
X134157142Y-94414285D01*
X134014285Y-94414285D01*
X133919047Y-94461904D01*
X133871428Y-94509523D01*
X133823809Y-94604761D01*
X133823809Y-94985714D01*
X133395238Y-94033333D02*
X133347619Y-93890476D01*
X133347619Y-93652380D01*
X133395238Y-93557142D01*
X133442857Y-93509523D01*
X133538095Y-93461904D01*
X133633333Y-93461904D01*
X133728571Y-93509523D01*
X133776190Y-93557142D01*
X133823809Y-93652380D01*
X133871428Y-93842857D01*
X133919047Y-93938095D01*
X133966666Y-93985714D01*
X134061904Y-94033333D01*
X134157142Y-94033333D01*
X134252380Y-93985714D01*
X134300000Y-93938095D01*
X134347619Y-93842857D01*
X134347619Y-93604761D01*
X134300000Y-93461904D01*
X133347619Y-93033333D02*
X134347619Y-93033333D01*
X134347619Y-92700000D02*
X134347619Y-92128571D01*
X133347619Y-92414285D02*
X134347619Y-92414285D01*
X133823809Y-91604761D02*
X133347619Y-91604761D01*
X134347619Y-91938095D02*
X133823809Y-91604761D01*
X134347619Y-91271428D01*
X134347619Y-89985714D02*
X134347619Y-89795238D01*
X134300000Y-89700000D01*
X134204761Y-89604761D01*
X134014285Y-89557142D01*
X133680952Y-89557142D01*
X133490476Y-89604761D01*
X133395238Y-89700000D01*
X133347619Y-89795238D01*
X133347619Y-89985714D01*
X133395238Y-90080952D01*
X133490476Y-90176190D01*
X133680952Y-90223809D01*
X134014285Y-90223809D01*
X134204761Y-90176190D01*
X134300000Y-90080952D01*
X134347619Y-89985714D01*
X133871428Y-88795238D02*
X133871428Y-89128571D01*
X133347619Y-89128571D02*
X134347619Y-89128571D01*
X134347619Y-88652380D01*
X133347619Y-87509523D02*
X134347619Y-87509523D01*
X134347619Y-87128571D01*
X134300000Y-87033333D01*
X134252380Y-86985714D01*
X134157142Y-86938095D01*
X134014285Y-86938095D01*
X133919047Y-86985714D01*
X133871428Y-87033333D01*
X133823809Y-87128571D01*
X133823809Y-87509523D01*
X133871428Y-86509523D02*
X133871428Y-86176190D01*
X133347619Y-86033333D02*
X133347619Y-86509523D01*
X134347619Y-86509523D01*
X134347619Y-86033333D01*
X133347619Y-85033333D02*
X133823809Y-85366666D01*
X133347619Y-85604761D02*
X134347619Y-85604761D01*
X134347619Y-85223809D01*
X134300000Y-85128571D01*
X134252380Y-85080952D01*
X134157142Y-85033333D01*
X134014285Y-85033333D01*
X133919047Y-85080952D01*
X133871428Y-85128571D01*
X133823809Y-85223809D01*
X133823809Y-85604761D01*
X133633333Y-84652380D02*
X133633333Y-84176190D01*
X133347619Y-84747619D02*
X134347619Y-84414285D01*
X133347619Y-84080952D01*
X133347619Y-83747619D02*
X134347619Y-83747619D01*
X134347619Y-83509523D01*
X134300000Y-83366666D01*
X134204761Y-83271428D01*
X134109523Y-83223809D01*
X133919047Y-83176190D01*
X133776190Y-83176190D01*
X133585714Y-83223809D01*
X133490476Y-83271428D01*
X133395238Y-83366666D01*
X133347619Y-83509523D01*
X133347619Y-83747619D01*
X133871428Y-82747619D02*
X133871428Y-82414285D01*
X133347619Y-82271428D02*
X133347619Y-82747619D01*
X134347619Y-82747619D01*
X134347619Y-82271428D01*
X133347619Y-81842857D02*
X134347619Y-81842857D01*
X133347619Y-81271428D01*
X134347619Y-81271428D01*
X133347619Y-80795238D02*
X134347619Y-80795238D01*
X133823809Y-80128571D02*
X133347619Y-80128571D01*
X134347619Y-80461904D02*
X133823809Y-80128571D01*
X134347619Y-79795238D01*
X133633333Y-79509523D02*
X133633333Y-79033333D01*
X133347619Y-79604761D02*
X134347619Y-79271428D01*
X133347619Y-78938095D01*
M02*
