M48
; DRILL file {KiCad (5.1.9)-1} date 08/22/21 04:22:45
; FORMAT={-:-/ absolute / inch / decimal}
; #@! TF.CreationDate,2021-08-22T04:22:45+05:30
; #@! TF.GenerationSoftware,Kicad,Pcbnew,(5.1.9)-1
; #@! TF.FileFunction,Plated,1,2,PTH
FMAT,2
INCH
T1C0.0157
T2C0.0315
T3C0.0354
T4C0.0394
T5C0.0433
%
G90
G05
T1
X5.2913Y-4.0236
T2
X4.8346Y-3.5354
X4.9331Y-3.5354
X4.9921Y-2.9055
X4.9921Y-3.1024
X5.189Y-3.1024
X5.189Y-3.2024
X5.189Y-3.3024
X5.189Y-3.4024
X5.189Y-3.5024
X5.189Y-3.6024
X5.189Y-3.7024
X5.189Y-3.8024
X5.189Y-3.9024
X5.3071Y-4.0937
X5.3071Y-4.3937
X5.489Y-3.1024
X5.489Y-3.2024
X5.489Y-3.3024
X5.489Y-3.4024
X5.489Y-3.5024
X5.489Y-3.6024
X5.489Y-3.7024
X5.489Y-3.8024
X5.489Y-3.9024
X5.5039Y-4.0937
X5.5039Y-4.3937
X5.7008Y-3.2598
X5.7008Y-3.4528
X5.7008Y-4.0937
X5.7008Y-4.3937
X5.8976Y-3.1024
X5.8976Y-3.2992
X5.8976Y-3.4173
X5.8976Y-3.6142
X5.8976Y-4.0937
X5.8976Y-4.3937
X6.0701Y-2.9449
X6.1732Y-4.2047
X6.1732Y-4.4016
X6.3701Y-2.9449
T3
X6.152Y-3.1417
X6.152Y-3.3386
X6.152Y-3.5354
X6.152Y-3.7323
X6.252Y-3.1417
X6.252Y-3.3386
X6.252Y-3.5354
X6.252Y-3.7323
T4
X6.3701Y-3.9685
X6.3701Y-4.0685
X6.3701Y-4.1685
X6.3701Y-4.2685
X6.3701Y-4.3685
T5
X4.8346Y-2.9055
X4.8346Y-3.3055
X4.8425Y-4.1575
X4.8425Y-4.2575
X4.8425Y-4.3575
X4.8528Y-2.6693
X4.9528Y-2.6693
X5.189Y-2.6299
X5.189Y-2.7299
X5.189Y-2.8299
X6.1142Y-2.5906
X6.1142Y-2.7677
X6.3701Y-2.5906
X6.3701Y-2.7677
T0
M30
